<?xml version="1.0" encoding="UTF-8" standalone="no"?>
<!DOCTYPE svg PUBLIC "-//W3C//DTD SVG 1.1//EN"
 "http://www.w3.org/Graphics/SVG/1.1/DTD/svg11.dtd">
<!-- Generated by graphviz version 12.2.1 (20241206.2353)
 -->
<!-- Title: IPCC_Structure Pages: 1 -->
<svg width="1387pt" height="313pt"
 viewBox="0.00 0.00 1387.06 313.14" xmlns="http://www.w3.org/2000/svg" xmlns:xlink="http://www.w3.org/1999/xlink">
<g id="graph0" class="graph" transform="scale(1 1) rotate(0) translate(4 309.14)">
<title>IPCC_Structure</title>
<polygon fill="white" stroke="none" points="-4,4 -4,-309.14 1383.06,-309.14 1383.06,4 -4,4"/>
<!-- IPCC -->
<g id="node1" class="node">
<title>IPCC</title>
<g id="a_node1"><a xlink:href="https://www.ipcc.ch/" xlink:title="IPCC" target="_blank">
<ellipse fill="lightyellow" stroke="lightyellow" cx="689.86" cy="-276.34" rx="54" ry="28.8"/>
<text text-anchor="middle" x="689.86" y="-270.51" font-family="Times New Roman,serif" font-size="16.00">IPCC</text>
</a>
</g>
</g>
<!-- WG1 -->
<g id="node2" class="node">
<title>WG1</title>
<g id="a_node2"><a xlink:href="https://www.ipcc.ch/working-group/wg1/" xlink:title="Working Group I" target="_blank">
<ellipse fill="lightgrey" stroke="lightgrey" cx="404.86" cy="-187.06" rx="60.89" ry="24.48"/>
<text text-anchor="middle" x="404.86" y="-182.21" font-family="Times New Roman,serif" font-size="13.00">Working Group I</text>
</a>
</g>
</g>
<!-- IPCC&#45;&gt;WG1 -->
<g id="edge16" class="edge">
<title>IPCC&#45;&gt;WG1</title>
<path fill="none" stroke="black" d="M636.26,-271.97C518.54,-262.04 492.73,-255.72 441.15,-216.15"/>
<polygon fill="black" stroke="black" points="443.5,-213.54 433.46,-210.15 439.2,-219.06 443.5,-213.54"/>
</g>
<!-- WG2 -->
<g id="node3" class="node">
<title>WG2</title>
<g id="a_node3"><a xlink:href="https://www.ipcc.ch/working-group/wg2/" xlink:title="Working Group II" target="_blank">
<ellipse fill="lightgrey" stroke="lightgrey" cx="689.86" cy="-102.1" rx="63.44" ry="24.48"/>
<text text-anchor="middle" x="689.86" y="-97.25" font-family="Times New Roman,serif" font-size="13.00">Working Group II</text>
</a>
</g>
</g>
<!-- IPCC&#45;&gt;WG2 -->
<g id="edge17" class="edge">
<title>IPCC&#45;&gt;WG2</title>
<path fill="none" stroke="black" d="M690.02,-247.27C690.14,-222.16 690.11,-203.04 689.95,-138.16"/>
<polygon fill="black" stroke="black" points="693.45,-138.39 689.93,-128.4 686.45,-138.41 693.45,-138.39"/>
</g>
<!-- WG3 -->
<g id="node4" class="node">
<title>WG3</title>
<g id="a_node4"><a xlink:href="https://www.ipcc.ch/working-group/wg3/" xlink:title="Working Group III" target="_blank">
<ellipse fill="lightgrey" stroke="lightgrey" cx="1068.86" cy="-187.06" rx="65.98" ry="24.48"/>
<text text-anchor="middle" x="1068.86" y="-182.21" font-family="Times New Roman,serif" font-size="13.00">Working Group III</text>
</a>
</g>
</g>
<!-- IPCC&#45;&gt;WG3 -->
<g id="edge18" class="edge">
<title>IPCC&#45;&gt;WG3</title>
<path fill="none" stroke="black" d="M743.89,-273.27C920.37,-263.07 952.93,-257.83 1025.26,-214.29"/>
<polygon fill="black" stroke="black" points="1026.76,-217.48 1033.48,-209.28 1023.12,-211.5 1026.76,-217.48"/>
</g>
<!-- SPM1 -->
<g id="node5" class="node">
<title>SPM1</title>
<g id="a_node5"><a xlink:href="https://www.ipcc.ch/report/ar6/wg1/chapter/summary-for-policymakers/" xlink:title="Summary for Policymakers" target="_blank">
<ellipse fill="lightgrey" stroke="lightgrey" cx="79.86" cy="-102.1" rx="79.86" ry="20.81"/>
<text text-anchor="middle" x="79.86" y="-98.4" font-family="Times New Roman,serif" font-size="11.00">Summary for Policymakers</text>
</a>
</g>
</g>
<!-- WG1&#45;&gt;SPM1 -->
<g id="edge1" class="edge">
<title>WG1&#45;&gt;SPM1</title>
<path fill="none" stroke="black" d="M349.4,-176.49C216.69,-151.13 180.25,-143.1 132.44,-124.27"/>
<polygon fill="black" stroke="black" points="134.02,-121.13 123.43,-120.64 131.4,-127.62 134.02,-121.13"/>
</g>
<!-- TS1 -->
<g id="node6" class="node">
<title>TS1</title>
<g id="a_node6"><a xlink:href="https://www.ipcc.ch/report/ar6/wg1/chapter/technical-summary/" xlink:title="Technical Summary" target="_blank">
<ellipse fill="lightgrey" stroke="lightgrey" cx="238.86" cy="-102.1" rx="61.02" ry="20.81"/>
<text text-anchor="middle" x="238.86" y="-98.4" font-family="Times New Roman,serif" font-size="11.00">Technical Summary</text>
</a>
</g>
</g>
<!-- WG1&#45;&gt;TS1 -->
<g id="edge2" class="edge">
<title>WG1&#45;&gt;TS1</title>
<path fill="none" stroke="black" d="M359.22,-170.55C308.24,-151.89 289.03,-143.44 269.97,-129.02"/>
<polygon fill="black" stroke="black" points="272.28,-126.39 262.29,-122.87 267.9,-131.85 272.28,-126.39"/>
</g>
<!-- FR1 -->
<g id="node7" class="node">
<title>FR1</title>
<g id="a_node7"><a xlink:href="https://www.ipcc.ch/report/ar6/wg1/" xlink:title="Full Report" target="_blank">
<ellipse fill="lightgrey" stroke="lightgrey" cx="356.86" cy="-102.1" rx="39.01" ry="20.81"/>
<text text-anchor="middle" x="356.86" y="-98.4" font-family="Times New Roman,serif" font-size="11.00">Full Report</text>
</a>
</g>
</g>
<!-- WG1&#45;&gt;FR1 -->
<g id="edge3" class="edge">
<title>WG1&#45;&gt;FR1</title>
<path fill="none" stroke="black" d="M382.05,-164.13C370.47,-151.91 365.06,-144.26 361.95,-134.29"/>
<polygon fill="black" stroke="black" points="365.42,-133.76 359.79,-124.78 358.59,-135.31 365.42,-133.76"/>
</g>
<!-- C1 -->
<g id="node8" class="node">
<title>C1</title>
<g id="a_node8"><a xlink:href="https://www.ipcc.ch/report/ar6/wg1/" xlink:title="Chapters" target="_blank">
<ellipse fill="lightyellow" stroke="lightyellow" cx="452.86" cy="-102.1" rx="39.01" ry="20.81"/>
<text text-anchor="middle" x="452.86" y="-98.4" font-family="Times New Roman,serif" font-size="11.00">Chapters</text>
</a>
</g>
</g>
<!-- WG1&#45;&gt;C1 -->
<g id="edge4" class="edge">
<title>WG1&#45;&gt;C1</title>
<path fill="none" stroke="black" d="M408.01,-162.13C410.49,-149 414.63,-141.11 425.84,-128.9"/>
<polygon fill="black" stroke="black" points="428.32,-131.38 432.74,-121.75 423.28,-126.52 428.32,-131.38"/>
</g>
<!-- CC1 -->
<g id="node9" class="node">
<title>CC1</title>
<g id="a_node9"><a xlink:href="https://www.ipcc.ch/report/ar6/wg1/" xlink:title="Cross Chapters" target="_blank">
<ellipse fill="lightgreen" stroke="lightgreen" cx="558.86" cy="-102.1" rx="49.2" ry="20.81"/>
<text text-anchor="middle" x="558.86" y="-98.4" font-family="Times New Roman,serif" font-size="11.00">Cross Chapters</text>
</a>
</g>
</g>
<!-- WG1&#45;&gt;CC1 -->
<g id="edge5" class="edge">
<title>WG1&#45;&gt;CC1</title>
<path fill="none" stroke="black" d="M427.56,-164.03C446.59,-146.27 462.31,-138.16 510.4,-120.01"/>
<polygon fill="black" stroke="black" points="511.61,-123.29 519.75,-116.51 509.16,-116.74 511.61,-123.29"/>
</g>
<!-- SPM2 -->
<g id="node10" class="node">
<title>SPM2</title>
<g id="a_node10"><a xlink:href="https://www.ipcc.ch/report/ar6/wg2/chapter/summary-for-policymakers/" xlink:title="Summary for Policymakers" target="_blank">
<ellipse fill="lightgrey" stroke="lightgrey" cx="412.86" cy="-20.81" rx="79.86" ry="20.81"/>
<text text-anchor="middle" x="412.86" y="-17.11" font-family="Times New Roman,serif" font-size="11.00">Summary for Policymakers</text>
</a>
</g>
</g>
<!-- WG2&#45;&gt;SPM2 -->
<g id="edge6" class="edge">
<title>WG2&#45;&gt;SPM2</title>
<path fill="none" stroke="black" d="M644.77,-84.62C565.21,-53.86 527.86,-40.07 496.01,-32.49"/>
<polygon fill="black" stroke="black" points="496.91,-29.1 486.39,-30.37 495.4,-35.94 496.91,-29.1"/>
</g>
<!-- TS2 -->
<g id="node11" class="node">
<title>TS2</title>
<g id="a_node11"><a xlink:href="https://www.ipcc.ch/report/ar6/wg2/chapter/technical-summary/" xlink:title="Technical Summary" target="_blank">
<ellipse fill="lightgrey" stroke="lightgrey" cx="571.86" cy="-20.81" rx="61.02" ry="20.81"/>
<text text-anchor="middle" x="571.86" y="-17.11" font-family="Times New Roman,serif" font-size="11.00">Technical Summary</text>
</a>
</g>
</g>
<!-- WG2&#45;&gt;TS2 -->
<g id="edge7" class="edge">
<title>WG2&#45;&gt;TS2</title>
<path fill="none" stroke="black" d="M663.83,-79.54C643.06,-61.63 630.16,-50.93 619.35,-43.47"/>
<polygon fill="black" stroke="black" points="621.45,-40.66 611.13,-38.23 617.68,-46.56 621.45,-40.66"/>
</g>
<!-- FR2 -->
<g id="node12" class="node">
<title>FR2</title>
<g id="a_node12"><a xlink:href="https://www.ipcc.ch/report/ar6/wg2/" xlink:title="Full Report" target="_blank">
<ellipse fill="lightgrey" stroke="lightgrey" cx="689.86" cy="-20.81" rx="39.01" ry="20.81"/>
<text text-anchor="middle" x="689.86" y="-17.11" font-family="Times New Roman,serif" font-size="11.00">Full Report</text>
</a>
</g>
</g>
<!-- WG2&#45;&gt;FR2 -->
<g id="edge8" class="edge">
<title>WG2&#45;&gt;FR2</title>
<path fill="none" stroke="black" d="M689.88,-77.39C689.89,-66.83 689.9,-59.31 689.9,-53.28"/>
<polygon fill="black" stroke="black" points="693.4,-53.43 689.9,-43.43 686.4,-53.43 693.4,-53.43"/>
</g>
<!-- C2 -->
<g id="node13" class="node">
<title>C2</title>
<g id="a_node13"><a xlink:href="https://www.ipcc.ch/report/ar6/wg2/" xlink:title="Chapters" target="_blank">
<ellipse fill="lightyellow" stroke="lightyellow" cx="785.86" cy="-20.81" rx="39.01" ry="20.81"/>
<text text-anchor="middle" x="785.86" y="-17.11" font-family="Times New Roman,serif" font-size="11.00">Chapters</text>
</a>
</g>
</g>
<!-- WG2&#45;&gt;C2 -->
<g id="edge9" class="edge">
<title>WG2&#45;&gt;C2</title>
<path fill="none" stroke="black" d="M712.06,-78.8C729.8,-60.31 740.28,-49.89 749.49,-42.48"/>
<polygon fill="black" stroke="black" points="751.29,-45.5 757.29,-36.76 747.15,-39.85 751.29,-45.5"/>
</g>
<!-- CC2 -->
<g id="node14" class="node">
<title>CC2</title>
<g id="a_node14"><a xlink:href="https://www.ipcc.ch/report/ar6/wg2/" xlink:title="Cross Chapters" target="_blank">
<ellipse fill="lightgreen" stroke="lightgreen" cx="891.86" cy="-20.81" rx="49.2" ry="20.81"/>
<text text-anchor="middle" x="891.86" y="-17.11" font-family="Times New Roman,serif" font-size="11.00">Cross Chapters</text>
</a>
</g>
</g>
<!-- WG2&#45;&gt;CC2 -->
<g id="edge10" class="edge">
<title>WG2&#45;&gt;CC2</title>
<path fill="none" stroke="black" d="M727.85,-82.26C785.76,-52.11 811.14,-39.73 835.58,-32.39"/>
<polygon fill="black" stroke="black" points="836.28,-35.83 845.01,-29.83 834.44,-29.08 836.28,-35.83"/>
</g>
<!-- SPM3 -->
<g id="node15" class="node">
<title>SPM3</title>
<g id="a_node15"><a xlink:href="https://www.ipcc.ch/report/ar6/wg3/chapter/summary-for-policymakers/" xlink:title="Summary for Policymakers" target="_blank">
<ellipse fill="lightgrey" stroke="lightgrey" cx="850.86" cy="-102.1" rx="79.86" ry="20.81"/>
<text text-anchor="middle" x="850.86" y="-98.4" font-family="Times New Roman,serif" font-size="11.00">Summary for Policymakers</text>
</a>
</g>
</g>
<!-- WG3&#45;&gt;SPM3 -->
<g id="edge11" class="edge">
<title>WG3&#45;&gt;SPM3</title>
<path fill="none" stroke="black" d="M1037.08,-165.22C1008.23,-146.63 986.61,-138.56 918.46,-120.07"/>
<polygon fill="black" stroke="black" points="919.62,-116.76 909.06,-117.53 917.8,-123.52 919.62,-116.76"/>
</g>
<!-- TS3 -->
<g id="node16" class="node">
<title>TS3</title>
<g id="a_node16"><a xlink:href="https://www.ipcc.ch/report/ar6/wg3/chapter/technical-summary/" xlink:title="Technical Summary" target="_blank">
<ellipse fill="lightgrey" stroke="lightgrey" cx="1009.86" cy="-102.1" rx="61.02" ry="20.81"/>
<text text-anchor="middle" x="1009.86" y="-98.4" font-family="Times New Roman,serif" font-size="11.00">Technical Summary</text>
</a>
</g>
</g>
<!-- WG3&#45;&gt;TS3 -->
<g id="edge12" class="edge">
<title>WG3&#45;&gt;TS3</title>
<path fill="none" stroke="black" d="M1063.16,-162.2C1059.34,-149.24 1054.27,-141.39 1041.52,-129.38"/>
<polygon fill="black" stroke="black" points="1043.97,-126.88 1034.2,-122.78 1039.28,-132.08 1043.97,-126.88"/>
</g>
<!-- FR3 -->
<g id="node17" class="node">
<title>FR3</title>
<g id="a_node17"><a xlink:href="https://www.ipcc.ch/report/ar6/wg3/" xlink:title="Full Report" target="_blank">
<ellipse fill="lightgrey" stroke="lightgrey" cx="1127.86" cy="-102.1" rx="39.02" ry="20.81"/>
<text text-anchor="middle" x="1127.86" y="-98.4" font-family="Times New Roman,serif" font-size="11.00">Full Report</text>
</a>
</g>
</g>
<!-- WG3&#45;&gt;FR3 -->
<g id="edge13" class="edge">
<title>WG3&#45;&gt;FR3</title>
<path fill="none" stroke="black" d="M1095.2,-164.18C1108.85,-151.79 1115.3,-144.1 1119.55,-133.89"/>
<polygon fill="black" stroke="black" points="1122.83,-135.12 1122.65,-124.53 1116.18,-132.93 1122.83,-135.12"/>
</g>
<!-- C3 -->
<g id="node18" class="node">
<title>C3</title>
<g id="a_node18"><a xlink:href="https://www.ipcc.ch/report/ar6/wg3/" xlink:title="Chapters" target="_blank">
<ellipse fill="lightyellow" stroke="lightyellow" cx="1223.86" cy="-102.1" rx="39.02" ry="20.81"/>
<text text-anchor="middle" x="1223.86" y="-98.4" font-family="Times New Roman,serif" font-size="11.00">Chapters</text>
</a>
</g>
</g>
<!-- WG3&#45;&gt;C3 -->
<g id="edge14" class="edge">
<title>WG3&#45;&gt;C3</title>
<path fill="none" stroke="black" d="M1115.03,-169.32C1161.62,-151.14 1178.86,-142.8 1196.59,-127.93"/>
<polygon fill="black" stroke="black" points="1198.58,-130.84 1203.75,-121.59 1193.94,-125.6 1198.58,-130.84"/>
</g>
<!-- CC3 -->
<g id="node19" class="node">
<title>CC3</title>
<g id="a_node19"><a xlink:href="https://www.ipcc.ch/report/ar6/wg3/" xlink:title="Cross Chapters" target="_blank">
<ellipse fill="lightgreen" stroke="lightgreen" cx="1329.86" cy="-102.1" rx="49.2" ry="20.81"/>
<text text-anchor="middle" x="1329.86" y="-98.4" font-family="Times New Roman,serif" font-size="11.00">Cross Chapters</text>
</a>
</g>
</g>
<!-- WG3&#45;&gt;CC3 -->
<g id="edge15" class="edge">
<title>WG3&#45;&gt;CC3</title>
<path fill="none" stroke="black" d="M1125.1,-173.87C1223.78,-150.6 1251.99,-142.57 1289.11,-123.95"/>
<polygon fill="black" stroke="black" points="1290.69,-127.07 1297.98,-119.38 1287.49,-120.85 1290.69,-127.07"/>
</g>
</g>
</svg>
