<?xml version="1.0" encoding="UTF-8" standalone="no"?>
<!DOCTYPE svg PUBLIC "-//W3C//DTD SVG 1.1//EN"
 "http://www.w3.org/Graphics/SVG/1.1/DTD/svg11.dtd">
<!-- Generated by graphviz version 12.2.1 (20241206.2353)
 -->
<!-- Title: SYR_Report Pages: 1 -->
<svg width="1261pt" height="398pt"
 viewBox="0.00 0.00 1260.53 398.10" xmlns="http://www.w3.org/2000/svg" xmlns:xlink="http://www.w3.org/1999/xlink">
<g id="graph0" class="graph" transform="scale(1 1) rotate(0) translate(4 394.1)">
<title>SYR_Report</title>
<polygon fill="white" stroke="none" points="-4,4 -4,-394.1 1256.53,-394.1 1256.53,4 -4,4"/>
<!-- Synthesis Report -->
<g id="node1" class="node">
<title>Synthesis Report</title>
<g id="a_node1"><a xlink:href="https://www.ipcc.ch/synthesis-report/" xlink:title="Synthesis Report" target="_blank">
<ellipse fill="lightyellow" stroke="lightyellow" cx="549.22" cy="-361.3" rx="70.43" ry="28.8"/>
<text text-anchor="middle" x="549.22" y="-355.47" font-family="Times New Roman,serif" font-size="16.00">Synthesis Report</text>
</a>
</g>
</g>
<!-- About -->
<g id="node2" class="node">
<title>About</title>
<g id="a_node2"><a xlink:href="https://www.ipcc.ch/synthesis-report/#synthesis-report-intro-1" xlink:title="About" target="_blank">
<ellipse fill="lightgrey" stroke="lightgrey" cx="475.22" cy="-272.02" rx="45.9" ry="24.48"/>
<text text-anchor="middle" x="475.22" y="-267.17" font-family="Times New Roman,serif" font-size="13.00">About</text>
</a>
</g>
</g>
<!-- Synthesis Report&#45;&gt;About -->
<g id="edge11" class="edge">
<title>Synthesis Report&#45;&gt;About</title>
<path fill="none" stroke="black" d="M508.71,-337.55C499.26,-329.92 493.79,-321.5 487.78,-306.87"/>
<polygon fill="black" stroke="black" points="491.12,-305.79 484.26,-297.71 484.59,-308.3 491.12,-305.79"/>
</g>
<!-- Report -->
<g id="node3" class="node">
<title>Report</title>
<g id="a_node3"><a xlink:href="https://www.ipcc.ch/synthesis-report/#synthesis-report-text-1" xlink:title="Report" target="_blank">
<ellipse fill="lightgreen" stroke="lightgreen" cx="549.22" cy="-187.06" rx="45.9" ry="24.48"/>
<text text-anchor="middle" x="549.22" y="-182.21" font-family="Times New Roman,serif" font-size="13.00">Report</text>
</a>
</g>
</g>
<!-- Synthesis Report&#45;&gt;Report -->
<g id="edge12" class="edge">
<title>Synthesis Report&#45;&gt;Report</title>
<path fill="none" stroke="black" d="M538.38,-332.54C527.55,-300.83 528.62,-284.05 541.59,-222.55"/>
<polygon fill="black" stroke="black" points="544.98,-223.4 543.64,-212.89 538.14,-221.95 544.98,-223.4"/>
</g>
<!-- Activities -->
<g id="node4" class="node">
<title>Activities</title>
<g id="a_node4"><a xlink:href="https://www.ipcc.ch/synthesis-report/#synthesis-report-text-2" xlink:title="Activities" target="_blank">
<ellipse fill="lightgrey" stroke="lightgrey" cx="623.22" cy="-272.02" rx="45.9" ry="24.48"/>
<text text-anchor="middle" x="623.22" y="-267.17" font-family="Times New Roman,serif" font-size="13.00">Activities</text>
</a>
</g>
</g>
<!-- Synthesis Report&#45;&gt;Activities -->
<g id="edge13" class="edge">
<title>Synthesis Report&#45;&gt;Activities</title>
<path fill="none" stroke="black" d="M579.28,-334.96C585.2,-328.06 591.67,-319.08 601.25,-304.93"/>
<polygon fill="black" stroke="black" points="604.13,-306.93 606.8,-296.68 598.32,-303.02 604.13,-306.93"/>
</g>
<!-- First AR -->
<g id="node5" class="node">
<title>First AR</title>
<g id="a_node5"><a xlink:href="https://www.ipcc.ch/report/ar1/syr/" xlink:title="First Assesment Report" target="_blank">
<ellipse fill="lightgrey" stroke="lightgrey" cx="70.22" cy="-105.77" rx="70.22" ry="20.81"/>
<text text-anchor="middle" x="70.22" y="-102.07" font-family="Times New Roman,serif" font-size="11.00">First Assesment Report</text>
</a>
</g>
</g>
<!-- Report&#45;&gt;First AR -->
<g id="edge1" class="edge">
<title>Report&#45;&gt;First AR</title>
<path fill="none" stroke="black" d="M505.09,-179.77C273.35,-141.5 221.74,-132.92 141.7,-118.63"/>
<polygon fill="black" stroke="black" points="142.67,-115.25 132.21,-116.93 141.44,-122.14 142.67,-115.25"/>
</g>
<!-- Second AR -->
<g id="node6" class="node">
<title>Second AR</title>
<g id="a_node6"><a xlink:href="https://www.ipcc.ch/report/ar2/syr/" xlink:title="Second Assesment Report" target="_blank">
<ellipse fill="lightgrey" stroke="lightgrey" cx="235.22" cy="-105.77" rx="77.23" ry="20.81"/>
<text text-anchor="middle" x="235.22" y="-102.07" font-family="Times New Roman,serif" font-size="11.00">Second Assesment Report</text>
</a>
</g>
</g>
<!-- Report&#45;&gt;Second AR -->
<g id="edge2" class="edge">
<title>Report&#45;&gt;Second AR</title>
<path fill="none" stroke="black" d="M506.99,-176.74C382.46,-146.32 341.81,-136.25 299.14,-124.29"/>
<polygon fill="black" stroke="black" points="300.23,-120.96 289.66,-121.6 298.33,-127.69 300.23,-120.96"/>
</g>
<!-- Third AR -->
<g id="node7" class="node">
<title>Third AR</title>
<g id="a_node7"><a xlink:href="https://www.ipcc.ch/report/ar3/syr/" xlink:title="Third Assesment Report" target="_blank">
<ellipse fill="lightgrey" stroke="lightgrey" cx="403.22" cy="-105.77" rx="72.41" ry="20.81"/>
<text text-anchor="middle" x="403.22" y="-102.07" font-family="Times New Roman,serif" font-size="11.00">Third Assesment Report</text>
</a>
</g>
</g>
<!-- Report&#45;&gt;Third AR -->
<g id="edge3" class="edge">
<title>Report&#45;&gt;Third AR</title>
<path fill="none" stroke="black" d="M515.03,-170.41C474.25,-150.51 455.36,-140.93 439.88,-131.38"/>
<polygon fill="black" stroke="black" points="442.09,-128.64 431.79,-126.16 438.3,-134.52 442.09,-128.64"/>
</g>
<!-- Fourth AR -->
<g id="node8" class="node">
<title>Fourth AR</title>
<g id="a_node8"><a xlink:href="https://www.ipcc.ch/report/ar4/syr/" xlink:title="Fourth Assesment" target="_blank">
<ellipse fill="lightgrey" stroke="lightgrey" cx="549.22" cy="-105.77" rx="55.77" ry="20.81"/>
<text text-anchor="middle" x="549.22" y="-102.07" font-family="Times New Roman,serif" font-size="11.00">Fourth Assesment</text>
</a>
</g>
</g>
<!-- Report&#45;&gt;Fourth AR -->
<g id="edge4" class="edge">
<title>Report&#45;&gt;Fourth AR</title>
<path fill="none" stroke="black" d="M542.55,-162.42C539.81,-151.49 538.62,-144.24 538.97,-137.61"/>
<polygon fill="black" stroke="black" points="542.37,-138.47 540.75,-128 535.49,-137.2 542.37,-138.47"/>
</g>
<!-- Fifth AR -->
<g id="node9" class="node">
<title>Fifth AR</title>
<g id="a_node9"><a xlink:href="https://www.ipcc.ch/report/ar5/syr/" xlink:title="Fifth Assesment Report" target="_blank">
<ellipse fill="lightgrey" stroke="lightgrey" cx="693.22" cy="-105.77" rx="70.66" ry="20.81"/>
<text text-anchor="middle" x="693.22" y="-102.07" font-family="Times New Roman,serif" font-size="11.00">Fifth Assesment Report</text>
</a>
</g>
</g>
<!-- Report&#45;&gt;Fifth AR -->
<g id="edge5" class="edge">
<title>Report&#45;&gt;Fifth AR</title>
<path fill="none" stroke="black" d="M570.1,-164.78C592.35,-141.3 606.01,-128.4 620.67,-120.64"/>
<polygon fill="black" stroke="black" points="621.98,-123.89 629.71,-116.65 619.15,-117.49 621.98,-123.89"/>
</g>
<!-- Sixth AR -->
<g id="node10" class="node">
<title>Sixth AR</title>
<g id="a_node10"><a xlink:href="https://www.ipcc.ch/report/ar6/syr/" xlink:title="Sixth Assesment Report" target="_blank">
<ellipse fill="lightgrey" stroke="lightgrey" cx="853.22" cy="-105.77" rx="71.54" ry="20.81"/>
<text text-anchor="middle" x="853.22" y="-102.07" font-family="Times New Roman,serif" font-size="11.00">Sixth Assesment Report</text>
</a>
</g>
</g>
<!-- Report&#45;&gt;Sixth AR -->
<g id="edge6" class="edge">
<title>Report&#45;&gt;Sixth AR</title>
<path fill="none" stroke="black" d="M587.4,-173.1C692.16,-134.87 733.64,-120.45 772.85,-113.55"/>
<polygon fill="black" stroke="black" points="773.36,-117.01 782.68,-111.98 772.26,-110.1 773.36,-117.01"/>
</g>
<!-- SR -->
<g id="node11" class="node">
<title>SR</title>
<ellipse fill="lightgreen" stroke="lightgreen" cx="990.22" cy="-105.77" rx="47.89" ry="20.81"/>
<text text-anchor="middle" x="990.22" y="-102.07" font-family="Times New Roman,serif" font-size="11.00">Special Report</text>
</g>
<!-- Report&#45;&gt;SR -->
<g id="edge7" class="edge">
<title>Report&#45;&gt;SR</title>
<path fill="none" stroke="black" d="M591.83,-177.37C809,-128.04 851.23,-119.04 931.84,-111.07"/>
<polygon fill="black" stroke="black" points="931.82,-114.59 941.44,-110.14 931.15,-107.62 931.82,-114.59"/>
</g>
<!-- CCC -->
<g id="node12" class="node">
<title>CCC</title>
<g id="a_node12"><a xlink:href="https://www.ipcc.ch/report/special-report-on-climate-change-and-cities/" xlink:title="Climate Change and Cities" target="_blank">
<ellipse fill="lightgrey" stroke="lightgrey" cx="794.22" cy="-24.48" rx="90.2" ry="24.48"/>
<text text-anchor="middle" x="794.22" y="-19.63" font-family="Times New Roman,serif" font-size="13.00">Climate Change and Cities</text>
</a>
</g>
</g>
<!-- SR&#45;&gt;CCC -->
<g id="edge8" class="edge">
<title>SR&#45;&gt;CCC</title>
<path fill="none" stroke="black" d="M970.48,-86.43C942.03,-59.27 926.08,-49.35 882.09,-39.84"/>
<polygon fill="black" stroke="black" points="882.93,-36.44 872.43,-37.86 881.52,-43.3 882.93,-36.44"/>
</g>
<!-- CCL -->
<g id="node13" class="node">
<title>CCL</title>
<g id="a_node13"><a xlink:href="https://www.ipcc.ch/report/srccl/" xlink:title="Climate Change and Land" target="_blank">
<ellipse fill="lightgrey" stroke="lightgrey" cx="990.22" cy="-24.48" rx="88.07" ry="24.48"/>
<text text-anchor="middle" x="990.22" y="-19.63" font-family="Times New Roman,serif" font-size="13.00">Climate Change and Land</text>
</a>
</g>
</g>
<!-- SR&#45;&gt;CCL -->
<g id="edge9" class="edge">
<title>SR&#45;&gt;CCL</title>
<path fill="none" stroke="black" d="M996.99,-84.91C1000.25,-74.21 1001.82,-67 1001.7,-60.28"/>
<polygon fill="black" stroke="black" points="1005.16,-59.74 1000.13,-50.41 998.24,-60.84 1005.16,-59.74"/>
</g>
<!-- OC -->
<g id="node14" class="node">
<title>OC</title>
<g id="a_node14"><a xlink:href="https://www.ipcc.ch/report/srocc/" xlink:title="Ocean and Cryosphere" target="_blank">
<ellipse fill="lightgrey" stroke="lightgrey" cx="1174.22" cy="-24.48" rx="78.3" ry="24.48"/>
<text text-anchor="middle" x="1174.22" y="-19.63" font-family="Times New Roman,serif" font-size="13.00">Ocean and Cryosphere</text>
</a>
</g>
</g>
<!-- SR&#45;&gt;OC -->
<g id="edge10" class="edge">
<title>SR&#45;&gt;OC</title>
<path fill="none" stroke="black" d="M1026.19,-91.54C1079.43,-70.45 1104.44,-60.3 1124.5,-50.8"/>
<polygon fill="black" stroke="black" points="1125.85,-54.04 1133.3,-46.51 1122.78,-47.75 1125.85,-54.04"/>
</g>
</g>
</svg>
