<?xml version="1.0" encoding="UTF-8" standalone="no"?>
<!DOCTYPE svg PUBLIC "-//W3C//DTD SVG 1.1//EN"
 "http://www.w3.org/Graphics/SVG/1.1/DTD/svg11.dtd">
<!-- Generated by graphviz version 2.43.0 (0)
 -->
<!-- Title: Chapter8_TOC Pages: 1 -->
<svg width="9354pt" height="118pt"
 viewBox="0.00 0.00 9353.50 118.00" xmlns="http://www.w3.org/2000/svg" xmlns:xlink="http://www.w3.org/1999/xlink">
<g id="graph0" class="graph" transform="scale(1 1) rotate(0) translate(4 114)">
<title>Chapter8_TOC</title>
<polygon fill="white" stroke="transparent" points="-4,4 -4,-114 9349.5,-114 9349.5,4 -4,4"/>
<!-- ROOT -->
<g id="node1" class="node">
<title>ROOT</title>
<polygon fill="#aed6f1" stroke="black" points="4713.5,-110 4558.5,-110 4558.5,-72 4713.5,-72 4713.5,-110"/>
<text text-anchor="middle" x="4636" y="-94.8" font-family="Arial Bold" font-size="14.00">Chapter 8:</text>
<text text-anchor="middle" x="4636" y="-79.8" font-family="Arial Bold" font-size="14.00">Water Cycle Changes</text>
</g>
<!-- N1 -->
<g id="node2" class="node">
<title>N1</title>
<polygon fill="#f9e79f" stroke="black" points="110,-36 0,-36 0,0 110,0 110,-36"/>
<text text-anchor="middle" x="55" y="-14.3" font-family="Arial" font-size="14.00">8.1 Introduction</text>
</g>
<!-- ROOT&#45;&gt;N1 -->
<g id="edge1" class="edge">
<title>ROOT&#45;&gt;N1</title>
<path fill="none" stroke="black" d="M4558.14,-89.62C3985.25,-86.74 435.92,-67.73 120.53,-35.78"/>
<polygon fill="black" stroke="black" points="120.67,-32.28 110.33,-34.59 119.86,-39.23 120.67,-32.28"/>
</g>
<!-- N2 -->
<g id="node3" class="node">
<title>N2</title>
<polygon fill="#f9e79f" stroke="black" points="304,-36 128,-36 128,0 304,0 304,-36"/>
<text text-anchor="middle" x="216" y="-14.3" font-family="Arial" font-size="14.00">8.1.1 Scope and Overview</text>
</g>
<!-- ROOT&#45;&gt;N2 -->
<g id="edge2" class="edge">
<title>ROOT&#45;&gt;N2</title>
<path fill="none" stroke="black" d="M4558.48,-89.78C4016.22,-88.18 798.64,-77.01 314.47,-35.99"/>
<polygon fill="black" stroke="black" points="314.48,-32.48 304.21,-35.08 313.86,-39.45 314.48,-32.48"/>
</g>
<!-- N3 -->
<g id="node4" class="node">
<title>N3</title>
<polygon fill="#f9e79f" stroke="black" points="691.5,-36 322.5,-36 322.5,0 691.5,0 691.5,-36"/>
<text text-anchor="middle" x="507" y="-14.3" font-family="Arial" font-size="14.00">Importance of Water for Human Societies and Ecosystems</text>
</g>
<!-- ROOT&#45;&gt;N3 -->
<g id="edge3" class="edge">
<title>ROOT&#45;&gt;N3</title>
<path fill="none" stroke="black" d="M4558.44,-89.72C4079,-87.85 1513.31,-76.12 701.61,-36"/>
<polygon fill="black" stroke="black" points="701.72,-32.5 691.55,-35.49 701.37,-39.49 701.72,-32.5"/>
</g>
<!-- N4 -->
<g id="node5" class="node">
<title>N4</title>
<polygon fill="#f9e79f" stroke="black" points="1078,-36 710,-36 710,0 1078,0 1078,-36"/>
<text text-anchor="middle" x="894" y="-14.3" font-family="Arial" font-size="14.00">Overview of the Global Water Cycle in the Climate System</text>
</g>
<!-- ROOT&#45;&gt;N4 -->
<g id="edge4" class="edge">
<title>ROOT&#45;&gt;N4</title>
<path fill="none" stroke="black" d="M4558.49,-89.59C4107.58,-87.08 1817.63,-72.72 1088.21,-36.03"/>
<polygon fill="black" stroke="black" points="1088.28,-32.53 1078.11,-35.52 1087.92,-39.52 1088.28,-32.53"/>
</g>
<!-- N5 -->
<g id="node6" class="node">
<title>N5</title>
<polygon fill="#f9e79f" stroke="black" points="1546,-36 1096,-36 1096,0 1546,0 1546,-36"/>
<text text-anchor="middle" x="1321" y="-14.3" font-family="Arial" font-size="14.00">8.1.2 Summary of Water Cycle Changes From AR5 and Special Reports</text>
</g>
<!-- ROOT&#45;&gt;N5 -->
<g id="edge5" class="edge">
<title>ROOT&#45;&gt;N5</title>
<path fill="none" stroke="black" d="M4558.27,-90.21C4210.08,-90.82 2758.65,-89.87 1556.24,-36.04"/>
<polygon fill="black" stroke="black" points="1556.24,-32.54 1546.09,-35.58 1555.92,-39.53 1556.24,-32.54"/>
</g>
<!-- N6 -->
<g id="node7" class="node">
<title>N6</title>
<polygon fill="#f9e79f" stroke="black" points="1871.5,-36 1564.5,-36 1564.5,0 1871.5,0 1871.5,-36"/>
<text text-anchor="middle" x="1718" y="-14.3" font-family="Arial" font-size="14.00">8.1.3 Chapter Motivations, Framing and Preview</text>
</g>
<!-- ROOT&#45;&gt;N6 -->
<g id="edge6" class="edge">
<title>ROOT&#45;&gt;N6</title>
<path fill="none" stroke="black" d="M4558.49,-89.37C4171.37,-86.06 2444.05,-69.7 1881.77,-36"/>
<polygon fill="black" stroke="black" points="1881.73,-32.49 1871.54,-35.38 1881.31,-39.48 1881.73,-32.49"/>
</g>
<!-- N7 -->
<g id="node8" class="node">
<title>N7</title>
<polygon fill="#f9e79f" stroke="black" points="2214,-36 1890,-36 1890,0 2214,0 2214,-36"/>
<text text-anchor="middle" x="2052" y="-14.3" font-family="Arial" font-size="14.00">8.2 Why Should We Expect Water Cycle Changes?</text>
</g>
<!-- ROOT&#45;&gt;N7 -->
<g id="edge7" class="edge">
<title>ROOT&#45;&gt;N7</title>
<path fill="none" stroke="black" d="M4558.31,-90.43C4258.59,-91.61 3148.72,-91.79 2224.62,-36.07"/>
<polygon fill="black" stroke="black" points="2224.64,-32.56 2214.44,-35.45 2224.21,-39.55 2224.64,-32.56"/>
</g>
<!-- N8 -->
<g id="node9" class="node">
<title>N8</title>
<polygon fill="#f9e79f" stroke="black" points="2471.5,-36 2232.5,-36 2232.5,0 2471.5,0 2471.5,-36"/>
<text text-anchor="middle" x="2352" y="-14.3" font-family="Arial" font-size="14.00">8.2.1 Global Water Cycle Constraints</text>
</g>
<!-- ROOT&#45;&gt;N8 -->
<g id="edge8" class="edge">
<title>ROOT&#45;&gt;N8</title>
<path fill="none" stroke="black" d="M4558.26,-89.16C4225.36,-85.38 2917.56,-68.79 2481.91,-36"/>
<polygon fill="black" stroke="black" points="2482.02,-32.5 2471.78,-35.22 2481.48,-39.48 2482.02,-32.5"/>
</g>
<!-- N9 -->
<g id="node10" class="node">
<title>N9</title>
<polygon fill="#f9e79f" stroke="black" points="2784,-36 2490,-36 2490,0 2784,0 2784,-36"/>
<text text-anchor="middle" x="2637" y="-14.3" font-family="Arial" font-size="14.00">8.2.2 Constraints on the Regional Water Cycle</text>
</g>
<!-- ROOT&#45;&gt;N9 -->
<g id="edge9" class="edge">
<title>ROOT&#45;&gt;N9</title>
<path fill="none" stroke="black" d="M4558.19,-89.92C4305.38,-89.21 3484.07,-83.2 2794.5,-36.07"/>
<polygon fill="black" stroke="black" points="2794.58,-32.57 2784.36,-35.37 2794.1,-39.55 2794.58,-32.57"/>
</g>
<!-- N10 -->
<g id="node11" class="node">
<title>N10</title>
<polygon fill="#f9e79f" stroke="black" points="3197.5,-36 2802.5,-36 2802.5,0 3197.5,0 3197.5,-36"/>
<text text-anchor="middle" x="3000" y="-14.3" font-family="Arial" font-size="14.00">8.2.3 Local&#45;scale Physical Processes Affecting the Water Cycle</text>
</g>
<!-- ROOT&#45;&gt;N10 -->
<g id="edge10" class="edge">
<title>ROOT&#45;&gt;N10</title>
<path fill="none" stroke="black" d="M4558.49,-88.27C4345.03,-83.26 3730.34,-67.1 3207.76,-36.03"/>
<polygon fill="black" stroke="black" points="3207.94,-32.53 3197.75,-35.43 3207.53,-39.52 3207.94,-32.53"/>
</g>
<!-- N11 -->
<g id="node12" class="node">
<title>N11</title>
<polygon fill="#f9e79f" stroke="black" points="3620,-36 3216,-36 3216,0 3620,0 3620,-36"/>
<text text-anchor="middle" x="3418" y="-14.3" font-family="Arial" font-size="14.00">Box 8.1 Role of Anthropogenic Aerosols in Water Cycle Changes</text>
</g>
<!-- ROOT&#45;&gt;N11 -->
<g id="edge11" class="edge">
<title>ROOT&#45;&gt;N11</title>
<path fill="none" stroke="black" d="M4558.26,-86.54C4390.77,-78.94 3983.17,-59.61 3630.3,-36.08"/>
<polygon fill="black" stroke="black" points="3630.35,-32.57 3620.14,-35.4 3629.88,-39.56 3630.35,-32.57"/>
</g>
<!-- N12 -->
<g id="node13" class="node">
<title>N12</title>
<polygon fill="#f9e79f" stroke="black" points="3945.5,-36 3638.5,-36 3638.5,0 3945.5,0 3945.5,-36"/>
<text text-anchor="middle" x="3792" y="-14.3" font-family="Arial" font-size="14.00">8.3 How Is the Water Cycle Changing and Why?</text>
</g>
<!-- ROOT&#45;&gt;N12 -->
<g id="edge12" class="edge">
<title>ROOT&#45;&gt;N12</title>
<path fill="none" stroke="black" d="M4558.47,-84.51C4433.74,-75.53 4180.51,-56.71 3955.9,-36.16"/>
<polygon fill="black" stroke="black" points="3956.18,-32.68 3945.91,-35.25 3955.54,-39.65 3956.18,-32.68"/>
</g>
<!-- N13 -->
<g id="node14" class="node">
<title>N13</title>
<polygon fill="#f9e79f" stroke="black" points="4376.5,-36 3963.5,-36 3963.5,0 4376.5,0 4376.5,-36"/>
<text text-anchor="middle" x="4170" y="-14.3" font-family="Arial" font-size="14.00">8.3.1 Observed Water Cycle Changes Based on Multiple Datasets</text>
</g>
<!-- ROOT&#45;&gt;N13 -->
<g id="edge13" class="edge">
<title>ROOT&#45;&gt;N13</title>
<path fill="none" stroke="black" d="M4558.26,-78.16C4485.73,-67.1 4376.35,-50.44 4292.15,-37.61"/>
<polygon fill="black" stroke="black" points="4292.42,-34.11 4282.01,-36.07 4291.37,-41.03 4292.42,-34.11"/>
</g>
<!-- N14 -->
<g id="node15" class="node">
<title>N14</title>
<polygon fill="#f9e79f" stroke="black" points="4877.5,-36 4394.5,-36 4394.5,0 4877.5,0 4877.5,-36"/>
<text text-anchor="middle" x="4636" y="-14.3" font-family="Arial" font-size="14.00">8.3.2 Observed Variations in Large&#45;scale Phenomena and Regional Variability</text>
</g>
<!-- ROOT&#45;&gt;N14 -->
<g id="edge14" class="edge">
<title>ROOT&#45;&gt;N14</title>
<path fill="none" stroke="black" d="M4636,-71.72C4636,-63.97 4636,-54.79 4636,-46.27"/>
<polygon fill="black" stroke="black" points="4639.5,-46 4636,-36 4632.5,-46 4639.5,-46"/>
</g>
<!-- N15 -->
<g id="node16" class="node">
<title>N15</title>
<polygon fill="#f9e79f" stroke="black" points="5216.5,-36 4895.5,-36 4895.5,0 5216.5,0 5216.5,-36"/>
<text text-anchor="middle" x="5056" y="-14.3" font-family="Arial" font-size="14.00">8.4 What Are the Projected Water Cycle Changes?</text>
</g>
<!-- ROOT&#45;&gt;N15 -->
<g id="edge15" class="edge">
<title>ROOT&#45;&gt;N15</title>
<path fill="none" stroke="black" d="M4713.52,-76.89C4778.49,-65.91 4872.06,-50.09 4944.98,-37.77"/>
<polygon fill="black" stroke="black" points="4945.85,-41.17 4955.13,-36.05 4944.68,-34.27 4945.85,-41.17"/>
</g>
<!-- N16 -->
<g id="node17" class="node">
<title>N16</title>
<polygon fill="#f9e79f" stroke="black" points="5477,-36 5235,-36 5235,0 5477,0 5477,-36"/>
<text text-anchor="middle" x="5356" y="-14.3" font-family="Arial" font-size="14.00">8.4.1 Projected Water Cycle Changes</text>
</g>
<!-- ROOT&#45;&gt;N16 -->
<g id="edge16" class="edge">
<title>ROOT&#45;&gt;N16</title>
<path fill="none" stroke="black" d="M4713.88,-83.84C4824.88,-74.84 5035.2,-57 5224.77,-36.11"/>
<polygon fill="black" stroke="black" points="5225.37,-39.57 5234.92,-34.99 5224.6,-32.61 5225.37,-39.57"/>
</g>
<!-- N17 -->
<g id="node18" class="node">
<title>N17</title>
<polygon fill="#f9e79f" stroke="black" points="5780.5,-36 5495.5,-36 5495.5,0 5780.5,0 5780.5,-36"/>
<text text-anchor="middle" x="5638" y="-14.3" font-family="Arial" font-size="14.00">Box 8.2 Changes in Water Cycle Seasonality</text>
</g>
<!-- ROOT&#45;&gt;N17 -->
<g id="edge17" class="edge">
<title>ROOT&#45;&gt;N17</title>
<path fill="none" stroke="black" d="M4713.74,-86.31C4861.64,-79.02 5193.98,-61.32 5484.89,-36.07"/>
<polygon fill="black" stroke="black" points="5485.56,-39.53 5495.22,-35.17 5484.95,-32.55 5485.56,-39.53"/>
</g>
<!-- N18 -->
<g id="node19" class="node">
<title>N18</title>
<polygon fill="#f9e79f" stroke="black" points="6275,-36 5799,-36 5799,0 6275,0 6275,-36"/>
<text text-anchor="middle" x="6037" y="-14.3" font-family="Arial" font-size="14.00">8.4.2 Projected Changes in Large&#45;scale Phenomena and Regional Variability</text>
</g>
<!-- ROOT&#45;&gt;N18 -->
<g id="edge18" class="edge">
<title>ROOT&#45;&gt;N18</title>
<path fill="none" stroke="black" d="M4713.7,-86.95C4898.16,-79.59 5377.23,-59.73 5788.73,-36.07"/>
<polygon fill="black" stroke="black" points="5788.96,-39.56 5798.74,-35.49 5788.56,-32.57 5788.96,-39.56"/>
</g>
<!-- N19 -->
<g id="node20" class="node">
<title>N19</title>
<polygon fill="#f9e79f" stroke="black" points="6676.5,-36 6293.5,-36 6293.5,0 6676.5,0 6676.5,-36"/>
<text text-anchor="middle" x="6485" y="-14.3" font-family="Arial" font-size="14.00">8.5 What Are the Limits for Projecting Water Cycle Changes?</text>
</g>
<!-- ROOT&#45;&gt;N19 -->
<g id="edge19" class="edge">
<title>ROOT&#45;&gt;N19</title>
<path fill="none" stroke="black" d="M4713.71,-88.88C4948.55,-85.18 5671.76,-71.57 6282.91,-36.04"/>
<polygon fill="black" stroke="black" points="6283.47,-39.52 6293.25,-35.44 6283.06,-32.53 6283.47,-39.52"/>
</g>
<!-- N20 -->
<g id="node21" class="node">
<title>N20</title>
<polygon fill="#f9e79f" stroke="black" points="7066,-36 6694,-36 6694,0 7066,0 7066,-36"/>
<text text-anchor="middle" x="6880" y="-14.3" font-family="Arial" font-size="14.00">8.5.1 Model Uncertainties of Relevance for the Water Cycle</text>
</g>
<!-- ROOT&#45;&gt;N20 -->
<g id="edge20" class="edge">
<title>ROOT&#45;&gt;N20</title>
<path fill="none" stroke="black" d="M4713.8,-89.66C4984.37,-88.12 5909.6,-79.81 6683.66,-36.11"/>
<polygon fill="black" stroke="black" points="6684.12,-39.59 6693.9,-35.53 6683.72,-32.61 6684.12,-39.59"/>
</g>
<!-- N21 -->
<g id="node22" class="node">
<title>N21</title>
<polygon fill="#f9e79f" stroke="black" points="7416,-36 7084,-36 7084,0 7416,0 7416,-36"/>
<text text-anchor="middle" x="7250" y="-14.3" font-family="Arial" font-size="14.00">8.5.2 Role of Internal Variability and Volcanic Forcing</text>
</g>
<!-- ROOT&#45;&gt;N21 -->
<g id="edge21" class="edge">
<title>ROOT&#45;&gt;N21</title>
<path fill="none" stroke="black" d="M4713.75,-90.39C5015.53,-91.46 6138.44,-91.29 7073.45,-36.06"/>
<polygon fill="black" stroke="black" points="7073.98,-39.54 7083.76,-35.45 7073.57,-32.55 7073.98,-39.54"/>
</g>
<!-- N22 -->
<g id="node23" class="node">
<title>N22</title>
<polygon fill="#f9e79f" stroke="black" points="7760,-36 7434,-36 7434,0 7760,0 7760,-36"/>
<text text-anchor="middle" x="7597" y="-14.3" font-family="Arial" font-size="14.00">8.5.3 Non&#45;linearities Across Global Warming Levels</text>
</g>
<!-- ROOT&#45;&gt;N22 -->
<g id="edge22" class="edge">
<title>ROOT&#45;&gt;N22</title>
<path fill="none" stroke="black" d="M4713.81,-89.33C5104.4,-85.83 6854.58,-68.6 7423.27,-36.07"/>
<polygon fill="black" stroke="black" points="7423.83,-39.54 7433.61,-35.46 7423.42,-32.55 7423.83,-39.54"/>
</g>
<!-- N23 -->
<g id="node24" class="node">
<title>N23</title>
<polygon fill="#f9e79f" stroke="black" points="8063.5,-36 7778.5,-36 7778.5,0 8063.5,0 8063.5,-36"/>
<text text-anchor="middle" x="7921" y="-14.3" font-family="Arial" font-size="14.00">8.6 What Is the Potential for Abrupt Change?</text>
</g>
<!-- ROOT&#45;&gt;N23 -->
<g id="edge23" class="edge">
<title>ROOT&#45;&gt;N23</title>
<path fill="none" stroke="black" d="M4713.83,-89.65C5133.04,-87.64 7126.51,-76.11 7767.96,-36.02"/>
<polygon fill="black" stroke="black" points="7768.47,-39.49 7778.23,-35.36 7768.03,-32.5 7768.47,-39.49"/>
</g>
<!-- N24 -->
<g id="node25" class="node">
<title>N24</title>
<polygon fill="#f9e79f" stroke="black" points="8462,-36 8082,-36 8082,0 8462,0 8462,-36"/>
<text text-anchor="middle" x="8272" y="-14.3" font-family="Arial" font-size="14.00">8.6.1 Abrupt Water Cycle Responses to a Collapse of AMOC</text>
</g>
<!-- ROOT&#45;&gt;N24 -->
<g id="edge24" class="edge">
<title>ROOT&#45;&gt;N24</title>
<path fill="none" stroke="black" d="M4713.58,-89.52C5156.13,-86.64 7366.21,-70.78 8071.87,-36.03"/>
<polygon fill="black" stroke="black" points="8072.08,-39.52 8081.9,-35.53 8071.74,-32.53 8072.08,-39.52"/>
</g>
<!-- N25 -->
<g id="node26" class="node">
<title>N25</title>
<polygon fill="#f9e79f" stroke="black" points="8834,-36 8480,-36 8480,0 8834,0 8834,-36"/>
<text text-anchor="middle" x="8657" y="-14.3" font-family="Arial" font-size="14.00">8.6.2 Abrupt Responses to Changes in the Land Surface</text>
</g>
<!-- ROOT&#45;&gt;N25 -->
<g id="edge25" class="edge">
<title>ROOT&#45;&gt;N25</title>
<path fill="none" stroke="black" d="M4713.5,-89.72C5185.57,-87.92 7679.89,-76.63 8469.74,-36.03"/>
<polygon fill="black" stroke="black" points="8470.01,-39.52 8479.81,-35.51 8469.64,-32.53 8470.01,-39.52"/>
</g>
<!-- N26 -->
<g id="node27" class="node">
<title>N26</title>
<polygon fill="#f9e79f" stroke="black" points="9200,-36 8852,-36 8852,0 9200,0 9200,-36"/>
<text text-anchor="middle" x="9026" y="-14.3" font-family="Arial" font-size="14.00">8.6.3 Abrupt Responses to Solar Radiation Modification</text>
</g>
<!-- ROOT&#45;&gt;N26 -->
<g id="edge26" class="edge">
<title>ROOT&#45;&gt;N26</title>
<path fill="none" stroke="black" d="M4713.6,-89.85C5212.3,-88.77 7972.9,-80.84 8841.54,-36.04"/>
<polygon fill="black" stroke="black" points="8841.87,-39.53 8851.67,-35.52 8841.5,-32.54 8841.87,-39.53"/>
</g>
<!-- N27 -->
<g id="node28" class="node">
<title>N27</title>
<polygon fill="#f9e79f" stroke="black" points="9345.5,-36 9218.5,-36 9218.5,0 9345.5,0 9345.5,-36"/>
<text text-anchor="middle" x="9282" y="-14.3" font-family="Arial" font-size="14.00">8.7 Final Remarks</text>
</g>
<!-- ROOT&#45;&gt;N27 -->
<g id="edge27" class="edge">
<title>ROOT&#45;&gt;N27</title>
<path fill="none" stroke="black" d="M4713.92,-90.1C5275.64,-90.68 8698.65,-91.96 9208.34,-35.82"/>
<polygon fill="black" stroke="black" points="9208.91,-39.28 9218.44,-34.66 9208.11,-32.33 9208.91,-39.28"/>
</g>
</g>
</svg>
