<?xml version="1.0" standalone="no"?>
<svg xmlns="http://www.w3.org/2000/svg" xmlns:xlink="http://www.w3.org/1999/xlink" width="1252pt" height="749pt" viewBox="0.00 0.00 1252.00 748.80">
<g id="graph0" class="graph" transform="translate(4,744.7999877929688) scale(1)" data-name="Hyperbook">

<polygon fill="white" stroke="none" points="-4,4 -4,-744.8 1248,-744.8 1248,4 -4,4"/>
<g id="clust1" class="cluster" data-name="cluster_source">

<polygon fill="none" stroke="black" points="8,-584 8,-732.8 292,-732.8 292,-584 8,-584"/>
<text text-anchor="middle" x="150" y="-716.2" font-family="Times,serif" font-size="14.00">Source</text>
</g>
<g id="clust2" class="cluster" data-name="cluster_Transformation_and_Normalization">

<polygon fill="none" stroke="black" points="300,-224 300,-732.8 822,-732.8 822,-224 300,-224"/>
<text text-anchor="middle" x="561" y="-716.2" font-family="Times,serif" font-size="14.00">Transformation and Normalization</text>
</g>
<g id="clust3" class="cluster" data-name="cluster_Hyperbook_Presentation">

<polygon fill="none" stroke="black" points="830,-8 830,-732.8 1236,-732.8 1236,-8 830,-8"/>
<text text-anchor="middle" x="1033" y="-716.2" font-family="Times,serif" font-size="14.00">Hyperbook/Presentation</text>
</g>
<!-- IPCC Reports -->
<g id="node1" class="node" pointer-events="visible" data-name="IPCC Reports">

<polygon fill="#add8e6" stroke="black" points="209.18,-700 114.82,-700 114.82,-664 209.18,-664 209.18,-700"/>
<text text-anchor="middle" x="162" y="-677.8" font-family="Times,serif" font-size="14.00">IPCC Reports</text>
</g>
<!-- IPCC Glossary -->
<g id="node2" class="node" pointer-events="visible" data-name="IPCC Glossary">

<polygon fill="#add8e6" stroke="black" points="116.4,-628 15.6,-628 15.6,-592 116.4,-592 116.4,-628"/>
<text text-anchor="middle" x="66" y="-605.8" font-family="Times,serif" font-size="14.00">IPCC Glossary</text>
</g>
<!-- IPCC Reports&#45;&gt;IPCC Glossary -->
<g id="edge1" class="edge" data-name="IPCC Reports-&gt;IPCC Glossary">

<path fill="none" stroke="black" d="M138.27,-663.7C123.5,-652.93 104.57,-639.12 89.79,-628.35"/>
</g>
<!-- Gatsby -->
<g id="node3" class="node" pointer-events="visible" data-name="Gatsby">

<polygon fill="#add8e6" stroke="black" points="189.66,-628 134.34,-628 134.34,-592 189.66,-592 189.66,-628"/>
<text text-anchor="middle" x="162" y="-605.8" font-family="Times,serif" font-size="14.00">Gatsby</text>
</g>
<!-- IPCC Reports&#45;&gt;Gatsby -->
<g id="edge2" class="edge" data-name="IPCC Reports-&gt;Gatsby">

<path fill="none" stroke="black" d="M162,-663.7C162,-652.85 162,-638.92 162,-628.1"/>
</g>
<!-- Wordpress -->
<g id="node4" class="node" pointer-events="visible" data-name="Wordpress">

<polygon fill="#add8e6" stroke="black" points="284.15,-628 207.85,-628 207.85,-592 284.15,-592 284.15,-628"/>
<text text-anchor="middle" x="246" y="-605.8" font-family="Times,serif" font-size="14.00">Wordpress</text>
</g>
<!-- IPCC Reports&#45;&gt;Wordpress -->
<g id="edge3" class="edge" data-name="IPCC Reports-&gt;Wordpress">

<path fill="none" stroke="black" d="M182.76,-663.7C195.69,-652.93 212.25,-639.12 225.18,-628.35"/>
</g>
<!-- HTML with IDs -->
<g id="node5" class="node" pointer-events="visible" data-name="HTML with IDs">

<polygon fill="#add8e6" stroke="black" points="693.77,-700 586.23,-700 586.23,-664 693.77,-664 693.77,-700"/>
<text text-anchor="middle" x="640" y="-677.8" font-family="Times,serif" font-size="14.00">HTML with IDs</text>
</g>
<!-- Marked HTML -->
<g id="node6" class="node" pointer-events="visible" data-name="Marked HTML">

<polygon fill="#add8e6" stroke="black" points="691.2,-628 588.8,-628 588.8,-592 691.2,-592 691.2,-628"/>
<text text-anchor="middle" x="640" y="-605.8" font-family="Times,serif" font-size="14.00">Marked HTML</text>
</g>
<!-- HTML with IDs&#45;&gt;Marked HTML -->
<!-- Document/Publication organisation -->
<g id="node7" class="node" pointer-events="visible" data-name="Document/Publication organisation">

<polygon fill="#add8e6" stroke="black" points="522.19,-556 307.81,-556 307.81,-520 522.19,-520 522.19,-556"/>
<text text-anchor="middle" x="415" y="-533.8" font-family="Times,serif" font-size="14.00">Document/Publication organisation</text>
</g>
<!-- Marked HTML&#45;&gt;Document/Publication organisation -->
<!-- Source of Truth:HTML with IDs -->
<g id="node8" class="node" pointer-events="visible" data-name="Source of Truth:HTML with IDs">

<polygon fill="#add8e6" stroke="black" points="740.3,-556 539.7,-556 539.7,-520 740.3,-520 740.3,-556"/>
<text text-anchor="middle" x="640" y="-533.8" font-family="Times,serif" font-size="14.00">Source of Truth:HTML with IDs</text>
</g>
<!-- Marked HTML&#45;&gt;Source of Truth:HTML with IDs -->
<!-- RDFa? -->
<g id="node9" class="node" pointer-events="visible" data-name="RDFa?">

<polygon fill="#add8e6" stroke="black" points="813.66,-556 758.34,-556 758.34,-520 813.66,-520 813.66,-556"/>
<text text-anchor="middle" x="786" y="-533.8" font-family="Times,serif" font-size="14.00">RDFa?</text>
</g>
<!-- Marked HTML&#45;&gt;RDFa? -->
<!-- Word lists -->
<g id="node10" class="node" pointer-events="visible" data-name="Word lists">

<polygon fill="#add8e6" stroke="black" points="451.94,-484 378.06,-484 378.06,-448 451.94,-448 451.94,-484"/>
<text text-anchor="middle" x="415" y="-461.8" font-family="Times,serif" font-size="14.00">Word lists</text>
</g>
<!-- Document/Publication organisation&#45;&gt;Word lists -->
<!-- Wikimedia -->
<g id="node11" class="node" pointer-events="visible" data-name="Wikimedia">

<polygon fill="#add8e6" stroke="black" points="454.2,-412 375.8,-412 375.8,-376 454.2,-376 454.2,-412"/>
<text text-anchor="middle" x="415" y="-389.8" font-family="Times,serif" font-size="14.00">Wikimedia</text>
</g>
<!-- Word lists&#45;&gt;Wikimedia -->
<g id="edge5" class="edge" data-name="Word lists-&gt;Wikimedia">

<path fill="none" stroke="black" d="M415,-447.7C415,-436.85 415,-422.92 415,-412.1"/>
</g>
<!-- Encyclopedia -->
<g id="node12" class="node" pointer-events="visible" data-name="Encyclopedia">

<polygon fill="#add8e6" stroke="black" points="461.19,-340 368.81,-340 368.81,-304 461.19,-304 461.19,-340"/>
<text text-anchor="middle" x="415" y="-317.8" font-family="Times,serif" font-size="14.00">Encyclopedia</text>
</g>
<!-- Wikimedia&#45;&gt;Encyclopedia -->
<!-- Markup other documents -->
<g id="node13" class="node" pointer-events="visible" data-name="Markup other documents">

<polygon fill="#add8e6" stroke="black" points="493.25,-268 336.75,-268 336.75,-232 493.25,-232 493.25,-268"/>
<text text-anchor="middle" x="415" y="-245.8" font-family="Times,serif" font-size="14.00">Markup other documents</text>
</g>
<!-- Encyclopedia&#45;&gt;Markup other documents -->
<!-- 1. Collation content and resources -->
<g id="node14" class="node" pointer-events="visible" data-name="1. Collation content and resources">

<text text-anchor="middle" x="1125" y="-677.8" font-family="Times,serif" font-size="14.00">1. Collation content and resources</text>
</g>
<!-- 2. Typesetting -->
<g id="node19" class="node" pointer-events="visible" data-name="2. Typesetting">

<text text-anchor="middle" x="1125" y="-605.8" font-family="Times,serif" font-size="14.00">2. Typesetting</text>
</g>
<!-- 1. Collation content and resources&#45;&gt;2. Typesetting -->
<!-- Publication Manifest W3C -->
<g id="node15" class="node" pointer-events="visible" data-name="Publication Manifest W3C">

<polygon fill="#add8e6" stroke="black" points="1004.09,-700 837.91,-700 837.91,-664 1004.09,-664 1004.09,-700"/>
<text text-anchor="middle" x="921" y="-677.8" font-family="Times,serif" font-size="14.00">Publication Manifest W3C</text>
</g>
<!-- Resources -->
<g id="node16" class="node" pointer-events="visible" data-name="Resources">

<polygon fill="#add8e6" stroke="black" points="957.54,-628 884.46,-628 884.46,-592 957.54,-592 957.54,-628"/>
<text text-anchor="middle" x="921" y="-605.8" font-family="Times,serif" font-size="14.00">Resources</text>
</g>
<!-- Publication Manifest W3C&#45;&gt;Resources -->
<g id="edge12" class="edge" data-name="Publication Manifest W3C-&gt;Resources">

<path fill="none" stroke="black" d="M921,-663.7C921,-652.85 921,-638.92 921,-628.1"/>
</g>
<!-- Content -->
<g id="node17" class="node" pointer-events="visible" data-name="Content">

<polygon fill="#add8e6" stroke="black" points="925.33,-556 864.67,-556 864.67,-520 925.33,-520 925.33,-556"/>
<text text-anchor="middle" x="895" y="-533.8" font-family="Times,serif" font-size="14.00">Content</text>
</g>
<!-- Resources&#45;&gt;Content -->
<g id="edge13" class="edge" data-name="Resources-&gt;Content">

<path fill="none" stroke="black" d="M914.57,-591.7C910.54,-580.85 905.37,-566.92 901.35,-556.1"/>
</g>
<!-- Styles -->
<g id="node18" class="node" pointer-events="visible" data-name="Styles">

<polygon fill="#add8e6" stroke="black" points="997,-556 943,-556 943,-520 997,-520 997,-556"/>
<text text-anchor="middle" x="970" y="-533.8" font-family="Times,serif" font-size="14.00">Styles</text>
</g>
<!-- Resources&#45;&gt;Styles -->
<g id="edge14" class="edge" data-name="Resources-&gt;Styles">

<path fill="none" stroke="black" d="M933.11,-591.7C940.71,-580.85 950.46,-566.92 958.03,-556.1"/>
</g>
<!-- Paged Media CSS W3C -->
<g id="node20" class="node" pointer-events="visible" data-name="Paged Media CSS W3C">

<polygon fill="#add8e6" stroke="black" points="1183.44,-556 1032.56,-556 1032.56,-520 1183.44,-520 1183.44,-556"/>
<text text-anchor="middle" x="1108" y="-533.8" font-family="Times,serif" font-size="14.00">Paged Media CSS W3C</text>
</g>
<!-- 2. Typesetting&#45;&gt;Paged Media CSS W3C -->
<!-- 3. Derived publication &#45; Metadata -->
<g id="node26" class="node" pointer-events="visible" data-name="3. Derived publication - Metadata">

<text text-anchor="middle" x="1089" y="-101.8" font-family="Times,serif" font-size="14.00">3. Derived publication - Metadata</text>
</g>
<!-- 2. Typesetting&#45;&gt;3. Derived publication &#45; Metadata -->
<!-- Renders the CSS -->
<g id="node21" class="node" pointer-events="visible" data-name="Renders the CSS">

<polygon fill="#add8e6" stroke="black" points="1153.39,-484 1042.61,-484 1042.61,-448 1153.39,-448 1153.39,-484"/>
<text text-anchor="middle" x="1098" y="-461.8" font-family="Times,serif" font-size="14.00">Renders the CSS</text>
</g>
<!-- Paged Media CSS W3C&#45;&gt;Renders the CSS -->
<!-- Software module to render CSS -->
<g id="node22" class="node" pointer-events="visible" data-name="Software module to render CSS">

<polygon fill="#add8e6" stroke="black" points="1185.08,-412 990.92,-412 990.92,-376 1185.08,-376 1185.08,-412"/>
<text text-anchor="middle" x="1088" y="-389.8" font-family="Times,serif" font-size="14.00">Software module to render CSS</text>
</g>
<!-- Renders the CSS&#45;&gt;Software module to render CSS -->
<!-- Vivliostyle -->
<g id="node23" class="node" pointer-events="visible" data-name="Vivliostyle">

<polygon fill="#add8e6" stroke="black" points="1122.22,-340 1043.78,-340 1043.78,-304 1122.22,-304 1122.22,-340"/>
<text text-anchor="middle" x="1083" y="-317.8" font-family="Times,serif" font-size="14.00">Vivliostyle</text>
</g>
<!-- Software module to render CSS&#45;&gt;Vivliostyle -->
<!-- Output any type -->
<g id="node24" class="node" pointer-events="visible" data-name="Output any type">

<polygon fill="#add8e6" stroke="black" points="1135.21,-268 1028.79,-268 1028.79,-232 1135.21,-232 1135.21,-268"/>
<text text-anchor="middle" x="1082" y="-245.8" font-family="Times,serif" font-size="14.00">Output any type</text>
</g>
<!-- Vivliostyle&#45;&gt;Output any type -->
<!-- Make CSS style and configurations -->
<g id="node25" class="node" pointer-events="visible" data-name="Make CSS style and configurations">

<polygon fill="#add8e6" stroke="black" points="1187.31,-196 972.69,-196 972.69,-160 1187.31,-160 1187.31,-196"/>
<text text-anchor="middle" x="1080" y="-173.8" font-family="Times,serif" font-size="14.00">Make CSS style and configurations</text>
</g>
<!-- Output any type&#45;&gt;Make CSS style and configurations -->
<!-- Make CSS style and configurations&#45;&gt;3. Derived publication &#45; Metadata -->
<!-- 4. Packaging: LOD or Self&#45;contained -->
<g id="node27" class="node" pointer-events="visible" data-name="4. Packaging: LOD or Self-contained">

<text text-anchor="middle" x="1089" y="-29.8" font-family="Times,serif" font-size="14.00">4. Packaging: LOD or Self-contained</text>
</g>
<!-- 3. Derived publication &#45; Metadata&#45;&gt;4. Packaging: LOD or Self&#45;contained -->
</g>
</svg>