<?xml version="1.0" encoding="UTF-8" standalone="no"?>
<!DOCTYPE svg PUBLIC "-//W3C//DTD SVG 1.1//EN"
 "http://www.w3.org/Graphics/SVG/1.1/DTD/svg11.dtd">
<!-- Generated by graphviz version 12.2.1 (20241206.2353)
 -->
<!-- Pages: 1 -->
<svg width="605pt" height="2231pt"
 viewBox="0.00 0.00 605.32 2231.00" xmlns="http://www.w3.org/2000/svg" xmlns:xlink="http://www.w3.org/1999/xlink">
<g id="graph0" class="graph" transform="scale(1 1) rotate(0) translate(4 2227)">
<polygon fill="white" stroke="none" points="-4,4 -4,-2227 601.32,-2227 601.32,4 -4,4"/>
<!-- IPCC -->
<g id="node1" class="node">
<title>IPCC</title>
<g id="a_node1"><a xlink:href="https://www.ipcc.ch/report" xlink:title="IPCC">
<ellipse fill="#add8e6" stroke="#add8e6" cx="31.39" cy="-855" rx="31.39" ry="18"/>
<text text-anchor="middle" x="31.39" y="-849.95" font-family="Times New Roman,serif" font-size="14.00">IPCC</text>
</a>
</g>
</g>
<!-- AR1 -->
<g id="node2" class="node">
<title>AR1</title>
<polygon fill="#90ee90" stroke="#90ee90" points="181.83,-1008 115.77,-1008 98.78,-972 164.83,-972 181.83,-1008"/>
<text text-anchor="middle" x="140.3" y="-984.95" font-family="Times New Roman,serif" font-size="14.00">AR1</text>
</g>
<!-- IPCC&#45;&gt;AR1 -->
<g id="edge1" class="edge">
<title>IPCC&#45;&gt;AR1</title>
<path fill="none" stroke="black" stroke-dasharray="1,5" d="M40.28,-872.66C51.08,-895.44 72.2,-935.43 98.78,-963 99.15,-963.38 99.52,-963.76 99.9,-964.13"/>
<polygon fill="black" stroke="black" points="97.52,-966.7 107.37,-970.61 102.11,-961.41 97.52,-966.7"/>
</g>
<!-- AR2 -->
<g id="node3" class="node">
<title>AR2</title>
<polygon fill="#90ee90" stroke="#90ee90" points="181.83,-954 115.77,-954 98.78,-918 164.83,-918 181.83,-954"/>
<text text-anchor="middle" x="140.3" y="-930.95" font-family="Times New Roman,serif" font-size="14.00">AR2</text>
</g>
<!-- IPCC&#45;&gt;AR2 -->
<g id="edge2" class="edge">
<title>IPCC&#45;&gt;AR2</title>
<path fill="none" stroke="black" stroke-dasharray="1,5" d="M49.78,-869.91C62.97,-881.02 81.68,-896.39 98.78,-909 99.77,-909.73 100.77,-910.46 101.79,-911.19"/>
<polygon fill="black" stroke="black" points="99.72,-914.02 109.92,-916.88 103.74,-908.28 99.72,-914.02"/>
</g>
<!-- AR3 -->
<g id="node4" class="node">
<title>AR3</title>
<polygon fill="#90ee90" stroke="#90ee90" points="181.83,-900 115.77,-900 98.78,-864 164.83,-864 181.83,-900"/>
<text text-anchor="middle" x="140.3" y="-876.95" font-family="Times New Roman,serif" font-size="14.00">AR3</text>
</g>
<!-- IPCC&#45;&gt;AR3 -->
<g id="edge3" class="edge">
<title>IPCC&#45;&gt;AR3</title>
<path fill="none" stroke="black" stroke-dasharray="1,5" d="M60.76,-862.16C70.12,-864.53 80.81,-867.23 91.22,-869.86"/>
<polygon fill="black" stroke="black" points="90.31,-873.24 100.86,-872.29 92.02,-866.45 90.31,-873.24"/>
</g>
<!-- AR4 -->
<g id="node5" class="node">
<title>AR4</title>
<polygon fill="#90ee90" stroke="#90ee90" points="181.83,-846 115.77,-846 98.78,-810 164.83,-810 181.83,-846"/>
<text text-anchor="middle" x="140.3" y="-822.95" font-family="Times New Roman,serif" font-size="14.00">AR4</text>
</g>
<!-- IPCC&#45;&gt;AR4 -->
<g id="edge4" class="edge">
<title>IPCC&#45;&gt;AR4</title>
<path fill="none" stroke="black" stroke-dasharray="1,5" d="M60.76,-847.84C72.63,-844.84 86.63,-841.3 99.49,-838.05"/>
<polygon fill="black" stroke="black" points="100.12,-841.5 108.96,-835.66 98.41,-834.72 100.12,-841.5"/>
</g>
<!-- AR5 -->
<g id="node6" class="node">
<title>AR5</title>
<polygon fill="#90ee90" stroke="#90ee90" points="181.83,-792 115.77,-792 98.78,-756 164.83,-756 181.83,-792"/>
<text text-anchor="middle" x="140.3" y="-768.95" font-family="Times New Roman,serif" font-size="14.00">AR5</text>
</g>
<!-- IPCC&#45;&gt;AR5 -->
<g id="edge5" class="edge">
<title>IPCC&#45;&gt;AR5</title>
<path fill="none" stroke="black" stroke-dasharray="1,5" d="M49.78,-840.09C62.97,-828.98 81.68,-813.61 98.78,-801 100.98,-799.38 103.28,-797.73 105.61,-796.1"/>
<polygon fill="black" stroke="black" points="107.11,-799.31 113.37,-790.76 103.14,-793.54 107.11,-799.31"/>
</g>
<!-- AR6 -->
<g id="node7" class="node">
<title>AR6</title>
<polygon fill="#90ee90" stroke="#90ee90" points="181.83,-738 115.77,-738 98.78,-702 164.83,-702 181.83,-738"/>
<text text-anchor="middle" x="140.3" y="-714.95" font-family="Times New Roman,serif" font-size="14.00">AR6</text>
</g>
<!-- IPCC&#45;&gt;AR6 -->
<g id="edge6" class="edge">
<title>IPCC&#45;&gt;AR6</title>
<path fill="none" stroke="black" stroke-dasharray="1,5" d="M40.28,-837.34C51.08,-814.56 72.2,-774.57 98.78,-747 100.73,-744.98 102.86,-743.02 105.09,-741.16"/>
<polygon fill="black" stroke="black" points="106.92,-744.15 112.78,-735.33 102.7,-738.57 106.92,-744.15"/>
</g>
<!-- Wg1 -->
<g id="node8" class="node">
<title>Wg1</title>
<g id="a_node8"><a xlink:href="https://www.ipcc.ch/report/ar6/wg1/" xlink:title="Wg1">
<polygon fill="#fff40e" stroke="#fff40e" points="262.22,-1872 220.72,-1854 262.22,-1836 303.72,-1854 262.22,-1872"/>
<text text-anchor="middle" x="262.22" y="-1848.95" font-family="Times New Roman,serif" font-size="14.00">Wg1</text>
</a>
</g>
</g>
<!-- AR6&#45;&gt;Wg1 -->
<g id="edge7" class="edge">
<title>AR6&#45;&gt;Wg1</title>
<path fill="none" stroke="black" stroke-dasharray="1,5" d="M174.8,-738.27C177.53,-740.88 179.96,-743.79 181.83,-747 209.79,-795.02 251.84,-1655.69 259.87,-1825.17"/>
<polygon fill="black" stroke="black" points="256.37,-1825.23 260.34,-1835.05 263.36,-1824.9 256.37,-1825.23"/>
</g>
<!-- Wg2 -->
<g id="node9" class="node">
<title>Wg2</title>
<g id="a_node9"><a xlink:href="https://www.ipcc.ch/report/ar6/wg2/" xlink:title="Wg2">
<polygon fill="#fff40e" stroke="#fff40e" points="262.22,-954 220.72,-936 262.22,-918 303.72,-936 262.22,-954"/>
<text text-anchor="middle" x="262.22" y="-930.95" font-family="Times New Roman,serif" font-size="14.00">Wg2</text>
</a>
</g>
</g>
<!-- AR6&#45;&gt;Wg2 -->
<g id="edge8" class="edge">
<title>AR6&#45;&gt;Wg2</title>
<path fill="none" stroke="black" stroke-dasharray="1,5" d="M172.97,-738.31C176.2,-740.97 179.24,-743.87 181.83,-747 222.5,-796.24 245.16,-869.31 255.08,-908.61"/>
<polygon fill="black" stroke="black" points="251.64,-909.29 257.4,-918.19 258.44,-907.64 251.64,-909.29"/>
</g>
<!-- Wg3 -->
<g id="node10" class="node">
<title>Wg3</title>
<g id="a_node10"><a xlink:href="https://www.ipcc.ch/report/ar6/wg3/" xlink:title="Wg3">
<polygon fill="#fff40e" stroke="#fff40e" points="262.22,-522 220.72,-504 262.22,-486 303.72,-504 262.22,-522"/>
<text text-anchor="middle" x="262.22" y="-498.95" font-family="Times New Roman,serif" font-size="14.00">Wg3</text>
</a>
</g>
</g>
<!-- AR6&#45;&gt;Wg3 -->
<g id="edge9" class="edge">
<title>AR6&#45;&gt;Wg3</title>
<path fill="none" stroke="black" stroke-dasharray="1,5" d="M151.53,-701.58C173.09,-662.74 223.24,-572.41 247.54,-528.64"/>
<polygon fill="black" stroke="black" points="250.6,-530.34 252.39,-519.9 244.48,-526.95 250.6,-530.34"/>
</g>
<!-- SynR -->
<g id="node11" class="node">
<title>SynR</title>
<g id="a_node11"><a xlink:href="https://www.ipcc.ch/report/ar6/syr/" xlink:title="SynR">
<polygon fill="#fff40e" stroke="#fff40e" points="262.22,-468 217.83,-450 262.22,-432 306.61,-450 262.22,-468"/>
<text text-anchor="middle" x="262.22" y="-444.95" font-family="Times New Roman,serif" font-size="14.00">SynR</text>
</a>
</g>
</g>
<!-- AR6&#45;&gt;SynR -->
<g id="edge10" class="edge">
<title>AR6&#45;&gt;SynR</title>
<path fill="none" stroke="black" stroke-dasharray="1,5" d="M142.77,-701.55C147.08,-658.08 163.07,-547.6 217.83,-477 221.25,-472.59 225.61,-468.71 230.24,-465.38"/>
<polygon fill="black" stroke="black" points="232.04,-468.38 238.64,-460.1 228.31,-462.46 232.04,-468.38"/>
</g>
<!-- Ch1_1 -->
<g id="node12" class="node">
<title>Ch1_1</title>
<g id="a_node12"><a xlink:href="https://www.ipcc.ch/report/ar6/wg1/chapter/chapter-1/" xlink:title="Ch1_1">
<path fill="#e6e6fa" stroke="#e6e6fa" d="M449.59,-2219.73C449.59,-2221.53 437.49,-2223 422.59,-2223 407.7,-2223 395.59,-2221.53 395.59,-2219.73 395.59,-2219.73 395.59,-2190.27 395.59,-2190.27 395.59,-2188.47 407.7,-2187 422.59,-2187 437.49,-2187 449.59,-2188.47 449.59,-2190.27 449.59,-2190.27 449.59,-2219.73 449.59,-2219.73"/>
<path fill="none" stroke="#e6e6fa" d="M449.59,-2219.73C449.59,-2217.92 437.49,-2216.45 422.59,-2216.45 407.7,-2216.45 395.59,-2217.92 395.59,-2219.73"/>
<text text-anchor="middle" x="422.59" y="-2199.95" font-family="Times New Roman,serif" font-size="14.00">Ch1_1</text>
</a>
</g>
</g>
<!-- Wg1&#45;&gt;Ch1_1 -->
<g id="edge11" class="edge">
<title>Wg1&#45;&gt;Ch1_1</title>
<path fill="none" stroke="black" stroke-dasharray="1,5" d="M265.23,-1871.04C272.65,-1931.07 300.2,-2131.63 342.61,-2178 353.37,-2189.76 369.46,-2196.4 384.31,-2200.14"/>
<polygon fill="black" stroke="black" points="383.34,-2203.52 393.84,-2202.17 384.79,-2196.67 383.34,-2203.52"/>
</g>
<!-- Ch1_2 -->
<g id="node13" class="node">
<title>Ch1_2</title>
<g id="a_node13"><a xlink:href="https://www.ipcc.ch/report/ar6/wg1/chapter/chapter-2/" xlink:title="Ch1_2">
<path fill="#e6e6fa" stroke="#e6e6fa" d="M449.59,-2165.73C449.59,-2167.53 437.49,-2169 422.59,-2169 407.7,-2169 395.59,-2167.53 395.59,-2165.73 395.59,-2165.73 395.59,-2136.27 395.59,-2136.27 395.59,-2134.47 407.7,-2133 422.59,-2133 437.49,-2133 449.59,-2134.47 449.59,-2136.27 449.59,-2136.27 449.59,-2165.73 449.59,-2165.73"/>
<path fill="none" stroke="#e6e6fa" d="M449.59,-2165.73C449.59,-2163.92 437.49,-2162.45 422.59,-2162.45 407.7,-2162.45 395.59,-2163.92 395.59,-2165.73"/>
<text text-anchor="middle" x="422.59" y="-2145.95" font-family="Times New Roman,serif" font-size="14.00">Ch1_2</text>
</a>
</g>
</g>
<!-- Wg1&#45;&gt;Ch1_2 -->
<g id="edge12" class="edge">
<title>Wg1&#45;&gt;Ch1_2</title>
<path fill="none" stroke="black" stroke-dasharray="1,5" d="M263.15,-1871.86C263.93,-1919.5 272.67,-2050.95 342.61,-2124 353.55,-2135.43 369.53,-2142.02 384.25,-2145.82"/>
<polygon fill="black" stroke="black" points="383.17,-2149.16 393.68,-2147.89 384.67,-2142.33 383.17,-2149.16"/>
</g>
<!-- Ch1_3 -->
<g id="node14" class="node">
<title>Ch1_3</title>
<g id="a_node14"><a xlink:href="https://www.ipcc.ch/report/ar6/wg1/chapter/chapter-3/" xlink:title="Ch1_3">
<path fill="#e6e6fa" stroke="#e6e6fa" d="M449.59,-2111.73C449.59,-2113.53 437.49,-2115 422.59,-2115 407.7,-2115 395.59,-2113.53 395.59,-2111.73 395.59,-2111.73 395.59,-2082.27 395.59,-2082.27 395.59,-2080.47 407.7,-2079 422.59,-2079 437.49,-2079 449.59,-2080.47 449.59,-2082.27 449.59,-2082.27 449.59,-2111.73 449.59,-2111.73"/>
<path fill="none" stroke="#e6e6fa" d="M449.59,-2111.73C449.59,-2109.92 437.49,-2108.45 422.59,-2108.45 407.7,-2108.45 395.59,-2109.92 395.59,-2111.73"/>
<text text-anchor="middle" x="422.59" y="-2091.95" font-family="Times New Roman,serif" font-size="14.00">Ch1_3</text>
</a>
</g>
</g>
<!-- Wg1&#45;&gt;Ch1_3 -->
<g id="edge13" class="edge">
<title>Wg1&#45;&gt;Ch1_3</title>
<path fill="none" stroke="black" stroke-dasharray="1,5" d="M264.62,-1871.25C268.83,-1911.72 284.9,-2013.59 342.61,-2070 353.93,-2081.06 369.95,-2087.59 384.62,-2091.46"/>
<polygon fill="black" stroke="black" points="383.46,-2094.78 393.99,-2093.58 385.01,-2087.96 383.46,-2094.78"/>
</g>
<!-- Ch1_4 -->
<g id="node15" class="node">
<title>Ch1_4</title>
<g id="a_node15"><a xlink:href="https://www.ipcc.ch/report/ar6/wg1/chapter/chapter-4/" xlink:title="Ch1_4">
<path fill="#e6e6fa" stroke="#e6e6fa" d="M449.59,-2057.73C449.59,-2059.53 437.49,-2061 422.59,-2061 407.7,-2061 395.59,-2059.53 395.59,-2057.73 395.59,-2057.73 395.59,-2028.27 395.59,-2028.27 395.59,-2026.47 407.7,-2025 422.59,-2025 437.49,-2025 449.59,-2026.47 449.59,-2028.27 449.59,-2028.27 449.59,-2057.73 449.59,-2057.73"/>
<path fill="none" stroke="#e6e6fa" d="M449.59,-2057.73C449.59,-2055.92 437.49,-2054.45 422.59,-2054.45 407.7,-2054.45 395.59,-2055.92 395.59,-2057.73"/>
<text text-anchor="middle" x="422.59" y="-2037.95" font-family="Times New Roman,serif" font-size="14.00">Ch1_4</text>
</a>
</g>
</g>
<!-- Wg1&#45;&gt;Ch1_4 -->
<g id="edge14" class="edge">
<title>Wg1&#45;&gt;Ch1_4</title>
<path fill="none" stroke="black" stroke-dasharray="1,5" d="M266.79,-1870.33C274.71,-1902.76 296.79,-1975.62 342.61,-2016 354.2,-2026.2 369.81,-2032.59 384.1,-2036.57"/>
<polygon fill="black" stroke="black" points="383.16,-2039.94 393.71,-2038.91 384.82,-2033.14 383.16,-2039.94"/>
</g>
<!-- Ch1_5 -->
<g id="node16" class="node">
<title>Ch1_5</title>
<g id="a_node16"><a xlink:href="https://www.ipcc.ch/report/ar6/wg1/chapter/chapter-5/" xlink:title="Ch1_5">
<path fill="#e6e6fa" stroke="#e6e6fa" d="M449.59,-2003.73C449.59,-2005.53 437.49,-2007 422.59,-2007 407.7,-2007 395.59,-2005.53 395.59,-2003.73 395.59,-2003.73 395.59,-1974.27 395.59,-1974.27 395.59,-1972.47 407.7,-1971 422.59,-1971 437.49,-1971 449.59,-1972.47 449.59,-1974.27 449.59,-1974.27 449.59,-2003.73 449.59,-2003.73"/>
<path fill="none" stroke="#e6e6fa" d="M449.59,-2003.73C449.59,-2001.92 437.49,-2000.45 422.59,-2000.45 407.7,-2000.45 395.59,-2001.92 395.59,-2003.73"/>
<text text-anchor="middle" x="422.59" y="-1983.95" font-family="Times New Roman,serif" font-size="14.00">Ch1_5</text>
</a>
</g>
</g>
<!-- Wg1&#45;&gt;Ch1_5 -->
<g id="edge15" class="edge">
<title>Wg1&#45;&gt;Ch1_5</title>
<path fill="none" stroke="black" stroke-dasharray="1,5" d="M270.34,-1868.81C282.18,-1891.96 308.09,-1936.66 342.61,-1962 354.87,-1971 370.35,-1977.16 384.36,-1981.29"/>
<polygon fill="black" stroke="black" points="383.15,-1984.59 393.71,-1983.8 384.96,-1977.83 383.15,-1984.59"/>
</g>
<!-- Ch1_6 -->
<g id="node17" class="node">
<title>Ch1_6</title>
<g id="a_node17"><a xlink:href="https://www.ipcc.ch/report/ar6/wg1/chapter/chapter-6/" xlink:title="Ch1_6">
<path fill="#e6e6fa" stroke="#e6e6fa" d="M449.59,-1949.73C449.59,-1951.53 437.49,-1953 422.59,-1953 407.7,-1953 395.59,-1951.53 395.59,-1949.73 395.59,-1949.73 395.59,-1920.27 395.59,-1920.27 395.59,-1918.47 407.7,-1917 422.59,-1917 437.49,-1917 449.59,-1918.47 449.59,-1920.27 449.59,-1920.27 449.59,-1949.73 449.59,-1949.73"/>
<path fill="none" stroke="#e6e6fa" d="M449.59,-1949.73C449.59,-1947.92 437.49,-1946.45 422.59,-1946.45 407.7,-1946.45 395.59,-1947.92 395.59,-1949.73"/>
<text text-anchor="middle" x="422.59" y="-1929.95" font-family="Times New Roman,serif" font-size="14.00">Ch1_6</text>
</a>
</g>
</g>
<!-- Wg1&#45;&gt;Ch1_6 -->
<g id="edge16" class="edge">
<title>Wg1&#45;&gt;Ch1_6</title>
<path fill="none" stroke="black" stroke-dasharray="1,5" d="M277.7,-1865.61C293.08,-1877.51 318.46,-1895.93 342.61,-1908 355.78,-1914.58 370.93,-1920.19 384.42,-1924.56"/>
<polygon fill="black" stroke="black" points="383.24,-1927.86 393.83,-1927.49 385.32,-1921.17 383.24,-1927.86"/>
</g>
<!-- Ch1_7 -->
<g id="node18" class="node">
<title>Ch1_7</title>
<g id="a_node18"><a xlink:href="https://www.ipcc.ch/report/ar6/wg1/chapter/chapter-7/" xlink:title="Ch1_7">
<path fill="#e6e6fa" stroke="#e6e6fa" d="M449.59,-1895.73C449.59,-1897.53 437.49,-1899 422.59,-1899 407.7,-1899 395.59,-1897.53 395.59,-1895.73 395.59,-1895.73 395.59,-1866.27 395.59,-1866.27 395.59,-1864.47 407.7,-1863 422.59,-1863 437.49,-1863 449.59,-1864.47 449.59,-1866.27 449.59,-1866.27 449.59,-1895.73 449.59,-1895.73"/>
<path fill="none" stroke="#e6e6fa" d="M449.59,-1895.73C449.59,-1893.92 437.49,-1892.45 422.59,-1892.45 407.7,-1892.45 395.59,-1893.92 395.59,-1895.73"/>
<text text-anchor="middle" x="422.59" y="-1875.95" font-family="Times New Roman,serif" font-size="14.00">Ch1_7</text>
</a>
</g>
</g>
<!-- Wg1&#45;&gt;Ch1_7 -->
<g id="edge17" class="edge">
<title>Wg1&#45;&gt;Ch1_7</title>
<path fill="none" stroke="black" stroke-dasharray="1,5" d="M293.01,-1859.08C318.73,-1863.46 356.01,-1869.82 383.82,-1874.56"/>
<polygon fill="black" stroke="black" points="383.16,-1878 393.6,-1876.23 384.34,-1871.1 383.16,-1878"/>
</g>
<!-- Ch1_8 -->
<g id="node19" class="node">
<title>Ch1_8</title>
<g id="a_node19"><a xlink:href="https://www.ipcc.ch/report/ar6/wg1/chapter/chapter-8/" xlink:title="Ch1_8">
<path fill="#e6e6fa" stroke="#e6e6fa" d="M449.59,-1841.73C449.59,-1843.53 437.49,-1845 422.59,-1845 407.7,-1845 395.59,-1843.53 395.59,-1841.73 395.59,-1841.73 395.59,-1812.27 395.59,-1812.27 395.59,-1810.47 407.7,-1809 422.59,-1809 437.49,-1809 449.59,-1810.47 449.59,-1812.27 449.59,-1812.27 449.59,-1841.73 449.59,-1841.73"/>
<path fill="none" stroke="#e6e6fa" d="M449.59,-1841.73C449.59,-1839.92 437.49,-1838.45 422.59,-1838.45 407.7,-1838.45 395.59,-1839.92 395.59,-1841.73"/>
<text text-anchor="middle" x="422.59" y="-1821.95" font-family="Times New Roman,serif" font-size="14.00">Ch1_8</text>
</a>
</g>
</g>
<!-- Wg1&#45;&gt;Ch1_8 -->
<g id="edge18" class="edge">
<title>Wg1&#45;&gt;Ch1_8</title>
<path fill="none" stroke="black" stroke-dasharray="1,5" d="M293.01,-1848.92C318.73,-1844.54 356.01,-1838.18 383.82,-1833.44"/>
<polygon fill="black" stroke="black" points="384.34,-1836.9 393.6,-1831.77 383.16,-1830 384.34,-1836.9"/>
</g>
<!-- Ch1_9 -->
<g id="node20" class="node">
<title>Ch1_9</title>
<g id="a_node20"><a xlink:href="https://www.ipcc.ch/report/ar6/wg1/chapter/chapter-9/" xlink:title="Ch1_9">
<path fill="#e6e6fa" stroke="#e6e6fa" d="M449.59,-1787.73C449.59,-1789.53 437.49,-1791 422.59,-1791 407.7,-1791 395.59,-1789.53 395.59,-1787.73 395.59,-1787.73 395.59,-1758.27 395.59,-1758.27 395.59,-1756.47 407.7,-1755 422.59,-1755 437.49,-1755 449.59,-1756.47 449.59,-1758.27 449.59,-1758.27 449.59,-1787.73 449.59,-1787.73"/>
<path fill="none" stroke="#e6e6fa" d="M449.59,-1787.73C449.59,-1785.92 437.49,-1784.45 422.59,-1784.45 407.7,-1784.45 395.59,-1785.92 395.59,-1787.73"/>
<text text-anchor="middle" x="422.59" y="-1767.95" font-family="Times New Roman,serif" font-size="14.00">Ch1_9</text>
</a>
</g>
</g>
<!-- Wg1&#45;&gt;Ch1_9 -->
<g id="edge19" class="edge">
<title>Wg1&#45;&gt;Ch1_9</title>
<path fill="none" stroke="black" stroke-dasharray="1,5" d="M277.7,-1842.39C293.08,-1830.49 318.46,-1812.07 342.61,-1800 355.78,-1793.42 370.93,-1787.81 384.42,-1783.44"/>
<polygon fill="black" stroke="black" points="385.32,-1786.83 393.83,-1780.51 383.24,-1780.14 385.32,-1786.83"/>
</g>
<!-- Ch1_10 -->
<g id="node21" class="node">
<title>Ch1_10</title>
<g id="a_node21"><a xlink:href="https://www.ipcc.ch/report/ar6/wg1/chapter/chapter-10/" xlink:title="Ch1_10">
<path fill="#e6e6fa" stroke="#e6e6fa" d="M451.97,-1733.73C451.97,-1735.53 438.8,-1737 422.59,-1737 406.39,-1737 393.22,-1735.53 393.22,-1733.73 393.22,-1733.73 393.22,-1704.27 393.22,-1704.27 393.22,-1702.47 406.39,-1701 422.59,-1701 438.8,-1701 451.97,-1702.47 451.97,-1704.27 451.97,-1704.27 451.97,-1733.73 451.97,-1733.73"/>
<path fill="none" stroke="#e6e6fa" d="M451.97,-1733.73C451.97,-1731.92 438.8,-1730.45 422.59,-1730.45 406.39,-1730.45 393.22,-1731.92 393.22,-1733.73"/>
<text text-anchor="middle" x="422.59" y="-1713.95" font-family="Times New Roman,serif" font-size="14.00">Ch1_10</text>
</a>
</g>
</g>
<!-- Wg1&#45;&gt;Ch1_10 -->
<g id="edge20" class="edge">
<title>Wg1&#45;&gt;Ch1_10</title>
<path fill="none" stroke="black" stroke-dasharray="1,5" d="M270.34,-1839.19C282.18,-1816.04 308.09,-1771.34 342.61,-1746 354.2,-1737.49 368.67,-1731.52 382.05,-1727.4"/>
<polygon fill="black" stroke="black" points="382.79,-1730.83 391.49,-1724.77 380.91,-1724.09 382.79,-1730.83"/>
</g>
<!-- Ch1_11 -->
<g id="node22" class="node">
<title>Ch1_11</title>
<g id="a_node22"><a xlink:href="https://www.ipcc.ch/report/ar6/wg1/chapter/chapter-11/" xlink:title="Ch1_11">
<path fill="#e6e6fa" stroke="#e6e6fa" d="M451.97,-1679.73C451.97,-1681.53 438.8,-1683 422.59,-1683 406.39,-1683 393.22,-1681.53 393.22,-1679.73 393.22,-1679.73 393.22,-1650.27 393.22,-1650.27 393.22,-1648.47 406.39,-1647 422.59,-1647 438.8,-1647 451.97,-1648.47 451.97,-1650.27 451.97,-1650.27 451.97,-1679.73 451.97,-1679.73"/>
<path fill="none" stroke="#e6e6fa" d="M451.97,-1679.73C451.97,-1677.92 438.8,-1676.45 422.59,-1676.45 406.39,-1676.45 393.22,-1677.92 393.22,-1679.73"/>
<text text-anchor="middle" x="422.59" y="-1659.95" font-family="Times New Roman,serif" font-size="14.00">Ch1_11</text>
</a>
</g>
</g>
<!-- Wg1&#45;&gt;Ch1_11 -->
<g id="edge21" class="edge">
<title>Wg1&#45;&gt;Ch1_11</title>
<path fill="none" stroke="black" stroke-dasharray="1,5" d="M266.79,-1837.67C274.71,-1805.24 296.79,-1732.38 342.61,-1692 353.57,-1682.35 368.14,-1676.11 381.78,-1672.09"/>
<polygon fill="black" stroke="black" points="382.65,-1675.48 391.46,-1669.6 380.9,-1668.71 382.65,-1675.48"/>
</g>
<!-- Ch1_12 -->
<g id="node23" class="node">
<title>Ch1_12</title>
<g id="a_node23"><a xlink:href="https://www.ipcc.ch/report/ar6/wg1/chapter/chapter-12/" xlink:title="Ch1_12">
<path fill="#e6e6fa" stroke="#e6e6fa" d="M451.97,-1625.73C451.97,-1627.53 438.8,-1629 422.59,-1629 406.39,-1629 393.22,-1627.53 393.22,-1625.73 393.22,-1625.73 393.22,-1596.27 393.22,-1596.27 393.22,-1594.47 406.39,-1593 422.59,-1593 438.8,-1593 451.97,-1594.47 451.97,-1596.27 451.97,-1596.27 451.97,-1625.73 451.97,-1625.73"/>
<path fill="none" stroke="#e6e6fa" d="M451.97,-1625.73C451.97,-1623.92 438.8,-1622.45 422.59,-1622.45 406.39,-1622.45 393.22,-1623.92 393.22,-1625.73"/>
<text text-anchor="middle" x="422.59" y="-1605.95" font-family="Times New Roman,serif" font-size="14.00">Ch1_12</text>
</a>
</g>
</g>
<!-- Wg1&#45;&gt;Ch1_12 -->
<g id="edge22" class="edge">
<title>Wg1&#45;&gt;Ch1_12</title>
<path fill="none" stroke="black" stroke-dasharray="1,5" d="M264.62,-1836.75C268.83,-1796.28 284.9,-1694.41 342.61,-1638 353.24,-1627.61 368.04,-1621.21 381.95,-1617.27"/>
<polygon fill="black" stroke="black" points="382.47,-1620.75 391.35,-1614.97 380.8,-1613.95 382.47,-1620.75"/>
</g>
<!-- Atlas -->
<g id="node24" class="node">
<title>Atlas</title>
<g id="a_node24"><a xlink:href="https://www.ipcc.ch/report/ar6/wg1/chapter/atlas/" xlink:title="Atlas">
<path fill="#e6e6fa" stroke="#e6e6fa" d="M449.59,-1571.73C449.59,-1573.53 437.49,-1575 422.59,-1575 407.7,-1575 395.59,-1573.53 395.59,-1571.73 395.59,-1571.73 395.59,-1542.27 395.59,-1542.27 395.59,-1540.47 407.7,-1539 422.59,-1539 437.49,-1539 449.59,-1540.47 449.59,-1542.27 449.59,-1542.27 449.59,-1571.73 449.59,-1571.73"/>
<path fill="none" stroke="#e6e6fa" d="M449.59,-1571.73C449.59,-1569.92 437.49,-1568.45 422.59,-1568.45 407.7,-1568.45 395.59,-1569.92 395.59,-1571.73"/>
<text text-anchor="middle" x="422.59" y="-1551.95" font-family="Times New Roman,serif" font-size="14.00">Atlas</text>
</a>
</g>
</g>
<!-- Wg1&#45;&gt;Atlas -->
<g id="edge23" class="edge">
<title>Wg1&#45;&gt;Atlas</title>
<path fill="none" stroke="black" stroke-dasharray="1,5" d="M263.15,-1836.14C263.93,-1788.5 272.67,-1657.05 342.61,-1584 353.55,-1572.57 369.53,-1565.98 384.25,-1562.18"/>
<polygon fill="black" stroke="black" points="384.67,-1565.67 393.68,-1560.11 383.17,-1558.84 384.67,-1565.67"/>
</g>
<!-- Chapters -->
<g id="node25" class="node">
<title>Chapters</title>
<polygon fill="#afeeee" stroke="#afeeee" points="473.02,-1503 447.81,-1521 397.38,-1521 372.16,-1503 397.38,-1485 447.81,-1485 473.02,-1503"/>
<text text-anchor="middle" x="422.59" y="-1497.95" font-family="Times New Roman,serif" font-size="14.00">Chapters</text>
</g>
<!-- Wg2&#45;&gt;Chapters -->
<g id="edge24" class="edge">
<title>Wg2&#45;&gt;Chapters</title>
<path fill="none" stroke="black" stroke-dasharray="1,5" d="M267.71,-952.06C289.52,-1030.15 384.64,-1370.72 413.36,-1473.52"/>
<polygon fill="black" stroke="black" points="409.98,-1474.43 416.04,-1483.12 416.72,-1472.55 409.98,-1474.43"/>
</g>
<!-- Cross_Chapters -->
<g id="node26" class="node">
<title>Cross_Chapters</title>
<polygon fill="#afeeee" stroke="#afeeee" points="502.57,-936 462.58,-954 382.6,-954 342.61,-936 382.6,-918 462.58,-918 502.57,-936"/>
<text text-anchor="middle" x="422.59" y="-930.95" font-family="Times New Roman,serif" font-size="14.00">Cross_Chapters</text>
</g>
<!-- Wg2&#45;&gt;Cross_Chapters -->
<g id="edge25" class="edge">
<title>Wg2&#45;&gt;Cross_Chapters</title>
<path fill="none" stroke="black" stroke-dasharray="1,5" d="M304.83,-936C312.82,-936 321.48,-936 330.34,-936"/>
<polygon fill="black" stroke="black" points="330.13,-939.5 340.13,-936 330.13,-932.5 330.13,-939.5"/>
</g>
<!-- Ch3_1 -->
<g id="node52" class="node">
<title>Ch3_1</title>
<g id="a_node52"><a xlink:href="https://www.ipcc.ch/report/ar6/wg3/chapter/chapter-1/" xlink:title="Ch3_1">
<path fill="#d8bfd8" stroke="#d8bfd8" d="M449.59,-896.73C449.59,-898.53 437.49,-900 422.59,-900 407.7,-900 395.59,-898.53 395.59,-896.73 395.59,-896.73 395.59,-867.27 395.59,-867.27 395.59,-865.47 407.7,-864 422.59,-864 437.49,-864 449.59,-865.47 449.59,-867.27 449.59,-867.27 449.59,-896.73 449.59,-896.73"/>
<path fill="none" stroke="#d8bfd8" d="M449.59,-896.73C449.59,-894.92 437.49,-893.45 422.59,-893.45 407.7,-893.45 395.59,-894.92 395.59,-896.73"/>
<text text-anchor="middle" x="422.59" y="-876.95" font-family="Times New Roman,serif" font-size="14.00">Ch3_1</text>
</a>
</g>
</g>
<!-- Wg3&#45;&gt;Ch3_1 -->
<g id="edge51" class="edge">
<title>Wg3&#45;&gt;Ch3_1</title>
<path fill="none" stroke="black" stroke-dasharray="1,5" d="M264.9,-521.12C271.41,-584.42 297,-804.22 342.61,-855 353.26,-866.85 369.34,-873.51 384.21,-877.24"/>
<polygon fill="black" stroke="black" points="383.25,-880.61 393.76,-879.25 384.7,-873.76 383.25,-880.61"/>
</g>
<!-- Ch3_2 -->
<g id="node53" class="node">
<title>Ch3_2</title>
<g id="a_node53"><a xlink:href="https://www.ipcc.ch/report/ar6/wg3/chapter/chapter-2/" xlink:title="Ch3_2">
<path fill="#d8bfd8" stroke="#d8bfd8" d="M449.59,-842.73C449.59,-844.53 437.49,-846 422.59,-846 407.7,-846 395.59,-844.53 395.59,-842.73 395.59,-842.73 395.59,-813.27 395.59,-813.27 395.59,-811.47 407.7,-810 422.59,-810 437.49,-810 449.59,-811.47 449.59,-813.27 449.59,-813.27 449.59,-842.73 449.59,-842.73"/>
<path fill="none" stroke="#d8bfd8" d="M449.59,-842.73C449.59,-840.92 437.49,-839.45 422.59,-839.45 407.7,-839.45 395.59,-840.92 395.59,-842.73"/>
<text text-anchor="middle" x="422.59" y="-822.95" font-family="Times New Roman,serif" font-size="14.00">Ch3_2</text>
</a>
</g>
</g>
<!-- Wg3&#45;&gt;Ch3_2 -->
<g id="edge52" class="edge">
<title>Wg3&#45;&gt;Ch3_2</title>
<path fill="none" stroke="black" stroke-dasharray="1,5" d="M262.57,-522.11C261.74,-573.11 266.47,-719.48 342.61,-801 353.49,-812.65 369.6,-819.27 384.43,-823.03"/>
<polygon fill="black" stroke="black" points="383.43,-826.4 393.94,-825.08 384.9,-819.56 383.43,-826.4"/>
</g>
<!-- Ch3_3 -->
<g id="node54" class="node">
<title>Ch3_3</title>
<g id="a_node54"><a xlink:href="https://www.ipcc.ch/report/ar6/wg3/chapter/chapter-3/" xlink:title="Ch3_3">
<path fill="#d8bfd8" stroke="#d8bfd8" d="M449.59,-788.73C449.59,-790.53 437.49,-792 422.59,-792 407.7,-792 395.59,-790.53 395.59,-788.73 395.59,-788.73 395.59,-759.27 395.59,-759.27 395.59,-757.47 407.7,-756 422.59,-756 437.49,-756 449.59,-757.47 449.59,-759.27 449.59,-759.27 449.59,-788.73 449.59,-788.73"/>
<path fill="none" stroke="#d8bfd8" d="M449.59,-788.73C449.59,-786.92 437.49,-785.45 422.59,-785.45 407.7,-785.45 395.59,-786.92 395.59,-788.73"/>
<text text-anchor="middle" x="422.59" y="-768.95" font-family="Times New Roman,serif" font-size="14.00">Ch3_3</text>
</a>
</g>
</g>
<!-- Wg3&#45;&gt;Ch3_3 -->
<g id="edge53" class="edge">
<title>Wg3&#45;&gt;Ch3_3</title>
<path fill="none" stroke="black" stroke-dasharray="1,5" d="M263.83,-521.7C266.31,-565.94 278.87,-682.39 342.61,-747 353.72,-758.26 369.72,-764.83 384.42,-768.66"/>
<polygon fill="black" stroke="black" points="383.3,-771.99 393.82,-770.75 384.82,-765.16 383.3,-771.99"/>
</g>
<!-- Ch3_4 -->
<g id="node55" class="node">
<title>Ch3_4</title>
<g id="a_node55"><a xlink:href="https://www.ipcc.ch/report/ar6/wg3/chapter/chapter-4/" xlink:title="Ch3_4">
<path fill="#d8bfd8" stroke="#d8bfd8" d="M449.59,-734.73C449.59,-736.53 437.49,-738 422.59,-738 407.7,-738 395.59,-736.53 395.59,-734.73 395.59,-734.73 395.59,-705.27 395.59,-705.27 395.59,-703.47 407.7,-702 422.59,-702 437.49,-702 449.59,-703.47 449.59,-705.27 449.59,-705.27 449.59,-734.73 449.59,-734.73"/>
<path fill="none" stroke="#d8bfd8" d="M449.59,-734.73C449.59,-732.92 437.49,-731.45 422.59,-731.45 407.7,-731.45 395.59,-732.92 395.59,-734.73"/>
<text text-anchor="middle" x="422.59" y="-714.95" font-family="Times New Roman,serif" font-size="14.00">Ch3_4</text>
</a>
</g>
</g>
<!-- Wg3&#45;&gt;Ch3_4 -->
<g id="edge54" class="edge">
<title>Wg3&#45;&gt;Ch3_4</title>
<path fill="none" stroke="black" stroke-dasharray="1,5" d="M265.62,-521.02C271.69,-557.71 290.98,-644.78 342.61,-693 353.98,-703.61 369.69,-710.07 384.12,-714"/>
<polygon fill="black" stroke="black" points="383.29,-717.4 393.82,-716.28 384.89,-710.58 383.29,-717.4"/>
</g>
<!-- Ch3_5 -->
<g id="node56" class="node">
<title>Ch3_5</title>
<g id="a_node56"><a xlink:href="https://www.ipcc.ch/report/ar6/wg3/chapter/chapter-5/" xlink:title="Ch3_5">
<path fill="#d8bfd8" stroke="#d8bfd8" d="M449.59,-680.73C449.59,-682.53 437.49,-684 422.59,-684 407.7,-684 395.59,-682.53 395.59,-680.73 395.59,-680.73 395.59,-651.27 395.59,-651.27 395.59,-649.47 407.7,-648 422.59,-648 437.49,-648 449.59,-649.47 449.59,-651.27 449.59,-651.27 449.59,-680.73 449.59,-680.73"/>
<path fill="none" stroke="#d8bfd8" d="M449.59,-680.73C449.59,-678.92 437.49,-677.45 422.59,-677.45 407.7,-677.45 395.59,-678.92 395.59,-680.73"/>
<text text-anchor="middle" x="422.59" y="-660.95" font-family="Times New Roman,serif" font-size="14.00">Ch3_5</text>
</a>
</g>
</g>
<!-- Wg3&#45;&gt;Ch3_5 -->
<g id="edge55" class="edge">
<title>Wg3&#45;&gt;Ch3_5</title>
<path fill="none" stroke="black" stroke-dasharray="1,5" d="M268.35,-519.78C278.24,-547.8 302.58,-606.34 342.61,-639 354.49,-648.69 370.02,-654.98 384.18,-659.02"/>
<polygon fill="black" stroke="black" points="383.11,-662.36 393.66,-661.44 384.84,-655.58 383.11,-662.36"/>
</g>
<!-- Ch3_6 -->
<g id="node57" class="node">
<title>Ch3_6</title>
<g id="a_node57"><a xlink:href="https://www.ipcc.ch/report/ar6/wg3/chapter/chapter-6/" xlink:title="Ch3_6">
<path fill="#d8bfd8" stroke="#d8bfd8" d="M449.59,-626.73C449.59,-628.53 437.49,-630 422.59,-630 407.7,-630 395.59,-628.53 395.59,-626.73 395.59,-626.73 395.59,-597.27 395.59,-597.27 395.59,-595.47 407.7,-594 422.59,-594 437.49,-594 449.59,-595.47 449.59,-597.27 449.59,-597.27 449.59,-626.73 449.59,-626.73"/>
<path fill="none" stroke="#d8bfd8" d="M449.59,-626.73C449.59,-624.92 437.49,-623.45 422.59,-623.45 407.7,-623.45 395.59,-624.92 395.59,-626.73"/>
<text text-anchor="middle" x="422.59" y="-606.95" font-family="Times New Roman,serif" font-size="14.00">Ch3_6</text>
</a>
</g>
</g>
<!-- Wg3&#45;&gt;Ch3_6 -->
<g id="edge56" class="edge">
<title>Wg3&#45;&gt;Ch3_6</title>
<path fill="none" stroke="black" stroke-dasharray="1,5" d="M273.28,-517.68C287.07,-535.52 313.46,-566.63 342.61,-585 355.38,-593.05 370.83,-599.02 384.67,-603.27"/>
<polygon fill="black" stroke="black" points="383.31,-606.52 393.89,-605.9 385.23,-599.79 383.31,-606.52"/>
</g>
<!-- Ch3_7 -->
<g id="node58" class="node">
<title>Ch3_7</title>
<g id="a_node58"><a xlink:href="https://www.ipcc.ch/report/ar6/wg3/chapter/chapter-7/" xlink:title="Ch3_7">
<path fill="#d8bfd8" stroke="#d8bfd8" d="M449.59,-572.73C449.59,-574.53 437.49,-576 422.59,-576 407.7,-576 395.59,-574.53 395.59,-572.73 395.59,-572.73 395.59,-543.27 395.59,-543.27 395.59,-541.47 407.7,-540 422.59,-540 437.49,-540 449.59,-541.47 449.59,-543.27 449.59,-543.27 449.59,-572.73 449.59,-572.73"/>
<path fill="none" stroke="#d8bfd8" d="M449.59,-572.73C449.59,-570.92 437.49,-569.45 422.59,-569.45 407.7,-569.45 395.59,-570.92 395.59,-572.73"/>
<text text-anchor="middle" x="422.59" y="-552.95" font-family="Times New Roman,serif" font-size="14.00">Ch3_7</text>
</a>
</g>
</g>
<!-- Wg3&#45;&gt;Ch3_7 -->
<g id="edge57" class="edge">
<title>Wg3&#45;&gt;Ch3_7</title>
<path fill="none" stroke="black" stroke-dasharray="1,5" d="M286.59,-511.97C312.41,-520.77 354.35,-535.07 384.64,-545.4"/>
<polygon fill="black" stroke="black" points="383.2,-548.61 393.79,-548.52 385.45,-541.98 383.2,-548.61"/>
</g>
<!-- Ch3_8 -->
<g id="node59" class="node">
<title>Ch3_8</title>
<g id="a_node59"><a xlink:href="https://www.ipcc.ch/report/ar6/wg3/chapter/chapter-8/" xlink:title="Ch3_8">
<path fill="#d8bfd8" stroke="#d8bfd8" d="M449.59,-518.73C449.59,-520.53 437.49,-522 422.59,-522 407.7,-522 395.59,-520.53 395.59,-518.73 395.59,-518.73 395.59,-489.27 395.59,-489.27 395.59,-487.47 407.7,-486 422.59,-486 437.49,-486 449.59,-487.47 449.59,-489.27 449.59,-489.27 449.59,-518.73 449.59,-518.73"/>
<path fill="none" stroke="#d8bfd8" d="M449.59,-518.73C449.59,-516.92 437.49,-515.45 422.59,-515.45 407.7,-515.45 395.59,-516.92 395.59,-518.73"/>
<text text-anchor="middle" x="422.59" y="-498.95" font-family="Times New Roman,serif" font-size="14.00">Ch3_8</text>
</a>
</g>
</g>
<!-- Wg3&#45;&gt;Ch3_8 -->
<g id="edge58" class="edge">
<title>Wg3&#45;&gt;Ch3_8</title>
<path fill="none" stroke="black" stroke-dasharray="1,5" d="M304.83,-504C329.29,-504 359.98,-504 383.76,-504"/>
<polygon fill="black" stroke="black" points="383.64,-507.5 393.64,-504 383.64,-500.5 383.64,-507.5"/>
</g>
<!-- Ch3_9 -->
<g id="node60" class="node">
<title>Ch3_9</title>
<g id="a_node60"><a xlink:href="https://www.ipcc.ch/report/ar6/wg3/chapter/chapter-9/" xlink:title="Ch3_9">
<path fill="#d8bfd8" stroke="#d8bfd8" d="M449.59,-464.73C449.59,-466.53 437.49,-468 422.59,-468 407.7,-468 395.59,-466.53 395.59,-464.73 395.59,-464.73 395.59,-435.27 395.59,-435.27 395.59,-433.47 407.7,-432 422.59,-432 437.49,-432 449.59,-433.47 449.59,-435.27 449.59,-435.27 449.59,-464.73 449.59,-464.73"/>
<path fill="none" stroke="#d8bfd8" d="M449.59,-464.73C449.59,-462.92 437.49,-461.45 422.59,-461.45 407.7,-461.45 395.59,-462.92 395.59,-464.73"/>
<text text-anchor="middle" x="422.59" y="-444.95" font-family="Times New Roman,serif" font-size="14.00">Ch3_9</text>
</a>
</g>
</g>
<!-- Wg3&#45;&gt;Ch3_9 -->
<g id="edge59" class="edge">
<title>Wg3&#45;&gt;Ch3_9</title>
<path fill="none" stroke="black" stroke-dasharray="1,5" d="M286.59,-496.03C312.41,-487.23 354.35,-472.93 384.64,-462.6"/>
<polygon fill="black" stroke="black" points="385.45,-466.02 393.79,-459.48 383.2,-459.39 385.45,-466.02"/>
</g>
<!-- Ch3_10 -->
<g id="node61" class="node">
<title>Ch3_10</title>
<g id="a_node61"><a xlink:href="https://www.ipcc.ch/report/ar6/wg3/chapter/chapter-10/" xlink:title="Ch3_10">
<path fill="#d8bfd8" stroke="#d8bfd8" d="M451.97,-410.73C451.97,-412.53 438.8,-414 422.59,-414 406.39,-414 393.22,-412.53 393.22,-410.73 393.22,-410.73 393.22,-381.27 393.22,-381.27 393.22,-379.47 406.39,-378 422.59,-378 438.8,-378 451.97,-379.47 451.97,-381.27 451.97,-381.27 451.97,-410.73 451.97,-410.73"/>
<path fill="none" stroke="#d8bfd8" d="M451.97,-410.73C451.97,-408.92 438.8,-407.45 422.59,-407.45 406.39,-407.45 393.22,-408.92 393.22,-410.73"/>
<text text-anchor="middle" x="422.59" y="-390.95" font-family="Times New Roman,serif" font-size="14.00">Ch3_10</text>
</a>
</g>
</g>
<!-- Wg3&#45;&gt;Ch3_10 -->
<g id="edge60" class="edge">
<title>Wg3&#45;&gt;Ch3_10</title>
<path fill="none" stroke="black" stroke-dasharray="1,5" d="M282.19,-494.55C290.28,-489.95 299.48,-483.92 306.61,-477 327.33,-456.93 319.76,-440.6 342.61,-423 354.01,-414.23 368.43,-408.2 381.83,-404.11"/>
<polygon fill="black" stroke="black" points="382.58,-407.53 391.29,-401.51 380.72,-400.78 382.58,-407.53"/>
</g>
<!-- Ch3_11 -->
<g id="node62" class="node">
<title>Ch3_11</title>
<g id="a_node62"><a xlink:href="https://www.ipcc.ch/report/ar6/wg3/chapter/chapter-11/" xlink:title="Ch3_11">
<path fill="#d8bfd8" stroke="#d8bfd8" d="M451.97,-356.73C451.97,-358.53 438.8,-360 422.59,-360 406.39,-360 393.22,-358.53 393.22,-356.73 393.22,-356.73 393.22,-327.27 393.22,-327.27 393.22,-325.47 406.39,-324 422.59,-324 438.8,-324 451.97,-325.47 451.97,-327.27 451.97,-327.27 451.97,-356.73 451.97,-356.73"/>
<path fill="none" stroke="#d8bfd8" d="M451.97,-356.73C451.97,-354.92 438.8,-353.45 422.59,-353.45 406.39,-353.45 393.22,-354.92 393.22,-356.73"/>
<text text-anchor="middle" x="422.59" y="-336.95" font-family="Times New Roman,serif" font-size="14.00">Ch3_11</text>
</a>
</g>
</g>
<!-- Wg3&#45;&gt;Ch3_11 -->
<g id="edge61" class="edge">
<title>Wg3&#45;&gt;Ch3_11</title>
<path fill="none" stroke="black" stroke-dasharray="1,5" d="M283.56,-495.15C291.71,-490.73 300.57,-484.66 306.61,-477 337.95,-437.28 306.97,-404.91 342.61,-369 353.16,-358.37 368.07,-351.92 382.1,-348.01"/>
<polygon fill="black" stroke="black" points="382.67,-351.47 391.58,-345.74 381.04,-344.66 382.67,-351.47"/>
</g>
<!-- Ch3_12 -->
<g id="node63" class="node">
<title>Ch3_12</title>
<g id="a_node63"><a xlink:href="https://www.ipcc.ch/report/ar6/wg3/chapter/chapter-12/" xlink:title="Ch3_12">
<path fill="#d8bfd8" stroke="#d8bfd8" d="M451.97,-302.73C451.97,-304.53 438.8,-306 422.59,-306 406.39,-306 393.22,-304.53 393.22,-302.73 393.22,-302.73 393.22,-273.27 393.22,-273.27 393.22,-271.47 406.39,-270 422.59,-270 438.8,-270 451.97,-271.47 451.97,-273.27 451.97,-273.27 451.97,-302.73 451.97,-302.73"/>
<path fill="none" stroke="#d8bfd8" d="M451.97,-302.73C451.97,-300.92 438.8,-299.45 422.59,-299.45 406.39,-299.45 393.22,-300.92 393.22,-302.73"/>
<text text-anchor="middle" x="422.59" y="-282.95" font-family="Times New Roman,serif" font-size="14.00">Ch3_12</text>
</a>
</g>
</g>
<!-- Wg3&#45;&gt;Ch3_12 -->
<g id="edge62" class="edge">
<title>Wg3&#45;&gt;Ch3_12</title>
<path fill="none" stroke="black" stroke-dasharray="1,5" d="M284.41,-495.2C292.49,-490.85 301.07,-484.82 306.61,-477 349.25,-416.82 293.43,-369.96 342.61,-315 352.68,-303.75 367.63,-297.19 381.82,-293.36"/>
<polygon fill="black" stroke="black" points="382.48,-296.8 391.46,-291.17 380.93,-289.97 382.48,-296.8"/>
</g>
<!-- Ch3_13 -->
<g id="node64" class="node">
<title>Ch3_13</title>
<g id="a_node64"><a xlink:href="https://www.ipcc.ch/report/ar6/wg3/chapter/chapter-13/" xlink:title="Ch3_13">
<path fill="#d8bfd8" stroke="#d8bfd8" d="M451.97,-248.73C451.97,-250.53 438.8,-252 422.59,-252 406.39,-252 393.22,-250.53 393.22,-248.73 393.22,-248.73 393.22,-219.27 393.22,-219.27 393.22,-217.47 406.39,-216 422.59,-216 438.8,-216 451.97,-217.47 451.97,-219.27 451.97,-219.27 451.97,-248.73 451.97,-248.73"/>
<path fill="none" stroke="#d8bfd8" d="M451.97,-248.73C451.97,-246.92 438.8,-245.45 422.59,-245.45 406.39,-245.45 393.22,-246.92 393.22,-248.73"/>
<text text-anchor="middle" x="422.59" y="-228.95" font-family="Times New Roman,serif" font-size="14.00">Ch3_13</text>
</a>
</g>
</g>
<!-- Wg3&#45;&gt;Ch3_13 -->
<g id="edge63" class="edge">
<title>Wg3&#45;&gt;Ch3_13</title>
<path fill="none" stroke="black" stroke-dasharray="1,5" d="M284.62,-495.35C292.73,-491.01 301.28,-484.96 306.61,-477 360.73,-396.11 279.67,-335.23 342.61,-261 352.45,-249.4 367.49,-242.77 381.82,-238.99"/>
<polygon fill="black" stroke="black" points="382.55,-242.42 391.57,-236.85 381.05,-235.58 382.55,-242.42"/>
</g>
<!-- Ch3_14 -->
<g id="node65" class="node">
<title>Ch3_14</title>
<g id="a_node65"><a xlink:href="https://www.ipcc.ch/report/ar6/wg3/chapter/chapter-14/" xlink:title="Ch3_14">
<path fill="#d8bfd8" stroke="#d8bfd8" d="M451.97,-194.73C451.97,-196.53 438.8,-198 422.59,-198 406.39,-198 393.22,-196.53 393.22,-194.73 393.22,-194.73 393.22,-165.27 393.22,-165.27 393.22,-163.47 406.39,-162 422.59,-162 438.8,-162 451.97,-163.47 451.97,-165.27 451.97,-165.27 451.97,-194.73 451.97,-194.73"/>
<path fill="none" stroke="#d8bfd8" d="M451.97,-194.73C451.97,-192.92 438.8,-191.45 422.59,-191.45 406.39,-191.45 393.22,-192.92 393.22,-194.73"/>
<text text-anchor="middle" x="422.59" y="-174.95" font-family="Times New Roman,serif" font-size="14.00">Ch3_14</text>
</a>
</g>
</g>
<!-- Wg3&#45;&gt;Ch3_14 -->
<g id="edge64" class="edge">
<title>Wg3&#45;&gt;Ch3_14</title>
<path fill="none" stroke="black" stroke-dasharray="1,5" d="M284.75,-495.43C292.88,-491.11 301.42,-485.05 306.61,-477 372.29,-375.3 265.84,-300.6 342.61,-207 352.35,-195.13 367.57,-188.46 382.05,-184.72"/>
<polygon fill="black" stroke="black" points="382.36,-188.23 391.4,-182.71 380.89,-181.39 382.36,-188.23"/>
</g>
<!-- Ch3_15 -->
<g id="node66" class="node">
<title>Ch3_15</title>
<g id="a_node66"><a xlink:href="https://www.ipcc.ch/report/ar6/wg3/chapter/chapter-15/" xlink:title="Ch3_15">
<path fill="#d8bfd8" stroke="#d8bfd8" d="M451.97,-140.73C451.97,-142.53 438.8,-144 422.59,-144 406.39,-144 393.22,-142.53 393.22,-140.73 393.22,-140.73 393.22,-111.27 393.22,-111.27 393.22,-109.47 406.39,-108 422.59,-108 438.8,-108 451.97,-109.47 451.97,-111.27 451.97,-111.27 451.97,-140.73 451.97,-140.73"/>
<path fill="none" stroke="#d8bfd8" d="M451.97,-140.73C451.97,-138.92 438.8,-137.45 422.59,-137.45 406.39,-137.45 393.22,-138.92 393.22,-140.73"/>
<text text-anchor="middle" x="422.59" y="-120.95" font-family="Times New Roman,serif" font-size="14.00">Ch3_15</text>
</a>
</g>
</g>
<!-- Wg3&#45;&gt;Ch3_15 -->
<g id="edge65" class="edge">
<title>Wg3&#45;&gt;Ch3_15</title>
<path fill="none" stroke="black" stroke-dasharray="1,5" d="M284.84,-495.49C292.98,-491.18 301.5,-485.11 306.61,-477 383.87,-354.43 251.96,-266.02 342.61,-153 352.22,-141.02 367.41,-134.33 381.92,-130.61"/>
<polygon fill="black" stroke="black" points="382.23,-134.12 391.29,-128.61 380.78,-127.27 382.23,-134.12"/>
</g>
<!-- Ch3_16 -->
<g id="node67" class="node">
<title>Ch3_16</title>
<g id="a_node67"><a xlink:href="https://www.ipcc.ch/report/ar6/wg3/chapter/chapter-16/" xlink:title="Ch3_16">
<path fill="#d8bfd8" stroke="#d8bfd8" d="M451.97,-86.73C451.97,-88.53 438.8,-90 422.59,-90 406.39,-90 393.22,-88.53 393.22,-86.73 393.22,-86.73 393.22,-57.27 393.22,-57.27 393.22,-55.47 406.39,-54 422.59,-54 438.8,-54 451.97,-55.47 451.97,-57.27 451.97,-57.27 451.97,-86.73 451.97,-86.73"/>
<path fill="none" stroke="#d8bfd8" d="M451.97,-86.73C451.97,-84.92 438.8,-83.45 422.59,-83.45 406.39,-83.45 393.22,-84.92 393.22,-86.73"/>
<text text-anchor="middle" x="422.59" y="-66.95" font-family="Times New Roman,serif" font-size="14.00">Ch3_16</text>
</a>
</g>
</g>
<!-- Wg3&#45;&gt;Ch3_16 -->
<g id="edge66" class="edge">
<title>Wg3&#45;&gt;Ch3_16</title>
<path fill="none" stroke="black" stroke-dasharray="1,5" d="M284.9,-495.53C293.06,-491.22 301.57,-485.15 306.61,-477 351.05,-405.27 290.34,-165.23 342.61,-99 352.2,-86.85 367.53,-80.14 382.15,-76.45"/>
<polygon fill="black" stroke="black" points="382.52,-79.94 391.59,-74.48 381.09,-73.09 382.52,-79.94"/>
</g>
<!-- Ch3_17 -->
<g id="node68" class="node">
<title>Ch3_17</title>
<g id="a_node68"><a xlink:href="https://www.ipcc.ch/report/ar6/wg3/chapter/chapter-17/" xlink:title="Ch3_17">
<path fill="#d8bfd8" stroke="#d8bfd8" d="M451.97,-32.73C451.97,-34.53 438.8,-36 422.59,-36 406.39,-36 393.22,-34.53 393.22,-32.73 393.22,-32.73 393.22,-3.27 393.22,-3.27 393.22,-1.47 406.39,0 422.59,0 438.8,0 451.97,-1.47 451.97,-3.27 451.97,-3.27 451.97,-32.73 451.97,-32.73"/>
<path fill="none" stroke="#d8bfd8" d="M451.97,-32.73C451.97,-30.92 438.8,-29.45 422.59,-29.45 406.39,-29.45 393.22,-30.92 393.22,-32.73"/>
<text text-anchor="middle" x="422.59" y="-12.95" font-family="Times New Roman,serif" font-size="14.00">Ch3_17</text>
</a>
</g>
</g>
<!-- Wg3&#45;&gt;Ch3_17 -->
<g id="edge67" class="edge">
<title>Wg3&#45;&gt;Ch3_17</title>
<path fill="none" stroke="black" stroke-dasharray="1,5" d="M284.95,-495.56C293.11,-491.26 301.62,-485.18 306.61,-477 356.86,-394.81 283.38,-120.97 342.61,-45 352.13,-32.8 367.45,-26.08 382.07,-22.39"/>
<polygon fill="black" stroke="black" points="382.45,-25.88 391.53,-20.43 381.03,-19.03 382.45,-25.88"/>
</g>
<!-- Ch2_1 -->
<g id="node27" class="node">
<title>Ch2_1</title>
<g id="a_node27"><a xlink:href="https://www.ipcc.ch/report/ar6/wg2/chapter/chapter-1/" xlink:title="Ch2_1">
<path fill="#f5deb3" stroke="#f5deb3" d="M594.95,-2030.73C594.95,-2032.53 582.85,-2034 567.95,-2034 553.05,-2034 540.95,-2032.53 540.95,-2030.73 540.95,-2030.73 540.95,-2001.27 540.95,-2001.27 540.95,-1999.47 553.05,-1998 567.95,-1998 582.85,-1998 594.95,-1999.47 594.95,-2001.27 594.95,-2001.27 594.95,-2030.73 594.95,-2030.73"/>
<path fill="none" stroke="#f5deb3" d="M594.95,-2030.73C594.95,-2028.92 582.85,-2027.45 567.95,-2027.45 553.05,-2027.45 540.95,-2028.92 540.95,-2030.73"/>
<text text-anchor="middle" x="567.95" y="-2010.95" font-family="Times New Roman,serif" font-size="14.00">Ch2_1</text>
</a>
</g>
</g>
<!-- Chapters&#45;&gt;Ch2_1 -->
<g id="edge26" class="edge">
<title>Chapters&#45;&gt;Ch2_1</title>
<path fill="none" stroke="black" stroke-dasharray="1,5" d="M466.35,-1508.22C479.98,-1512.06 493.78,-1518.67 502.57,-1530 565.29,-1610.84 494.6,-1896.62 538.57,-1989 538.62,-1989.11 538.68,-1989.21 538.73,-1989.32"/>
<polygon fill="black" stroke="black" points="535.68,-1991.06 544.2,-1997.36 541.46,-1987.12 535.68,-1991.06"/>
</g>
<!-- Ch2_2 -->
<g id="node28" class="node">
<title>Ch2_2</title>
<g id="a_node28"><a xlink:href="https://www.ipcc.ch/report/ar6/wg2/chapter/chapter-2/" xlink:title="Ch2_2">
<path fill="#f5deb3" stroke="#f5deb3" d="M594.95,-1976.73C594.95,-1978.53 582.85,-1980 567.95,-1980 553.05,-1980 540.95,-1978.53 540.95,-1976.73 540.95,-1976.73 540.95,-1947.27 540.95,-1947.27 540.95,-1945.47 553.05,-1944 567.95,-1944 582.85,-1944 594.95,-1945.47 594.95,-1947.27 594.95,-1947.27 594.95,-1976.73 594.95,-1976.73"/>
<path fill="none" stroke="#f5deb3" d="M594.95,-1976.73C594.95,-1974.92 582.85,-1973.45 567.95,-1973.45 553.05,-1973.45 540.95,-1974.92 540.95,-1976.73"/>
<text text-anchor="middle" x="567.95" y="-1956.95" font-family="Times New Roman,serif" font-size="14.00">Ch2_2</text>
</a>
</g>
</g>
<!-- Chapters&#45;&gt;Ch2_2 -->
<g id="edge27" class="edge">
<title>Chapters&#45;&gt;Ch2_2</title>
<path fill="none" stroke="black" stroke-dasharray="1,5" d="M466.29,-1508.27C479.9,-1512.12 493.72,-1518.71 502.57,-1530 558.33,-1601.1 499.32,-1853.62 538.57,-1935 538.63,-1935.11 538.68,-1935.21 538.73,-1935.32"/>
<polygon fill="black" stroke="black" points="535.69,-1937.07 544.23,-1943.34 541.46,-1933.11 535.69,-1937.07"/>
</g>
<!-- Ch2_3 -->
<g id="node29" class="node">
<title>Ch2_3</title>
<g id="a_node29"><a xlink:href="https://www.ipcc.ch/report/ar6/wg2/chapter/chapter-3/" xlink:title="Ch2_3">
<path fill="#f5deb3" stroke="#f5deb3" d="M594.95,-1922.73C594.95,-1924.53 582.85,-1926 567.95,-1926 553.05,-1926 540.95,-1924.53 540.95,-1922.73 540.95,-1922.73 540.95,-1893.27 540.95,-1893.27 540.95,-1891.47 553.05,-1890 567.95,-1890 582.85,-1890 594.95,-1891.47 594.95,-1893.27 594.95,-1893.27 594.95,-1922.73 594.95,-1922.73"/>
<path fill="none" stroke="#f5deb3" d="M594.95,-1922.73C594.95,-1920.92 582.85,-1919.45 567.95,-1919.45 553.05,-1919.45 540.95,-1920.92 540.95,-1922.73"/>
<text text-anchor="middle" x="567.95" y="-1902.95" font-family="Times New Roman,serif" font-size="14.00">Ch2_3</text>
</a>
</g>
</g>
<!-- Chapters&#45;&gt;Ch2_3 -->
<g id="edge28" class="edge">
<title>Chapters&#45;&gt;Ch2_3</title>
<path fill="none" stroke="black" stroke-dasharray="1,5" d="M466.2,-1508.34C479.81,-1512.19 493.64,-1518.77 502.57,-1530 551.38,-1591.37 504.03,-1810.61 538.57,-1881 538.63,-1881.11 538.68,-1881.21 538.73,-1881.32"/>
<polygon fill="black" stroke="black" points="535.7,-1883.09 544.26,-1889.33 541.46,-1879.11 535.7,-1883.09"/>
</g>
<!-- Ch2_4 -->
<g id="node30" class="node">
<title>Ch2_4</title>
<g id="a_node30"><a xlink:href="https://www.ipcc.ch/report/ar6/wg2/chapter/chapter-4/" xlink:title="Ch2_4">
<path fill="#f5deb3" stroke="#f5deb3" d="M594.95,-1868.73C594.95,-1870.53 582.85,-1872 567.95,-1872 553.05,-1872 540.95,-1870.53 540.95,-1868.73 540.95,-1868.73 540.95,-1839.27 540.95,-1839.27 540.95,-1837.47 553.05,-1836 567.95,-1836 582.85,-1836 594.95,-1837.47 594.95,-1839.27 594.95,-1839.27 594.95,-1868.73 594.95,-1868.73"/>
<path fill="none" stroke="#f5deb3" d="M594.95,-1868.73C594.95,-1866.92 582.85,-1865.45 567.95,-1865.45 553.05,-1865.45 540.95,-1866.92 540.95,-1868.73"/>
<text text-anchor="middle" x="567.95" y="-1848.95" font-family="Times New Roman,serif" font-size="14.00">Ch2_4</text>
</a>
</g>
</g>
<!-- Chapters&#45;&gt;Ch2_4 -->
<g id="edge29" class="edge">
<title>Chapters&#45;&gt;Ch2_4</title>
<path fill="none" stroke="black" stroke-dasharray="1,5" d="M466.08,-1508.43C479.68,-1512.29 493.54,-1518.85 502.57,-1530 586.29,-1633.31 478.9,-1708.18 538.57,-1827 538.63,-1827.11 538.68,-1827.21 538.74,-1827.32"/>
<polygon fill="black" stroke="black" points="535.72,-1829.11 544.32,-1835.3 541.46,-1825.1 535.72,-1829.11"/>
</g>
<!-- Ch2_5 -->
<g id="node31" class="node">
<title>Ch2_5</title>
<g id="a_node31"><a xlink:href="https://www.ipcc.ch/report/ar6/wg2/chapter/chapter-5/" xlink:title="Ch2_5">
<path fill="#f5deb3" stroke="#f5deb3" d="M594.95,-1814.73C594.95,-1816.53 582.85,-1818 567.95,-1818 553.05,-1818 540.95,-1816.53 540.95,-1814.73 540.95,-1814.73 540.95,-1785.27 540.95,-1785.27 540.95,-1783.47 553.05,-1782 567.95,-1782 582.85,-1782 594.95,-1783.47 594.95,-1785.27 594.95,-1785.27 594.95,-1814.73 594.95,-1814.73"/>
<path fill="none" stroke="#f5deb3" d="M594.95,-1814.73C594.95,-1812.92 582.85,-1811.45 567.95,-1811.45 553.05,-1811.45 540.95,-1812.92 540.95,-1814.73"/>
<text text-anchor="middle" x="567.95" y="-1794.95" font-family="Times New Roman,serif" font-size="14.00">Ch2_5</text>
</a>
</g>
</g>
<!-- Chapters&#45;&gt;Ch2_5 -->
<g id="edge30" class="edge">
<title>Chapters&#45;&gt;Ch2_5</title>
<path fill="none" stroke="black" stroke-dasharray="1,5" d="M465.92,-1508.57C479.5,-1512.44 493.4,-1518.97 502.57,-1530 572.43,-1613.91 488.29,-1676.09 538.57,-1773 538.63,-1773.11 538.68,-1773.21 538.74,-1773.32"/>
<polygon fill="black" stroke="black" points="535.74,-1775.14 544.39,-1781.27 541.45,-1771.09 535.74,-1775.14"/>
</g>
<!-- Ch2_6 -->
<g id="node32" class="node">
<title>Ch2_6</title>
<g id="a_node32"><a xlink:href="https://www.ipcc.ch/report/ar6/wg2/chapter/chapter-6/" xlink:title="Ch2_6">
<path fill="#f5deb3" stroke="#f5deb3" d="M594.95,-1760.73C594.95,-1762.53 582.85,-1764 567.95,-1764 553.05,-1764 540.95,-1762.53 540.95,-1760.73 540.95,-1760.73 540.95,-1731.27 540.95,-1731.27 540.95,-1729.47 553.05,-1728 567.95,-1728 582.85,-1728 594.95,-1729.47 594.95,-1731.27 594.95,-1731.27 594.95,-1760.73 594.95,-1760.73"/>
<path fill="none" stroke="#f5deb3" d="M594.95,-1760.73C594.95,-1758.92 582.85,-1757.45 567.95,-1757.45 553.05,-1757.45 540.95,-1758.92 540.95,-1760.73"/>
<text text-anchor="middle" x="567.95" y="-1740.95" font-family="Times New Roman,serif" font-size="14.00">Ch2_6</text>
</a>
</g>
</g>
<!-- Chapters&#45;&gt;Ch2_6 -->
<g id="edge31" class="edge">
<title>Chapters&#45;&gt;Ch2_6</title>
<path fill="none" stroke="black" stroke-dasharray="1,5" d="M465.66,-1508.78C479.23,-1512.67 493.17,-1519.17 502.57,-1530 558.62,-1594.58 497.64,-1643.93 538.57,-1719 538.63,-1719.1 538.69,-1719.21 538.75,-1719.31"/>
<polygon fill="black" stroke="black" points="535.78,-1721.19 544.5,-1727.21 541.44,-1717.07 535.78,-1721.19"/>
</g>
<!-- Ch2_7 -->
<g id="node33" class="node">
<title>Ch2_7</title>
<g id="a_node33"><a xlink:href="https://www.ipcc.ch/report/ar6/wg2/chapter/chapter-7/" xlink:title="Ch2_7">
<path fill="#f5deb3" stroke="#f5deb3" d="M594.95,-1706.73C594.95,-1708.53 582.85,-1710 567.95,-1710 553.05,-1710 540.95,-1708.53 540.95,-1706.73 540.95,-1706.73 540.95,-1677.27 540.95,-1677.27 540.95,-1675.47 553.05,-1674 567.95,-1674 582.85,-1674 594.95,-1675.47 594.95,-1677.27 594.95,-1677.27 594.95,-1706.73 594.95,-1706.73"/>
<path fill="none" stroke="#f5deb3" d="M594.95,-1706.73C594.95,-1704.92 582.85,-1703.45 567.95,-1703.45 553.05,-1703.45 540.95,-1704.92 540.95,-1706.73"/>
<text text-anchor="middle" x="567.95" y="-1686.95" font-family="Times New Roman,serif" font-size="14.00">Ch2_7</text>
</a>
</g>
</g>
<!-- Chapters&#45;&gt;Ch2_7 -->
<g id="edge32" class="edge">
<title>Chapters&#45;&gt;Ch2_7</title>
<path fill="none" stroke="black" stroke-dasharray="1,5" d="M465.23,-1509.18C478.76,-1513.1 492.78,-1519.51 502.57,-1530 544.95,-1575.39 506.89,-1611.59 538.57,-1665 538.7,-1665.21 538.83,-1665.42 538.96,-1665.63"/>
<polygon fill="black" stroke="black" points="536.09,-1667.64 544.97,-1673.42 541.63,-1663.37 536.09,-1667.64"/>
</g>
<!-- Ch2_8 -->
<g id="node34" class="node">
<title>Ch2_8</title>
<g id="a_node34"><a xlink:href="https://www.ipcc.ch/report/ar6/wg2/chapter/chapter-8/" xlink:title="Ch2_8">
<path fill="#f5deb3" stroke="#f5deb3" d="M594.95,-1652.73C594.95,-1654.53 582.85,-1656 567.95,-1656 553.05,-1656 540.95,-1654.53 540.95,-1652.73 540.95,-1652.73 540.95,-1623.27 540.95,-1623.27 540.95,-1621.47 553.05,-1620 567.95,-1620 582.85,-1620 594.95,-1621.47 594.95,-1623.27 594.95,-1623.27 594.95,-1652.73 594.95,-1652.73"/>
<path fill="none" stroke="#f5deb3" d="M594.95,-1652.73C594.95,-1650.92 582.85,-1649.45 567.95,-1649.45 553.05,-1649.45 540.95,-1650.92 540.95,-1652.73"/>
<text text-anchor="middle" x="567.95" y="-1632.95" font-family="Times New Roman,serif" font-size="14.00">Ch2_8</text>
</a>
</g>
</g>
<!-- Chapters&#45;&gt;Ch2_8 -->
<g id="edge33" class="edge">
<title>Chapters&#45;&gt;Ch2_8</title>
<path fill="none" stroke="black" stroke-dasharray="1,5" d="M463.92,-1509.96C477.49,-1513.96 491.88,-1520.22 502.57,-1530 531.64,-1556.59 515.87,-1578.81 538.57,-1611 538.72,-1611.2 538.86,-1611.4 539,-1611.6"/>
<polygon fill="black" stroke="black" points="536.26,-1613.78 545.39,-1619.16 541.61,-1609.26 536.26,-1613.78"/>
</g>
<!-- Ch2_9 -->
<g id="node35" class="node">
<title>Ch2_9</title>
<g id="a_node35"><a xlink:href="https://www.ipcc.ch/report/ar6/wg2/chapter/chapter-9/" xlink:title="Ch2_9">
<path fill="#f5deb3" stroke="#f5deb3" d="M594.95,-1598.73C594.95,-1600.53 582.85,-1602 567.95,-1602 553.05,-1602 540.95,-1600.53 540.95,-1598.73 540.95,-1598.73 540.95,-1569.27 540.95,-1569.27 540.95,-1567.47 553.05,-1566 567.95,-1566 582.85,-1566 594.95,-1567.47 594.95,-1569.27 594.95,-1569.27 594.95,-1598.73 594.95,-1598.73"/>
<path fill="none" stroke="#f5deb3" d="M594.95,-1598.73C594.95,-1596.92 582.85,-1595.45 567.95,-1595.45 553.05,-1595.45 540.95,-1596.92 540.95,-1598.73"/>
<text text-anchor="middle" x="567.95" y="-1578.95" font-family="Times New Roman,serif" font-size="14.00">Ch2_9</text>
</a>
</g>
</g>
<!-- Chapters&#45;&gt;Ch2_9 -->
<g id="edge34" class="edge">
<title>Chapters&#45;&gt;Ch2_9</title>
<path fill="none" stroke="black" stroke-dasharray="1,5" d="M460.18,-1512.42C473.95,-1516.75 489.45,-1522.59 502.57,-1530 510.34,-1534.38 525.36,-1546.89 538.95,-1558.76"/>
<polygon fill="black" stroke="black" points="536.63,-1561.38 546.44,-1565.38 541.26,-1556.14 536.63,-1561.38"/>
</g>
<!-- Ch2_10 -->
<g id="node36" class="node">
<title>Ch2_10</title>
<g id="a_node36"><a xlink:href="https://www.ipcc.ch/report/ar6/wg2/chapter/chapter-10/" xlink:title="Ch2_10">
<path fill="#f5deb3" stroke="#f5deb3" d="M597.32,-1544.73C597.32,-1546.53 584.16,-1548 567.95,-1548 551.74,-1548 538.57,-1546.53 538.57,-1544.73 538.57,-1544.73 538.57,-1515.27 538.57,-1515.27 538.57,-1513.47 551.74,-1512 567.95,-1512 584.16,-1512 597.32,-1513.47 597.32,-1515.27 597.32,-1515.27 597.32,-1544.73 597.32,-1544.73"/>
<path fill="none" stroke="#f5deb3" d="M597.32,-1544.73C597.32,-1542.92 584.16,-1541.45 567.95,-1541.45 551.74,-1541.45 538.57,-1542.92 538.57,-1544.73"/>
<text text-anchor="middle" x="567.95" y="-1524.95" font-family="Times New Roman,serif" font-size="14.00">Ch2_10</text>
</a>
</g>
</g>
<!-- Chapters&#45;&gt;Ch2_10 -->
<g id="edge35" class="edge">
<title>Chapters&#45;&gt;Ch2_10</title>
<path fill="none" stroke="black" stroke-dasharray="1,5" d="M463.15,-1510.45C483.1,-1514.21 507.24,-1518.75 527.22,-1522.52"/>
<polygon fill="black" stroke="black" points="526.47,-1525.94 536.95,-1524.35 527.77,-1519.06 526.47,-1525.94"/>
</g>
<!-- Ch2_11 -->
<g id="node37" class="node">
<title>Ch2_11</title>
<g id="a_node37"><a xlink:href="https://www.ipcc.ch/report/ar6/wg2/chapter/chapter-11/" xlink:title="Ch2_11">
<path fill="#f5deb3" stroke="#f5deb3" d="M597.32,-1490.73C597.32,-1492.53 584.16,-1494 567.95,-1494 551.74,-1494 538.57,-1492.53 538.57,-1490.73 538.57,-1490.73 538.57,-1461.27 538.57,-1461.27 538.57,-1459.47 551.74,-1458 567.95,-1458 584.16,-1458 597.32,-1459.47 597.32,-1461.27 597.32,-1461.27 597.32,-1490.73 597.32,-1490.73"/>
<path fill="none" stroke="#f5deb3" d="M597.32,-1490.73C597.32,-1488.92 584.16,-1487.45 567.95,-1487.45 551.74,-1487.45 538.57,-1488.92 538.57,-1490.73"/>
<text text-anchor="middle" x="567.95" y="-1470.95" font-family="Times New Roman,serif" font-size="14.00">Ch2_11</text>
</a>
</g>
</g>
<!-- Chapters&#45;&gt;Ch2_11 -->
<g id="edge36" class="edge">
<title>Chapters&#45;&gt;Ch2_11</title>
<path fill="none" stroke="black" stroke-dasharray="1,5" d="M463.15,-1495.55C483.1,-1491.79 507.24,-1487.25 527.22,-1483.48"/>
<polygon fill="black" stroke="black" points="527.77,-1486.94 536.95,-1481.65 526.47,-1480.06 527.77,-1486.94"/>
</g>
<!-- Ch2_12 -->
<g id="node38" class="node">
<title>Ch2_12</title>
<g id="a_node38"><a xlink:href="https://www.ipcc.ch/report/ar6/wg2/chapter/chapter-12/" xlink:title="Ch2_12">
<path fill="#f5deb3" stroke="#f5deb3" d="M597.32,-1436.73C597.32,-1438.53 584.16,-1440 567.95,-1440 551.74,-1440 538.57,-1438.53 538.57,-1436.73 538.57,-1436.73 538.57,-1407.27 538.57,-1407.27 538.57,-1405.47 551.74,-1404 567.95,-1404 584.16,-1404 597.32,-1405.47 597.32,-1407.27 597.32,-1407.27 597.32,-1436.73 597.32,-1436.73"/>
<path fill="none" stroke="#f5deb3" d="M597.32,-1436.73C597.32,-1434.92 584.16,-1433.45 567.95,-1433.45 551.74,-1433.45 538.57,-1434.92 538.57,-1436.73"/>
<text text-anchor="middle" x="567.95" y="-1416.95" font-family="Times New Roman,serif" font-size="14.00">Ch2_12</text>
</a>
</g>
</g>
<!-- Chapters&#45;&gt;Ch2_12 -->
<g id="edge37" class="edge">
<title>Chapters&#45;&gt;Ch2_12</title>
<path fill="none" stroke="black" stroke-dasharray="1,5" d="M451.57,-1487.19C473.53,-1474.78 504.34,-1457.37 528.6,-1443.67"/>
<polygon fill="black" stroke="black" points="530.25,-1446.76 537.23,-1438.79 526.8,-1440.66 530.25,-1446.76"/>
</g>
<!-- Ch2_13 -->
<g id="node39" class="node">
<title>Ch2_13</title>
<g id="a_node39"><a xlink:href="https://www.ipcc.ch/report/ar6/wg2/chapter/chapter-13/" xlink:title="Ch2_13">
<path fill="#f5deb3" stroke="#f5deb3" d="M597.32,-1382.73C597.32,-1384.53 584.16,-1386 567.95,-1386 551.74,-1386 538.57,-1384.53 538.57,-1382.73 538.57,-1382.73 538.57,-1353.27 538.57,-1353.27 538.57,-1351.47 551.74,-1350 567.95,-1350 584.16,-1350 597.32,-1351.47 597.32,-1353.27 597.32,-1353.27 597.32,-1382.73 597.32,-1382.73"/>
<path fill="none" stroke="#f5deb3" d="M597.32,-1382.73C597.32,-1380.92 584.16,-1379.45 567.95,-1379.45 551.74,-1379.45 538.57,-1380.92 538.57,-1382.73"/>
<text text-anchor="middle" x="567.95" y="-1362.95" font-family="Times New Roman,serif" font-size="14.00">Ch2_13</text>
</a>
</g>
</g>
<!-- Chapters&#45;&gt;Ch2_13 -->
<g id="edge38" class="edge">
<title>Chapters&#45;&gt;Ch2_13</title>
<path fill="none" stroke="black" stroke-dasharray="1,5" d="M443.23,-1484.51C468.24,-1460.95 511.61,-1420.11 539.79,-1393.58"/>
<polygon fill="black" stroke="black" points="542.03,-1396.28 546.91,-1386.87 537.23,-1391.18 542.03,-1396.28"/>
</g>
<!-- Ch2_14 -->
<g id="node40" class="node">
<title>Ch2_14</title>
<g id="a_node40"><a xlink:href="https://www.ipcc.ch/report/ar6/wg2/chapter/chapter-14/" xlink:title="Ch2_14">
<path fill="#f5deb3" stroke="#f5deb3" d="M597.32,-1328.73C597.32,-1330.53 584.16,-1332 567.95,-1332 551.74,-1332 538.57,-1330.53 538.57,-1328.73 538.57,-1328.73 538.57,-1299.27 538.57,-1299.27 538.57,-1297.47 551.74,-1296 567.95,-1296 584.16,-1296 597.32,-1297.47 597.32,-1299.27 597.32,-1299.27 597.32,-1328.73 597.32,-1328.73"/>
<path fill="none" stroke="#f5deb3" d="M597.32,-1328.73C597.32,-1326.92 584.16,-1325.45 567.95,-1325.45 551.74,-1325.45 538.57,-1326.92 538.57,-1328.73"/>
<text text-anchor="middle" x="567.95" y="-1308.95" font-family="Times New Roman,serif" font-size="14.00">Ch2_14</text>
</a>
</g>
</g>
<!-- Chapters&#45;&gt;Ch2_14 -->
<g id="edge39" class="edge">
<title>Chapters&#45;&gt;Ch2_14</title>
<path fill="none" stroke="black" stroke-dasharray="1,5" d="M434.95,-1484.66C454.46,-1453.72 496.35,-1389.75 538.57,-1341 538.82,-1340.71 539.08,-1340.42 539.33,-1340.13"/>
<polygon fill="black" stroke="black" points="541.83,-1342.58 546.17,-1332.92 536.75,-1337.77 541.83,-1342.58"/>
</g>
<!-- Ch2_15 -->
<g id="node41" class="node">
<title>Ch2_15</title>
<g id="a_node41"><a xlink:href="https://www.ipcc.ch/report/ar6/wg2/chapter/chapter-15/" xlink:title="Ch2_15">
<path fill="#f5deb3" stroke="#f5deb3" d="M597.32,-1274.73C597.32,-1276.53 584.16,-1278 567.95,-1278 551.74,-1278 538.57,-1276.53 538.57,-1274.73 538.57,-1274.73 538.57,-1245.27 538.57,-1245.27 538.57,-1243.47 551.74,-1242 567.95,-1242 584.16,-1242 597.32,-1243.47 597.32,-1245.27 597.32,-1245.27 597.32,-1274.73 597.32,-1274.73"/>
<path fill="none" stroke="#f5deb3" d="M597.32,-1274.73C597.32,-1272.92 584.16,-1271.45 567.95,-1271.45 551.74,-1271.45 538.57,-1272.92 538.57,-1274.73"/>
<text text-anchor="middle" x="567.95" y="-1254.95" font-family="Times New Roman,serif" font-size="14.00">Ch2_15</text>
</a>
</g>
</g>
<!-- Chapters&#45;&gt;Ch2_15 -->
<g id="edge40" class="edge">
<title>Chapters&#45;&gt;Ch2_15</title>
<path fill="none" stroke="black" stroke-dasharray="1,5" d="M430.91,-1484.78C446.94,-1446.09 487.82,-1353.81 538.57,-1287 538.72,-1286.8 538.87,-1286.61 539.03,-1286.41"/>
<polygon fill="black" stroke="black" points="541.59,-1288.79 545.57,-1278.97 536.33,-1284.17 541.59,-1288.79"/>
</g>
<!-- Ch2_16 -->
<g id="node42" class="node">
<title>Ch2_16</title>
<g id="a_node42"><a xlink:href="https://www.ipcc.ch/report/ar6/wg2/chapter/chapter-16/" xlink:title="Ch2_16">
<path fill="#f5deb3" stroke="#f5deb3" d="M597.32,-1220.73C597.32,-1222.53 584.16,-1224 567.95,-1224 551.74,-1224 538.57,-1222.53 538.57,-1220.73 538.57,-1220.73 538.57,-1191.27 538.57,-1191.27 538.57,-1189.47 551.74,-1188 567.95,-1188 584.16,-1188 597.32,-1189.47 597.32,-1191.27 597.32,-1191.27 597.32,-1220.73 597.32,-1220.73"/>
<path fill="none" stroke="#f5deb3" d="M597.32,-1220.73C597.32,-1218.92 584.16,-1217.45 567.95,-1217.45 551.74,-1217.45 538.57,-1218.92 538.57,-1220.73"/>
<text text-anchor="middle" x="567.95" y="-1200.95" font-family="Times New Roman,serif" font-size="14.00">Ch2_16</text>
</a>
</g>
</g>
<!-- Chapters&#45;&gt;Ch2_16 -->
<g id="edge41" class="edge">
<title>Chapters&#45;&gt;Ch2_16</title>
<path fill="none" stroke="black" stroke-dasharray="1,5" d="M428.57,-1484.68C441.5,-1439.15 479.34,-1318.4 538.57,-1233 538.71,-1232.8 538.86,-1232.6 539,-1232.39"/>
<polygon fill="black" stroke="black" points="541.61,-1234.73 545.35,-1224.81 536.24,-1230.24 541.61,-1234.73"/>
</g>
<!-- Ch2_17 -->
<g id="node43" class="node">
<title>Ch2_17</title>
<g id="a_node43"><a xlink:href="https://www.ipcc.ch/report/ar6/wg2/chapter/chapter-17/" xlink:title="Ch2_17">
<path fill="#f5deb3" stroke="#f5deb3" d="M597.32,-1166.73C597.32,-1168.53 584.16,-1170 567.95,-1170 551.74,-1170 538.57,-1168.53 538.57,-1166.73 538.57,-1166.73 538.57,-1137.27 538.57,-1137.27 538.57,-1135.47 551.74,-1134 567.95,-1134 584.16,-1134 597.32,-1135.47 597.32,-1137.27 597.32,-1137.27 597.32,-1166.73 597.32,-1166.73"/>
<path fill="none" stroke="#f5deb3" d="M597.32,-1166.73C597.32,-1164.92 584.16,-1163.45 567.95,-1163.45 551.74,-1163.45 538.57,-1164.92 538.57,-1166.73"/>
<text text-anchor="middle" x="567.95" y="-1146.95" font-family="Times New Roman,serif" font-size="14.00">Ch2_17</text>
</a>
</g>
</g>
<!-- Chapters&#45;&gt;Ch2_17 -->
<g id="edge42" class="edge">
<title>Chapters&#45;&gt;Ch2_17</title>
<path fill="none" stroke="black" stroke-dasharray="1,5" d="M426.93,-1484.83C437,-1433.38 470.67,-1283.64 538.57,-1179 538.64,-1178.9 538.7,-1178.8 538.77,-1178.7"/>
<polygon fill="black" stroke="black" points="541.4,-1181.02 544.9,-1171.02 535.93,-1176.65 541.4,-1181.02"/>
</g>
<!-- Ch2_18 -->
<g id="node44" class="node">
<title>Ch2_18</title>
<g id="a_node44"><a xlink:href="https://www.ipcc.ch/report/ar6/wg2/chapter/chapter-18/" xlink:title="Ch2_18">
<path fill="#f5deb3" stroke="#f5deb3" d="M597.32,-1112.73C597.32,-1114.53 584.16,-1116 567.95,-1116 551.74,-1116 538.57,-1114.53 538.57,-1112.73 538.57,-1112.73 538.57,-1083.27 538.57,-1083.27 538.57,-1081.47 551.74,-1080 567.95,-1080 584.16,-1080 597.32,-1081.47 597.32,-1083.27 597.32,-1083.27 597.32,-1112.73 597.32,-1112.73"/>
<path fill="none" stroke="#f5deb3" d="M597.32,-1112.73C597.32,-1110.92 584.16,-1109.45 567.95,-1109.45 551.74,-1109.45 538.57,-1110.92 538.57,-1112.73"/>
<text text-anchor="middle" x="567.95" y="-1092.95" font-family="Times New Roman,serif" font-size="14.00">Ch2_18</text>
</a>
</g>
</g>
<!-- Chapters&#45;&gt;Ch2_18 -->
<g id="edge43" class="edge">
<title>Chapters&#45;&gt;Ch2_18</title>
<path fill="none" stroke="black" stroke-dasharray="1,5" d="M425.8,-1484.71C433.34,-1427.61 462.04,-1249.06 538.57,-1125 538.64,-1124.9 538.7,-1124.8 538.76,-1124.7"/>
<polygon fill="black" stroke="black" points="541.41,-1126.99 544.79,-1116.95 535.88,-1122.7 541.41,-1126.99"/>
</g>
<!-- Ccp1 -->
<g id="node45" class="node">
<title>Ccp1</title>
<g id="a_node45"><a xlink:href="https://www.ipcc.ch/report/ar6/wg2/chapter/ccp1/" xlink:title="Ccp1">
<path fill="#9fe2bf" stroke="#9fe2bf" d="M594.95,-1058.73C594.95,-1060.53 582.85,-1062 567.95,-1062 553.05,-1062 540.95,-1060.53 540.95,-1058.73 540.95,-1058.73 540.95,-1029.27 540.95,-1029.27 540.95,-1027.47 553.05,-1026 567.95,-1026 582.85,-1026 594.95,-1027.47 594.95,-1029.27 594.95,-1029.27 594.95,-1058.73 594.95,-1058.73"/>
<path fill="none" stroke="#9fe2bf" d="M594.95,-1058.73C594.95,-1056.92 582.85,-1055.45 567.95,-1055.45 553.05,-1055.45 540.95,-1056.92 540.95,-1058.73"/>
<text text-anchor="middle" x="567.95" y="-1038.95" font-family="Times New Roman,serif" font-size="14.00">Ccp1</text>
</a>
</g>
</g>
<!-- Cross_Chapters&#45;&gt;Ccp1 -->
<g id="edge44" class="edge">
<title>Cross_Chapters&#45;&gt;Ccp1</title>
<path fill="none" stroke="black" stroke-dasharray="1,5" d="M447.91,-954.32C471.82,-972.33 508.44,-999.92 534.75,-1019.74"/>
<polygon fill="black" stroke="black" points="532.63,-1022.53 542.73,-1025.75 536.85,-1016.94 532.63,-1022.53"/>
</g>
<!-- Ccp2 -->
<g id="node46" class="node">
<title>Ccp2</title>
<g id="a_node46"><a xlink:href="https://www.ipcc.ch/report/ar6/wg2/chapter/ccp2/" xlink:title="Ccp2">
<path fill="#9fe2bf" stroke="#9fe2bf" d="M594.95,-1004.73C594.95,-1006.53 582.85,-1008 567.95,-1008 553.05,-1008 540.95,-1006.53 540.95,-1004.73 540.95,-1004.73 540.95,-975.27 540.95,-975.27 540.95,-973.47 553.05,-972 567.95,-972 582.85,-972 594.95,-973.47 594.95,-975.27 594.95,-975.27 594.95,-1004.73 594.95,-1004.73"/>
<path fill="none" stroke="#9fe2bf" d="M594.95,-1004.73C594.95,-1002.92 582.85,-1001.45 567.95,-1001.45 553.05,-1001.45 540.95,-1002.92 540.95,-1004.73"/>
<text text-anchor="middle" x="567.95" y="-984.95" font-family="Times New Roman,serif" font-size="14.00">Ccp2</text>
</a>
</g>
</g>
<!-- Cross_Chapters&#45;&gt;Ccp2 -->
<g id="edge45" class="edge">
<title>Cross_Chapters&#45;&gt;Ccp2</title>
<path fill="none" stroke="black" stroke-dasharray="1,5" d="M466.99,-952.35C487.11,-959.93 510.76,-968.84 530.01,-976.09"/>
<polygon fill="black" stroke="black" points="528.76,-979.36 539.36,-979.61 531.23,-972.81 528.76,-979.36"/>
</g>
<!-- Ccp3 -->
<g id="node47" class="node">
<title>Ccp3</title>
<g id="a_node47"><a xlink:href="https://www.ipcc.ch/report/ar6/wg2/chapter/ccp3/" xlink:title="Ccp3">
<path fill="#9fe2bf" stroke="#9fe2bf" d="M594.95,-950.73C594.95,-952.53 582.85,-954 567.95,-954 553.05,-954 540.95,-952.53 540.95,-950.73 540.95,-950.73 540.95,-921.27 540.95,-921.27 540.95,-919.47 553.05,-918 567.95,-918 582.85,-918 594.95,-919.47 594.95,-921.27 594.95,-921.27 594.95,-950.73 594.95,-950.73"/>
<path fill="none" stroke="#9fe2bf" d="M594.95,-950.73C594.95,-948.92 582.85,-947.45 567.95,-947.45 553.05,-947.45 540.95,-948.92 540.95,-950.73"/>
<text text-anchor="middle" x="567.95" y="-930.95" font-family="Times New Roman,serif" font-size="14.00">Ccp3</text>
</a>
</g>
</g>
<!-- Cross_Chapters&#45;&gt;Ccp3 -->
<g id="edge46" class="edge">
<title>Cross_Chapters&#45;&gt;Ccp3</title>
<path fill="none" stroke="black" stroke-dasharray="1,5" d="M503.65,-936C512.51,-936 521.2,-936 529.16,-936"/>
<polygon fill="black" stroke="black" points="529.1,-939.5 539.1,-936 529.1,-932.5 529.1,-939.5"/>
</g>
<!-- Ccp4 -->
<g id="node48" class="node">
<title>Ccp4</title>
<g id="a_node48"><a xlink:href="https://www.ipcc.ch/report/ar6/wg2/chapter/ccp4/" xlink:title="Ccp4">
<path fill="#9fe2bf" stroke="#9fe2bf" d="M594.95,-896.73C594.95,-898.53 582.85,-900 567.95,-900 553.05,-900 540.95,-898.53 540.95,-896.73 540.95,-896.73 540.95,-867.27 540.95,-867.27 540.95,-865.47 553.05,-864 567.95,-864 582.85,-864 594.95,-865.47 594.95,-867.27 594.95,-867.27 594.95,-896.73 594.95,-896.73"/>
<path fill="none" stroke="#9fe2bf" d="M594.95,-896.73C594.95,-894.92 582.85,-893.45 567.95,-893.45 553.05,-893.45 540.95,-894.92 540.95,-896.73"/>
<text text-anchor="middle" x="567.95" y="-876.95" font-family="Times New Roman,serif" font-size="14.00">Ccp4</text>
</a>
</g>
</g>
<!-- Cross_Chapters&#45;&gt;Ccp4 -->
<g id="edge47" class="edge">
<title>Cross_Chapters&#45;&gt;Ccp4</title>
<path fill="none" stroke="black" stroke-dasharray="1,5" d="M469.72,-920.82C480.55,-917.09 492.01,-913.02 502.57,-909 511.51,-905.6 521.06,-901.73 529.99,-898.01"/>
<polygon fill="black" stroke="black" points="531.24,-901.28 539.09,-894.16 528.52,-894.83 531.24,-901.28"/>
</g>
<!-- Ccp5 -->
<g id="node49" class="node">
<title>Ccp5</title>
<g id="a_node49"><a xlink:href="https://www.ipcc.ch/report/ar6/wg2/chapter/ccp5/" xlink:title="Ccp5">
<path fill="#9fe2bf" stroke="#9fe2bf" d="M594.95,-842.73C594.95,-844.53 582.85,-846 567.95,-846 553.05,-846 540.95,-844.53 540.95,-842.73 540.95,-842.73 540.95,-813.27 540.95,-813.27 540.95,-811.47 553.05,-810 567.95,-810 582.85,-810 594.95,-811.47 594.95,-813.27 594.95,-813.27 594.95,-842.73 594.95,-842.73"/>
<path fill="none" stroke="#9fe2bf" d="M594.95,-842.73C594.95,-840.92 582.85,-839.45 567.95,-839.45 553.05,-839.45 540.95,-840.92 540.95,-842.73"/>
<text text-anchor="middle" x="567.95" y="-822.95" font-family="Times New Roman,serif" font-size="14.00">Ccp5</text>
</a>
</g>
</g>
<!-- Cross_Chapters&#45;&gt;Ccp5 -->
<g id="edge48" class="edge">
<title>Cross_Chapters&#45;&gt;Ccp5</title>
<path fill="none" stroke="black" stroke-dasharray="1,5" d="M475.77,-923.59C485.26,-919.87 494.65,-915.1 502.57,-909 525.43,-891.4 520.01,-877.08 538.57,-855 538.82,-854.71 539.07,-854.41 539.32,-854.12"/>
<polygon fill="black" stroke="black" points="541.83,-856.56 546.1,-846.86 536.72,-851.78 541.83,-856.56"/>
</g>
<!-- Ccp6 -->
<g id="node50" class="node">
<title>Ccp6</title>
<g id="a_node50"><a xlink:href="https://www.ipcc.ch/report/ar6/wg2/chapter/ccp6/" xlink:title="Ccp6">
<path fill="#9fe2bf" stroke="#9fe2bf" d="M594.95,-788.73C594.95,-790.53 582.85,-792 567.95,-792 553.05,-792 540.95,-790.53 540.95,-788.73 540.95,-788.73 540.95,-759.27 540.95,-759.27 540.95,-757.47 553.05,-756 567.95,-756 582.85,-756 594.95,-757.47 594.95,-759.27 594.95,-759.27 594.95,-788.73 594.95,-788.73"/>
<path fill="none" stroke="#9fe2bf" d="M594.95,-788.73C594.95,-786.92 582.85,-785.45 567.95,-785.45 553.05,-785.45 540.95,-786.92 540.95,-788.73"/>
<text text-anchor="middle" x="567.95" y="-768.95" font-family="Times New Roman,serif" font-size="14.00">Ccp6</text>
</a>
</g>
</g>
<!-- Cross_Chapters&#45;&gt;Ccp6 -->
<g id="edge49" class="edge">
<title>Cross_Chapters&#45;&gt;Ccp6</title>
<path fill="none" stroke="black" stroke-dasharray="1,5" d="M478.4,-924.68C487.32,-920.87 495.84,-915.79 502.57,-909 538.21,-873.09 511.44,-843.71 538.57,-801 538.71,-800.79 538.84,-800.58 538.98,-800.38"/>
<polygon fill="black" stroke="black" points="541.62,-802.67 545.13,-792.68 536.15,-798.3 541.62,-802.67"/>
</g>
<!-- Ccp7 -->
<g id="node51" class="node">
<title>Ccp7</title>
<g id="a_node51"><a xlink:href="https://www.ipcc.ch/report/ar6/wg2/chapter/ccp7/" xlink:title="Ccp7">
<path fill="#9fe2bf" stroke="#9fe2bf" d="M594.95,-734.73C594.95,-736.53 582.85,-738 567.95,-738 553.05,-738 540.95,-736.53 540.95,-734.73 540.95,-734.73 540.95,-705.27 540.95,-705.27 540.95,-703.47 553.05,-702 567.95,-702 582.85,-702 594.95,-703.47 594.95,-705.27 594.95,-705.27 594.95,-734.73 594.95,-734.73"/>
<path fill="none" stroke="#9fe2bf" d="M594.95,-734.73C594.95,-732.92 582.85,-731.45 567.95,-731.45 553.05,-731.45 540.95,-732.92 540.95,-734.73"/>
<text text-anchor="middle" x="567.95" y="-714.95" font-family="Times New Roman,serif" font-size="14.00">Ccp7</text>
</a>
</g>
</g>
<!-- Cross_Chapters&#45;&gt;Ccp7 -->
<g id="edge50" class="edge">
<title>Cross_Chapters&#45;&gt;Ccp7</title>
<path fill="none" stroke="black" stroke-dasharray="1,5" d="M479.39,-925.06C488.11,-921.21 496.29,-916.02 502.57,-909 551.76,-854.04 502.28,-811.21 538.57,-747 538.7,-746.79 538.82,-746.57 538.94,-746.36"/>
<polygon fill="black" stroke="black" points="541.63,-748.61 544.86,-738.52 536.04,-744.4 541.63,-748.61"/>
</g>
</g>
</svg>
