<?xml version="1.0" encoding="UTF-8" standalone="no"?>
<!DOCTYPE svg PUBLIC "-//W3C//DTD SVG 1.1//EN"
 "http://www.w3.org/Graphics/SVG/1.1/DTD/svg11.dtd">
<!-- Generated by graphviz version 12.2.1 (20241206.2353)
 -->
<!-- Pages: 1 -->
<svg width="3146pt" height="332pt"
 viewBox="0.00 0.00 3146.38 332.00" xmlns="http://www.w3.org/2000/svg" xmlns:xlink="http://www.w3.org/1999/xlink">
<g id="graph0" class="graph" transform="scale(1 1) rotate(0) translate(4 328)">
<polygon fill="white" stroke="none" points="-4,4 -4,-328 3142.38,-328 3142.38,4 -4,4"/>
<!-- IPCC -->
<g id="node1" class="node">
<title>IPCC</title>
<g id="a_node1"><a xlink:href="https://www.ipcc.ch/report" xlink:title="IPCC">
<ellipse fill="#add8e6" stroke="#add8e6" cx="1857" cy="-306" rx="31.39" ry="18"/>
<text text-anchor="middle" x="1857" y="-300.95" font-family="Times New Roman,serif" font-size="14.00">IPCC</text>
</a>
</g>
</g>
<!-- AR1 -->
<g id="node2" class="node">
<title>AR1</title>
<polygon fill="#90ee90" stroke="#90ee90" points="1646.52,-252 1580.47,-252 1563.48,-216 1629.53,-216 1646.52,-252"/>
<text text-anchor="middle" x="1605" y="-228.95" font-family="Times New Roman,serif" font-size="14.00">AR1</text>
</g>
<!-- IPCC&#45;&gt;AR1 -->
<g id="edge1" class="edge">
<title>IPCC&#45;&gt;AR1</title>
<path fill="none" stroke="black" stroke-dasharray="1,5" d="M1828.39,-298.17C1791.08,-289.13 1723.59,-272.26 1656.36,-252.3"/>
<polygon fill="black" stroke="black" points="1657.61,-249.02 1647.03,-249.5 1655.61,-255.72 1657.61,-249.02"/>
</g>
<!-- AR2 -->
<g id="node3" class="node">
<title>AR2</title>
<polygon fill="#90ee90" stroke="#90ee90" points="1747.52,-252 1681.47,-252 1664.48,-216 1730.53,-216 1747.52,-252"/>
<text text-anchor="middle" x="1706" y="-228.95" font-family="Times New Roman,serif" font-size="14.00">AR2</text>
</g>
<!-- IPCC&#45;&gt;AR2 -->
<g id="edge2" class="edge">
<title>IPCC&#45;&gt;AR2</title>
<path fill="none" stroke="black" stroke-dasharray="1,5" d="M1833.07,-293.91C1811.86,-284.07 1780.23,-269.41 1753.84,-257.18"/>
<polygon fill="black" stroke="black" points="1755.56,-254.12 1745.02,-253.09 1752.62,-260.47 1755.56,-254.12"/>
</g>
<!-- AR3 -->
<g id="node4" class="node">
<title>AR3</title>
<polygon fill="#90ee90" stroke="#90ee90" points="1848.52,-252 1782.47,-252 1765.48,-216 1831.53,-216 1848.52,-252"/>
<text text-anchor="middle" x="1807" y="-228.95" font-family="Times New Roman,serif" font-size="14.00">AR3</text>
</g>
<!-- IPCC&#45;&gt;AR3 -->
<g id="edge3" class="edge">
<title>IPCC&#45;&gt;AR3</title>
<path fill="none" stroke="black" stroke-dasharray="1,5" d="M1845.65,-289.12C1839.84,-280.97 1832.6,-270.84 1825.96,-261.55"/>
<polygon fill="black" stroke="black" points="1828.89,-259.63 1820.23,-253.52 1823.2,-263.7 1828.89,-259.63"/>
</g>
<!-- AR4 -->
<g id="node5" class="node">
<title>AR4</title>
<polygon fill="#90ee90" stroke="#90ee90" points="1949.52,-252 1883.47,-252 1866.48,-216 1932.53,-216 1949.52,-252"/>
<text text-anchor="middle" x="1908" y="-228.95" font-family="Times New Roman,serif" font-size="14.00">AR4</text>
</g>
<!-- IPCC&#45;&gt;AR4 -->
<g id="edge4" class="edge">
<title>IPCC&#45;&gt;AR4</title>
<path fill="none" stroke="black" stroke-dasharray="1,5" d="M1868.57,-289.12C1874.51,-280.97 1881.89,-270.84 1888.66,-261.55"/>
<polygon fill="black" stroke="black" points="1891.45,-263.66 1894.51,-253.52 1885.79,-259.54 1891.45,-263.66"/>
</g>
<!-- AR5 -->
<g id="node6" class="node">
<title>AR5</title>
<polygon fill="#90ee90" stroke="#90ee90" points="2050.52,-252 1984.47,-252 1967.48,-216 2033.53,-216 2050.52,-252"/>
<text text-anchor="middle" x="2009" y="-228.95" font-family="Times New Roman,serif" font-size="14.00">AR5</text>
</g>
<!-- IPCC&#45;&gt;AR5 -->
<g id="edge5" class="edge">
<title>IPCC&#45;&gt;AR5</title>
<path fill="none" stroke="black" stroke-dasharray="1,5" d="M1881.08,-293.91C1905.43,-282.7 1943.39,-265.21 1971.65,-252.2"/>
<polygon fill="black" stroke="black" points="1972.96,-255.45 1980.58,-248.09 1970.03,-249.09 1972.96,-255.45"/>
</g>
<!-- AR6 -->
<g id="node7" class="node">
<title>AR6</title>
<polygon fill="#90ee90" stroke="#90ee90" points="2151.52,-252 2085.47,-252 2068.48,-216 2134.53,-216 2151.52,-252"/>
<text text-anchor="middle" x="2110" y="-228.95" font-family="Times New Roman,serif" font-size="14.00">AR6</text>
</g>
<!-- IPCC&#45;&gt;AR6 -->
<g id="edge6" class="edge">
<title>IPCC&#45;&gt;AR6</title>
<path fill="none" stroke="black" stroke-dasharray="1,5" d="M1885.76,-298.19C1925.26,-288.67 1998.42,-270.48 2060,-252 2063.56,-250.93 2067.24,-249.78 2070.92,-248.59"/>
<polygon fill="black" stroke="black" points="2071.99,-251.92 2080.38,-245.45 2069.79,-245.28 2071.99,-251.92"/>
</g>
<!-- Wg1 -->
<g id="node8" class="node">
<title>Wg1</title>
<g id="a_node8"><a xlink:href="https://www.ipcc.ch/report/ar6/wg1/" xlink:title="Wg1">
<polygon fill="#fff40e" stroke="#fff40e" points="495,-180 453.5,-162 495,-144 536.5,-162 495,-180"/>
<text text-anchor="middle" x="495" y="-156.95" font-family="Times New Roman,serif" font-size="14.00">Wg1</text>
</a>
</g>
</g>
<!-- AR6&#45;&gt;Wg1 -->
<g id="edge7" class="edge">
<title>AR6&#45;&gt;Wg1</title>
<path fill="none" stroke="black" stroke-dasharray="1,5" d="M2069.05,-218.01C2066.02,-217.23 2062.98,-216.54 2060,-216 1760.03,-161.17 783.98,-161.74 547.13,-162.72"/>
<polygon fill="black" stroke="black" points="547.27,-159.21 537.29,-162.76 547.3,-166.21 547.27,-159.21"/>
</g>
<!-- Wg2 -->
<g id="node9" class="node">
<title>Wg2</title>
<g id="a_node9"><a xlink:href="https://www.ipcc.ch/report/ar6/wg2/" xlink:title="Wg2">
<polygon fill="#fff40e" stroke="#fff40e" points="1795,-180 1753.5,-162 1795,-144 1836.5,-162 1795,-180"/>
<text text-anchor="middle" x="1795" y="-156.95" font-family="Times New Roman,serif" font-size="14.00">Wg2</text>
</a>
</g>
</g>
<!-- AR6&#45;&gt;Wg2 -->
<g id="edge8" class="edge">
<title>AR6&#45;&gt;Wg2</title>
<path fill="none" stroke="black" stroke-dasharray="1,5" d="M2069.2,-218.65C2066.1,-217.7 2063.01,-216.81 2060,-216 1981.65,-194.94 1888.24,-178.15 1835.86,-169.47"/>
<polygon fill="black" stroke="black" points="1836.63,-166.05 1826.2,-167.89 1835.5,-172.96 1836.63,-166.05"/>
</g>
<!-- Wg3 -->
<g id="node10" class="node">
<title>Wg3</title>
<g id="a_node10"><a xlink:href="https://www.ipcc.ch/report/ar6/wg3/" xlink:title="Wg3">
<polygon fill="#fff40e" stroke="#fff40e" points="2424,-180 2382.5,-162 2424,-144 2465.5,-162 2424,-180"/>
<text text-anchor="middle" x="2424" y="-156.95" font-family="Times New Roman,serif" font-size="14.00">Wg3</text>
</a>
</g>
</g>
<!-- AR6&#45;&gt;Wg3 -->
<g id="edge9" class="edge">
<title>AR6&#45;&gt;Wg3</title>
<path fill="none" stroke="black" stroke-dasharray="1,5" d="M2139.82,-226.35C2197.33,-213.53 2323.41,-185.43 2386.49,-171.36"/>
<polygon fill="black" stroke="black" points="2387.03,-174.83 2396.03,-169.23 2385.51,-167.99 2387.03,-174.83"/>
</g>
<!-- SynR -->
<g id="node11" class="node">
<title>SynR</title>
<g id="a_node11"><a xlink:href="https://www.ipcc.ch/report/ar6/syr/" xlink:title="SynR">
<polygon fill="#fff40e" stroke="#fff40e" points="2528,-180 2483.61,-162 2528,-144 2572.39,-162 2528,-180"/>
<text text-anchor="middle" x="2528" y="-156.95" font-family="Times New Roman,serif" font-size="14.00">SynR</text>
</a>
</g>
</g>
<!-- AR6&#45;&gt;SynR -->
<g id="edge10" class="edge">
<title>AR6&#45;&gt;SynR</title>
<path fill="none" stroke="black" stroke-dasharray="1,5" d="M2141.47,-230.13C2204.95,-223.98 2352.6,-207.76 2474,-180 2480.63,-178.48 2487.62,-176.55 2494.29,-174.52"/>
<polygon fill="black" stroke="black" points="2495.18,-177.91 2503.66,-171.56 2493.07,-171.24 2495.18,-177.91"/>
</g>
<!-- Ch1_1 -->
<g id="node12" class="node">
<title>Ch1_1</title>
<g id="a_node12"><a xlink:href="https://www.ipcc.ch/report/ar6/wg1/chapter/chapter-1/" xlink:title="Ch1_1">
<path fill="#e6e6fa" stroke="#e6e6fa" d="M54,-104.73C54,-106.53 41.9,-108 27,-108 12.1,-108 0,-106.53 0,-104.73 0,-104.73 0,-75.27 0,-75.27 0,-73.47 12.1,-72 27,-72 41.9,-72 54,-73.47 54,-75.27 54,-75.27 54,-104.73 54,-104.73"/>
<path fill="none" stroke="#e6e6fa" d="M54,-104.73C54,-102.92 41.9,-101.45 27,-101.45 12.1,-101.45 0,-102.92 0,-104.73"/>
<text text-anchor="middle" x="27" y="-84.95" font-family="Times New Roman,serif" font-size="14.00">Ch1_1</text>
</a>
</g>
</g>
<!-- Wg1&#45;&gt;Ch1_1 -->
<g id="edge11" class="edge">
<title>Wg1&#45;&gt;Ch1_1</title>
<path fill="none" stroke="black" stroke-dasharray="1,5" d="M456.33,-160.36C381.62,-158.25 212.52,-149.25 65.18,-108.08"/>
<polygon fill="black" stroke="black" points="66.2,-104.73 55.62,-105.34 64.27,-111.46 66.2,-104.73"/>
</g>
<!-- Ch1_2 -->
<g id="node13" class="node">
<title>Ch1_2</title>
<g id="a_node13"><a xlink:href="https://www.ipcc.ch/report/ar6/wg1/chapter/chapter-2/" xlink:title="Ch1_2">
<path fill="#e6e6fa" stroke="#e6e6fa" d="M126,-104.73C126,-106.53 113.9,-108 99,-108 84.1,-108 72,-106.53 72,-104.73 72,-104.73 72,-75.27 72,-75.27 72,-73.47 84.1,-72 99,-72 113.9,-72 126,-73.47 126,-75.27 126,-75.27 126,-104.73 126,-104.73"/>
<path fill="none" stroke="#e6e6fa" d="M126,-104.73C126,-102.92 113.9,-101.45 99,-101.45 84.1,-101.45 72,-102.92 72,-104.73"/>
<text text-anchor="middle" x="99" y="-84.95" font-family="Times New Roman,serif" font-size="14.00">Ch1_2</text>
</a>
</g>
</g>
<!-- Wg1&#45;&gt;Ch1_2 -->
<g id="edge12" class="edge">
<title>Wg1&#45;&gt;Ch1_2</title>
<path fill="none" stroke="black" stroke-dasharray="1,5" d="M458.72,-159.19C394.85,-155.26 258.35,-143.51 137.12,-108.12"/>
<polygon fill="black" stroke="black" points="138.22,-104.8 127.64,-105.29 136.21,-111.51 138.22,-104.8"/>
</g>
<!-- Ch1_3 -->
<g id="node14" class="node">
<title>Ch1_3</title>
<g id="a_node14"><a xlink:href="https://www.ipcc.ch/report/ar6/wg1/chapter/chapter-3/" xlink:title="Ch1_3">
<path fill="#e6e6fa" stroke="#e6e6fa" d="M198,-104.73C198,-106.53 185.9,-108 171,-108 156.1,-108 144,-106.53 144,-104.73 144,-104.73 144,-75.27 144,-75.27 144,-73.47 156.1,-72 171,-72 185.9,-72 198,-73.47 198,-75.27 198,-75.27 198,-104.73 198,-104.73"/>
<path fill="none" stroke="#e6e6fa" d="M198,-104.73C198,-102.92 185.9,-101.45 171,-101.45 156.1,-101.45 144,-102.92 144,-104.73"/>
<text text-anchor="middle" x="171" y="-84.95" font-family="Times New Roman,serif" font-size="14.00">Ch1_3</text>
</a>
</g>
</g>
<!-- Wg1&#45;&gt;Ch1_3 -->
<g id="edge13" class="edge">
<title>Wg1&#45;&gt;Ch1_3</title>
<path fill="none" stroke="black" stroke-dasharray="1,5" d="M462.37,-157.78C410.21,-152.05 304.97,-138.05 208.97,-108.18"/>
<polygon fill="black" stroke="black" points="210.25,-104.91 199.66,-105.21 208.13,-111.58 210.25,-104.91"/>
</g>
<!-- Ch1_4 -->
<g id="node15" class="node">
<title>Ch1_4</title>
<g id="a_node15"><a xlink:href="https://www.ipcc.ch/report/ar6/wg1/chapter/chapter-4/" xlink:title="Ch1_4">
<path fill="#e6e6fa" stroke="#e6e6fa" d="M270,-104.73C270,-106.53 257.9,-108 243,-108 228.1,-108 216,-106.53 216,-104.73 216,-104.73 216,-75.27 216,-75.27 216,-73.47 228.1,-72 243,-72 257.9,-72 270,-73.47 270,-75.27 270,-75.27 270,-104.73 270,-104.73"/>
<path fill="none" stroke="#e6e6fa" d="M270,-104.73C270,-102.92 257.9,-101.45 243,-101.45 228.1,-101.45 216,-102.92 216,-104.73"/>
<text text-anchor="middle" x="243" y="-84.95" font-family="Times New Roman,serif" font-size="14.00">Ch1_4</text>
</a>
</g>
</g>
<!-- Wg1&#45;&gt;Ch1_4 -->
<g id="edge14" class="edge">
<title>Wg1&#45;&gt;Ch1_4</title>
<path fill="none" stroke="black" stroke-dasharray="1,5" d="M466.51,-155.9C426.64,-148.37 351.94,-132.79 280.75,-108.26"/>
<polygon fill="black" stroke="black" points="282.3,-105.09 271.71,-105.08 279.98,-111.7 282.3,-105.09"/>
</g>
<!-- Ch1_5 -->
<g id="node16" class="node">
<title>Ch1_5</title>
<g id="a_node16"><a xlink:href="https://www.ipcc.ch/report/ar6/wg1/chapter/chapter-5/" xlink:title="Ch1_5">
<path fill="#e6e6fa" stroke="#e6e6fa" d="M342,-104.73C342,-106.53 329.9,-108 315,-108 300.1,-108 288,-106.53 288,-104.73 288,-104.73 288,-75.27 288,-75.27 288,-73.47 300.1,-72 315,-72 329.9,-72 342,-73.47 342,-75.27 342,-75.27 342,-104.73 342,-104.73"/>
<path fill="none" stroke="#e6e6fa" d="M342,-104.73C342,-102.92 329.9,-101.45 315,-101.45 300.1,-101.45 288,-102.92 288,-104.73"/>
<text text-anchor="middle" x="315" y="-84.95" font-family="Times New Roman,serif" font-size="14.00">Ch1_5</text>
</a>
</g>
</g>
<!-- Wg1&#45;&gt;Ch1_5 -->
<g id="edge15" class="edge">
<title>Wg1&#45;&gt;Ch1_5</title>
<path fill="none" stroke="black" stroke-dasharray="1,5" d="M472.31,-153.35C445.69,-144.22 400.06,-128.11 352.82,-108.6"/>
<polygon fill="black" stroke="black" points="354.38,-105.45 343.8,-104.83 351.68,-111.91 354.38,-105.45"/>
</g>
<!-- Ch1_6 -->
<g id="node17" class="node">
<title>Ch1_6</title>
<g id="a_node17"><a xlink:href="https://www.ipcc.ch/report/ar6/wg1/chapter/chapter-6/" xlink:title="Ch1_6">
<path fill="#e6e6fa" stroke="#e6e6fa" d="M414,-104.73C414,-106.53 401.9,-108 387,-108 372.1,-108 360,-106.53 360,-104.73 360,-104.73 360,-75.27 360,-75.27 360,-73.47 372.1,-72 387,-72 401.9,-72 414,-73.47 414,-75.27 414,-75.27 414,-104.73 414,-104.73"/>
<path fill="none" stroke="#e6e6fa" d="M414,-104.73C414,-102.92 401.9,-101.45 387,-101.45 372.1,-101.45 360,-102.92 360,-104.73"/>
<text text-anchor="middle" x="387" y="-84.95" font-family="Times New Roman,serif" font-size="14.00">Ch1_6</text>
</a>
</g>
</g>
<!-- Wg1&#45;&gt;Ch1_6 -->
<g id="edge16" class="edge">
<title>Wg1&#45;&gt;Ch1_6</title>
<path fill="none" stroke="black" stroke-dasharray="1,5" d="M479.06,-150.67C463.91,-140.85 440.6,-125.74 421.24,-113.19"/>
<polygon fill="black" stroke="black" points="423.38,-110.41 413.09,-107.91 419.57,-116.28 423.38,-110.41"/>
</g>
<!-- Ch1_7 -->
<g id="node18" class="node">
<title>Ch1_7</title>
<g id="a_node18"><a xlink:href="https://www.ipcc.ch/report/ar6/wg1/chapter/chapter-7/" xlink:title="Ch1_7">
<path fill="#e6e6fa" stroke="#e6e6fa" d="M486,-104.73C486,-106.53 473.9,-108 459,-108 444.1,-108 432,-106.53 432,-104.73 432,-104.73 432,-75.27 432,-75.27 432,-73.47 444.1,-72 459,-72 473.9,-72 486,-73.47 486,-75.27 486,-75.27 486,-104.73 486,-104.73"/>
<path fill="none" stroke="#e6e6fa" d="M486,-104.73C486,-102.92 473.9,-101.45 459,-101.45 444.1,-101.45 432,-102.92 432,-104.73"/>
<text text-anchor="middle" x="459" y="-84.95" font-family="Times New Roman,serif" font-size="14.00">Ch1_7</text>
</a>
</g>
</g>
<!-- Wg1&#45;&gt;Ch1_7 -->
<g id="edge17" class="edge">
<title>Wg1&#45;&gt;Ch1_7</title>
<path fill="none" stroke="black" stroke-dasharray="1,5" d="M487.71,-146.83C483.52,-138.68 478.11,-128.15 473.11,-118.44"/>
<polygon fill="black" stroke="black" points="476.31,-117.01 468.62,-109.71 470.09,-120.21 476.31,-117.01"/>
</g>
<!-- Ch1_8 -->
<g id="node19" class="node">
<title>Ch1_8</title>
<g id="a_node19"><a xlink:href="https://www.ipcc.ch/report/ar6/wg1/chapter/chapter-8/" xlink:title="Ch1_8">
<path fill="#e6e6fa" stroke="#e6e6fa" d="M558,-104.73C558,-106.53 545.9,-108 531,-108 516.1,-108 504,-106.53 504,-104.73 504,-104.73 504,-75.27 504,-75.27 504,-73.47 516.1,-72 531,-72 545.9,-72 558,-73.47 558,-75.27 558,-75.27 558,-104.73 558,-104.73"/>
<path fill="none" stroke="#e6e6fa" d="M558,-104.73C558,-102.92 545.9,-101.45 531,-101.45 516.1,-101.45 504,-102.92 504,-104.73"/>
<text text-anchor="middle" x="531" y="-84.95" font-family="Times New Roman,serif" font-size="14.00">Ch1_8</text>
</a>
</g>
</g>
<!-- Wg1&#45;&gt;Ch1_8 -->
<g id="edge18" class="edge">
<title>Wg1&#45;&gt;Ch1_8</title>
<path fill="none" stroke="black" stroke-dasharray="1,5" d="M502.29,-146.83C506.48,-138.68 511.89,-128.15 516.89,-118.44"/>
<polygon fill="black" stroke="black" points="519.91,-120.21 521.38,-109.71 513.69,-117.01 519.91,-120.21"/>
</g>
<!-- Ch1_9 -->
<g id="node20" class="node">
<title>Ch1_9</title>
<g id="a_node20"><a xlink:href="https://www.ipcc.ch/report/ar6/wg1/chapter/chapter-9/" xlink:title="Ch1_9">
<path fill="#e6e6fa" stroke="#e6e6fa" d="M630,-104.73C630,-106.53 617.9,-108 603,-108 588.1,-108 576,-106.53 576,-104.73 576,-104.73 576,-75.27 576,-75.27 576,-73.47 588.1,-72 603,-72 617.9,-72 630,-73.47 630,-75.27 630,-75.27 630,-104.73 630,-104.73"/>
<path fill="none" stroke="#e6e6fa" d="M630,-104.73C630,-102.92 617.9,-101.45 603,-101.45 588.1,-101.45 576,-102.92 576,-104.73"/>
<text text-anchor="middle" x="603" y="-84.95" font-family="Times New Roman,serif" font-size="14.00">Ch1_9</text>
</a>
</g>
</g>
<!-- Wg1&#45;&gt;Ch1_9 -->
<g id="edge19" class="edge">
<title>Wg1&#45;&gt;Ch1_9</title>
<path fill="none" stroke="black" stroke-dasharray="1,5" d="M510.94,-150.67C526.09,-140.85 549.4,-125.74 568.76,-113.19"/>
<polygon fill="black" stroke="black" points="570.43,-116.28 576.91,-107.91 566.62,-110.41 570.43,-116.28"/>
</g>
<!-- Ch1_10 -->
<g id="node21" class="node">
<title>Ch1_10</title>
<g id="a_node21"><a xlink:href="https://www.ipcc.ch/report/ar6/wg1/chapter/chapter-10/" xlink:title="Ch1_10">
<path fill="#e6e6fa" stroke="#e6e6fa" d="M706.38,-104.73C706.38,-106.53 693.21,-108 677,-108 660.79,-108 647.62,-106.53 647.62,-104.73 647.62,-104.73 647.62,-75.27 647.62,-75.27 647.62,-73.47 660.79,-72 677,-72 693.21,-72 706.38,-73.47 706.38,-75.27 706.38,-75.27 706.38,-104.73 706.38,-104.73"/>
<path fill="none" stroke="#e6e6fa" d="M706.38,-104.73C706.38,-102.92 693.21,-101.45 677,-101.45 660.79,-101.45 647.62,-102.92 647.62,-104.73"/>
<text text-anchor="middle" x="677" y="-84.95" font-family="Times New Roman,serif" font-size="14.00">Ch1_10</text>
</a>
</g>
</g>
<!-- Wg1&#45;&gt;Ch1_10 -->
<g id="edge20" class="edge">
<title>Wg1&#45;&gt;Ch1_10</title>
<path fill="none" stroke="black" stroke-dasharray="1,5" d="M517.13,-153.38C543.62,-144.15 589.48,-127.81 636.78,-108.79"/>
<polygon fill="black" stroke="black" points="637.86,-112.13 645.81,-105.13 635.23,-105.64 637.86,-112.13"/>
</g>
<!-- Ch1_11 -->
<g id="node22" class="node">
<title>Ch1_11</title>
<g id="a_node22"><a xlink:href="https://www.ipcc.ch/report/ar6/wg1/chapter/chapter-11/" xlink:title="Ch1_11">
<path fill="#e6e6fa" stroke="#e6e6fa" d="M783.38,-104.73C783.38,-106.53 770.21,-108 754,-108 737.79,-108 724.62,-106.53 724.62,-104.73 724.62,-104.73 724.62,-75.27 724.62,-75.27 724.62,-73.47 737.79,-72 754,-72 770.21,-72 783.38,-73.47 783.38,-75.27 783.38,-75.27 783.38,-104.73 783.38,-104.73"/>
<path fill="none" stroke="#e6e6fa" d="M783.38,-104.73C783.38,-102.92 770.21,-101.45 754,-101.45 737.79,-101.45 724.62,-102.92 724.62,-104.73"/>
<text text-anchor="middle" x="754" y="-84.95" font-family="Times New Roman,serif" font-size="14.00">Ch1_11</text>
</a>
</g>
</g>
<!-- Wg1&#45;&gt;Ch1_11 -->
<g id="edge21" class="edge">
<title>Wg1&#45;&gt;Ch1_11</title>
<path fill="none" stroke="black" stroke-dasharray="1,5" d="M523.23,-155.84C563.54,-148.13 639.98,-132.21 713.57,-108.15"/>
<polygon fill="black" stroke="black" points="714.58,-111.5 722.96,-105.02 712.37,-104.86 714.58,-111.5"/>
</g>
<!-- Ch1_12 -->
<g id="node23" class="node">
<title>Ch1_12</title>
<g id="a_node23"><a xlink:href="https://www.ipcc.ch/report/ar6/wg1/chapter/chapter-12/" xlink:title="Ch1_12">
<path fill="#e6e6fa" stroke="#e6e6fa" d="M860.38,-104.73C860.38,-106.53 847.21,-108 831,-108 814.79,-108 801.62,-106.53 801.62,-104.73 801.62,-104.73 801.62,-75.27 801.62,-75.27 801.62,-73.47 814.79,-72 831,-72 847.21,-72 860.38,-73.47 860.38,-75.27 860.38,-75.27 860.38,-104.73 860.38,-104.73"/>
<path fill="none" stroke="#e6e6fa" d="M860.38,-104.73C860.38,-102.92 847.21,-101.45 831,-101.45 814.79,-101.45 801.62,-102.92 801.62,-104.73"/>
<text text-anchor="middle" x="831" y="-84.95" font-family="Times New Roman,serif" font-size="14.00">Ch1_12</text>
</a>
</g>
</g>
<!-- Wg1&#45;&gt;Ch1_12 -->
<g id="edge22" class="edge">
<title>Wg1&#45;&gt;Ch1_12</title>
<path fill="none" stroke="black" stroke-dasharray="1,5" d="M527.67,-157.71C581.04,-151.79 690.22,-137.42 790.53,-108.01"/>
<polygon fill="black" stroke="black" points="791.44,-111.39 800.01,-105.16 789.43,-104.68 791.44,-111.39"/>
</g>
<!-- Atlas -->
<g id="node24" class="node">
<title>Atlas</title>
<g id="a_node24"><a xlink:href="https://www.ipcc.ch/report/ar6/wg1/chapter/atlas/" xlink:title="Atlas">
<path fill="#e6e6fa" stroke="#e6e6fa" d="M932,-104.73C932,-106.53 919.9,-108 905,-108 890.1,-108 878,-106.53 878,-104.73 878,-104.73 878,-75.27 878,-75.27 878,-73.47 890.1,-72 905,-72 919.9,-72 932,-73.47 932,-75.27 932,-75.27 932,-104.73 932,-104.73"/>
<path fill="none" stroke="#e6e6fa" d="M932,-104.73C932,-102.92 919.9,-101.45 905,-101.45 890.1,-101.45 878,-102.92 878,-104.73"/>
<text text-anchor="middle" x="905" y="-84.95" font-family="Times New Roman,serif" font-size="14.00">Atlas</text>
</a>
</g>
</g>
<!-- Wg1&#45;&gt;Atlas -->
<g id="edge23" class="edge">
<title>Wg1&#45;&gt;Atlas</title>
<path fill="none" stroke="black" stroke-dasharray="1,5" d="M531.62,-159.45C597.57,-155.89 740.46,-144.64 866.81,-108.13"/>
<polygon fill="black" stroke="black" points="867.77,-111.5 876.37,-105.3 865.79,-104.78 867.77,-111.5"/>
</g>
<!-- Chapters -->
<g id="node25" class="node">
<title>Chapters</title>
<polygon fill="#afeeee" stroke="#afeeee" points="1050.43,-90 1025.22,-108 974.78,-108 949.57,-90 974.78,-72 1025.22,-72 1050.43,-90"/>
<text text-anchor="middle" x="1000" y="-84.95" font-family="Times New Roman,serif" font-size="14.00">Chapters</text>
</g>
<!-- Wg2&#45;&gt;Chapters -->
<g id="edge24" class="edge">
<title>Wg2&#45;&gt;Chapters</title>
<path fill="none" stroke="black" stroke-dasharray="1,5" d="M1761.6,-158.06C1638.53,-147.22 1209.53,-109.45 1055.55,-95.89"/>
<polygon fill="black" stroke="black" points="1055.86,-92.41 1045.59,-95.01 1055.25,-99.38 1055.86,-92.41"/>
</g>
<!-- Cross_Chapters -->
<g id="node26" class="node">
<title>Cross_Chapters</title>
<polygon fill="#afeeee" stroke="#afeeee" points="1874.98,-90 1834.99,-108 1755.01,-108 1715.02,-90 1755.01,-72 1834.99,-72 1874.98,-90"/>
<text text-anchor="middle" x="1795" y="-84.95" font-family="Times New Roman,serif" font-size="14.00">Cross_Chapters</text>
</g>
<!-- Wg2&#45;&gt;Cross_Chapters -->
<g id="edge25" class="edge">
<title>Wg2&#45;&gt;Cross_Chapters</title>
<path fill="none" stroke="black" stroke-dasharray="1,5" d="M1795,-143.7C1795,-136.41 1795,-127.73 1795,-119.54"/>
<polygon fill="black" stroke="black" points="1798.5,-119.62 1795,-109.62 1791.5,-119.62 1798.5,-119.62"/>
</g>
<!-- Ch3_1 -->
<g id="node52" class="node">
<title>Ch3_1</title>
<g id="a_node52"><a xlink:href="https://www.ipcc.ch/report/ar6/wg3/chapter/chapter-1/" xlink:title="Ch3_1">
<path fill="#d8bfd8" stroke="#d8bfd8" d="M1947,-104.73C1947,-106.53 1934.9,-108 1920,-108 1905.1,-108 1893,-106.53 1893,-104.73 1893,-104.73 1893,-75.27 1893,-75.27 1893,-73.47 1905.1,-72 1920,-72 1934.9,-72 1947,-73.47 1947,-75.27 1947,-75.27 1947,-104.73 1947,-104.73"/>
<path fill="none" stroke="#d8bfd8" d="M1947,-104.73C1947,-102.92 1934.9,-101.45 1920,-101.45 1905.1,-101.45 1893,-102.92 1893,-104.73"/>
<text text-anchor="middle" x="1920" y="-84.95" font-family="Times New Roman,serif" font-size="14.00">Ch3_1</text>
</a>
</g>
</g>
<!-- Wg3&#45;&gt;Ch3_1 -->
<g id="edge51" class="edge">
<title>Wg3&#45;&gt;Ch3_1</title>
<path fill="none" stroke="black" stroke-dasharray="1,5" d="M2384.02,-160.85C2303.94,-159.62 2118.54,-152.12 1958.17,-108.05"/>
<polygon fill="black" stroke="black" points="1959.19,-104.7 1948.61,-105.36 1957.29,-111.44 1959.19,-104.7"/>
</g>
<!-- Ch3_2 -->
<g id="node53" class="node">
<title>Ch3_2</title>
<g id="a_node53"><a xlink:href="https://www.ipcc.ch/report/ar6/wg3/chapter/chapter-2/" xlink:title="Ch3_2">
<path fill="#d8bfd8" stroke="#d8bfd8" d="M2019,-104.73C2019,-106.53 2006.9,-108 1992,-108 1977.1,-108 1965,-106.53 1965,-104.73 1965,-104.73 1965,-75.27 1965,-75.27 1965,-73.47 1977.1,-72 1992,-72 2006.9,-72 2019,-73.47 2019,-75.27 2019,-75.27 2019,-104.73 2019,-104.73"/>
<path fill="none" stroke="#d8bfd8" d="M2019,-104.73C2019,-102.92 2006.9,-101.45 1992,-101.45 1977.1,-101.45 1965,-102.92 1965,-104.73"/>
<text text-anchor="middle" x="1992" y="-84.95" font-family="Times New Roman,serif" font-size="14.00">Ch3_2</text>
</a>
</g>
</g>
<!-- Wg3&#45;&gt;Ch3_2 -->
<g id="edge52" class="edge">
<title>Wg3&#45;&gt;Ch3_2</title>
<path fill="none" stroke="black" stroke-dasharray="1,5" d="M2386.35,-159.8C2316.91,-156.78 2164.22,-146.33 2030.03,-108.06"/>
<polygon fill="black" stroke="black" points="2031.21,-104.76 2020.63,-105.32 2029.25,-111.48 2031.21,-104.76"/>
</g>
<!-- Ch3_3 -->
<g id="node54" class="node">
<title>Ch3_3</title>
<g id="a_node54"><a xlink:href="https://www.ipcc.ch/report/ar6/wg3/chapter/chapter-3/" xlink:title="Ch3_3">
<path fill="#d8bfd8" stroke="#d8bfd8" d="M2091,-104.73C2091,-106.53 2078.9,-108 2064,-108 2049.1,-108 2037,-106.53 2037,-104.73 2037,-104.73 2037,-75.27 2037,-75.27 2037,-73.47 2049.1,-72 2064,-72 2078.9,-72 2091,-73.47 2091,-75.27 2091,-75.27 2091,-104.73 2091,-104.73"/>
<path fill="none" stroke="#d8bfd8" d="M2091,-104.73C2091,-102.92 2078.9,-101.45 2064,-101.45 2049.1,-101.45 2037,-102.92 2037,-104.73"/>
<text text-anchor="middle" x="2064" y="-84.95" font-family="Times New Roman,serif" font-size="14.00">Ch3_3</text>
</a>
</g>
</g>
<!-- Wg3&#45;&gt;Ch3_3 -->
<g id="edge53" class="edge">
<title>Wg3&#45;&gt;Ch3_3</title>
<path fill="none" stroke="black" stroke-dasharray="1,5" d="M2389.7,-158.55C2331.7,-153.73 2210.72,-140.79 2102.02,-108.14"/>
<polygon fill="black" stroke="black" points="2103.23,-104.85 2092.65,-105.25 2101.18,-111.54 2103.23,-104.85"/>
</g>
<!-- Ch3_4 -->
<g id="node55" class="node">
<title>Ch3_4</title>
<g id="a_node55"><a xlink:href="https://www.ipcc.ch/report/ar6/wg3/chapter/chapter-4/" xlink:title="Ch3_4">
<path fill="#d8bfd8" stroke="#d8bfd8" d="M2163,-104.73C2163,-106.53 2150.9,-108 2136,-108 2121.1,-108 2109,-106.53 2109,-104.73 2109,-104.73 2109,-75.27 2109,-75.27 2109,-73.47 2121.1,-72 2136,-72 2150.9,-72 2163,-73.47 2163,-75.27 2163,-75.27 2163,-104.73 2163,-104.73"/>
<path fill="none" stroke="#d8bfd8" d="M2163,-104.73C2163,-102.92 2150.9,-101.45 2136,-101.45 2121.1,-101.45 2109,-102.92 2109,-104.73"/>
<text text-anchor="middle" x="2136" y="-84.95" font-family="Times New Roman,serif" font-size="14.00">Ch3_4</text>
</a>
</g>
</g>
<!-- Wg3&#45;&gt;Ch3_4 -->
<g id="edge54" class="edge">
<title>Wg3&#45;&gt;Ch3_4</title>
<path fill="none" stroke="black" stroke-dasharray="1,5" d="M2393.13,-156.89C2347.02,-150.24 2257.48,-135.38 2174.16,-108.3"/>
<polygon fill="black" stroke="black" points="2175.27,-104.99 2164.68,-105.15 2173.06,-111.63 2175.27,-104.99"/>
</g>
<!-- Ch3_5 -->
<g id="node56" class="node">
<title>Ch3_5</title>
<g id="a_node56"><a xlink:href="https://www.ipcc.ch/report/ar6/wg3/chapter/chapter-5/" xlink:title="Ch3_5">
<path fill="#d8bfd8" stroke="#d8bfd8" d="M2235,-104.73C2235,-106.53 2222.9,-108 2208,-108 2193.1,-108 2181,-106.53 2181,-104.73 2181,-104.73 2181,-75.27 2181,-75.27 2181,-73.47 2193.1,-72 2208,-72 2222.9,-72 2235,-73.47 2235,-75.27 2235,-75.27 2235,-104.73 2235,-104.73"/>
<path fill="none" stroke="#d8bfd8" d="M2235,-104.73C2235,-102.92 2222.9,-101.45 2208,-101.45 2193.1,-101.45 2181,-102.92 2181,-104.73"/>
<text text-anchor="middle" x="2208" y="-84.95" font-family="Times New Roman,serif" font-size="14.00">Ch3_5</text>
</a>
</g>
</g>
<!-- Wg3&#45;&gt;Ch3_5 -->
<g id="edge55" class="edge">
<title>Wg3&#45;&gt;Ch3_5</title>
<path fill="none" stroke="black" stroke-dasharray="1,5" d="M2398.25,-154.76C2364.94,-146.4 2305.03,-130.41 2245.95,-108.46"/>
<polygon fill="black" stroke="black" points="2247.33,-105.24 2236.74,-104.98 2244.86,-111.79 2247.33,-105.24"/>
</g>
<!-- Ch3_6 -->
<g id="node57" class="node">
<title>Ch3_6</title>
<g id="a_node57"><a xlink:href="https://www.ipcc.ch/report/ar6/wg3/chapter/chapter-6/" xlink:title="Ch3_6">
<path fill="#d8bfd8" stroke="#d8bfd8" d="M2307,-104.73C2307,-106.53 2294.9,-108 2280,-108 2265.1,-108 2253,-106.53 2253,-104.73 2253,-104.73 2253,-75.27 2253,-75.27 2253,-73.47 2265.1,-72 2280,-72 2294.9,-72 2307,-73.47 2307,-75.27 2307,-75.27 2307,-104.73 2307,-104.73"/>
<path fill="none" stroke="#d8bfd8" d="M2307,-104.73C2307,-102.92 2294.9,-101.45 2280,-101.45 2265.1,-101.45 2253,-102.92 2253,-104.73"/>
<text text-anchor="middle" x="2280" y="-84.95" font-family="Times New Roman,serif" font-size="14.00">Ch3_6</text>
</a>
</g>
</g>
<!-- Wg3&#45;&gt;Ch3_6 -->
<g id="edge56" class="edge">
<title>Wg3&#45;&gt;Ch3_6</title>
<path fill="none" stroke="black" stroke-dasharray="1,5" d="M2405.17,-151.85C2383.07,-141.1 2345.86,-123.01 2317.74,-109.34"/>
<polygon fill="black" stroke="black" points="2319.34,-106.23 2308.81,-105.01 2316.28,-112.53 2319.34,-106.23"/>
</g>
<!-- Ch3_7 -->
<g id="node58" class="node">
<title>Ch3_7</title>
<g id="a_node58"><a xlink:href="https://www.ipcc.ch/report/ar6/wg3/chapter/chapter-7/" xlink:title="Ch3_7">
<path fill="#d8bfd8" stroke="#d8bfd8" d="M2379,-104.73C2379,-106.53 2366.9,-108 2352,-108 2337.1,-108 2325,-106.53 2325,-104.73 2325,-104.73 2325,-75.27 2325,-75.27 2325,-73.47 2337.1,-72 2352,-72 2366.9,-72 2379,-73.47 2379,-75.27 2379,-75.27 2379,-104.73 2379,-104.73"/>
<path fill="none" stroke="#d8bfd8" d="M2379,-104.73C2379,-102.92 2366.9,-101.45 2352,-101.45 2337.1,-101.45 2325,-102.92 2325,-104.73"/>
<text text-anchor="middle" x="2352" y="-84.95" font-family="Times New Roman,serif" font-size="14.00">Ch3_7</text>
</a>
</g>
</g>
<!-- Wg3&#45;&gt;Ch3_7 -->
<g id="edge57" class="edge">
<title>Wg3&#45;&gt;Ch3_7</title>
<path fill="none" stroke="black" stroke-dasharray="1,5" d="M2411.79,-149.13C2402.42,-140.02 2389.18,-127.14 2377.53,-115.82"/>
<polygon fill="black" stroke="black" points="2380.11,-113.44 2370.5,-108.98 2375.23,-118.46 2380.11,-113.44"/>
</g>
<!-- Ch3_8 -->
<g id="node59" class="node">
<title>Ch3_8</title>
<g id="a_node59"><a xlink:href="https://www.ipcc.ch/report/ar6/wg3/chapter/chapter-8/" xlink:title="Ch3_8">
<path fill="#d8bfd8" stroke="#d8bfd8" d="M2451,-104.73C2451,-106.53 2438.9,-108 2424,-108 2409.1,-108 2397,-106.53 2397,-104.73 2397,-104.73 2397,-75.27 2397,-75.27 2397,-73.47 2409.1,-72 2424,-72 2438.9,-72 2451,-73.47 2451,-75.27 2451,-75.27 2451,-104.73 2451,-104.73"/>
<path fill="none" stroke="#d8bfd8" d="M2451,-104.73C2451,-102.92 2438.9,-101.45 2424,-101.45 2409.1,-101.45 2397,-102.92 2397,-104.73"/>
<text text-anchor="middle" x="2424" y="-84.95" font-family="Times New Roman,serif" font-size="14.00">Ch3_8</text>
</a>
</g>
</g>
<!-- Wg3&#45;&gt;Ch3_8 -->
<g id="edge58" class="edge">
<title>Wg3&#45;&gt;Ch3_8</title>
<path fill="none" stroke="black" stroke-dasharray="1,5" d="M2424,-143.7C2424,-136.41 2424,-127.73 2424,-119.54"/>
<polygon fill="black" stroke="black" points="2427.5,-119.62 2424,-109.62 2420.5,-119.62 2427.5,-119.62"/>
</g>
<!-- Ch3_9 -->
<g id="node60" class="node">
<title>Ch3_9</title>
<g id="a_node60"><a xlink:href="https://www.ipcc.ch/report/ar6/wg3/chapter/chapter-9/" xlink:title="Ch3_9">
<path fill="#d8bfd8" stroke="#d8bfd8" d="M2523,-104.73C2523,-106.53 2510.9,-108 2496,-108 2481.1,-108 2469,-106.53 2469,-104.73 2469,-104.73 2469,-75.27 2469,-75.27 2469,-73.47 2481.1,-72 2496,-72 2510.9,-72 2523,-73.47 2523,-75.27 2523,-75.27 2523,-104.73 2523,-104.73"/>
<path fill="none" stroke="#d8bfd8" d="M2523,-104.73C2523,-102.92 2510.9,-101.45 2496,-101.45 2481.1,-101.45 2469,-102.92 2469,-104.73"/>
<text text-anchor="middle" x="2496" y="-84.95" font-family="Times New Roman,serif" font-size="14.00">Ch3_9</text>
</a>
</g>
</g>
<!-- Wg3&#45;&gt;Ch3_9 -->
<g id="edge59" class="edge">
<title>Wg3&#45;&gt;Ch3_9</title>
<path fill="none" stroke="black" stroke-dasharray="1,5" d="M2436.21,-149.13C2445.58,-140.02 2458.82,-127.14 2470.47,-115.82"/>
<polygon fill="black" stroke="black" points="2472.77,-118.46 2477.5,-108.98 2467.89,-113.44 2472.77,-118.46"/>
</g>
<!-- Ch3_10 -->
<g id="node61" class="node">
<title>Ch3_10</title>
<g id="a_node61"><a xlink:href="https://www.ipcc.ch/report/ar6/wg3/chapter/chapter-10/" xlink:title="Ch3_10">
<path fill="#d8bfd8" stroke="#d8bfd8" d="M2599.38,-104.73C2599.38,-106.53 2586.21,-108 2570,-108 2553.79,-108 2540.62,-106.53 2540.62,-104.73 2540.62,-104.73 2540.62,-75.27 2540.62,-75.27 2540.62,-73.47 2553.79,-72 2570,-72 2586.21,-72 2599.38,-73.47 2599.38,-75.27 2599.38,-75.27 2599.38,-104.73 2599.38,-104.73"/>
<path fill="none" stroke="#d8bfd8" d="M2599.38,-104.73C2599.38,-102.92 2586.21,-101.45 2570,-101.45 2553.79,-101.45 2540.62,-102.92 2540.62,-104.73"/>
<text text-anchor="middle" x="2570" y="-84.95" font-family="Times New Roman,serif" font-size="14.00">Ch3_10</text>
</a>
</g>
</g>
<!-- Wg3&#45;&gt;Ch3_10 -->
<g id="edge60" class="edge">
<title>Wg3&#45;&gt;Ch3_10</title>
<path fill="none" stroke="black" stroke-dasharray="1,5" d="M2443.09,-151.85C2465.02,-141.33 2501.62,-123.78 2529.9,-110.23"/>
<polygon fill="black" stroke="black" points="2531.41,-113.38 2538.91,-105.9 2528.38,-107.07 2531.41,-113.38"/>
</g>
<!-- Ch3_11 -->
<g id="node62" class="node">
<title>Ch3_11</title>
<g id="a_node62"><a xlink:href="https://www.ipcc.ch/report/ar6/wg3/chapter/chapter-11/" xlink:title="Ch3_11">
<path fill="#d8bfd8" stroke="#d8bfd8" d="M2676.38,-104.73C2676.38,-106.53 2663.21,-108 2647,-108 2630.79,-108 2617.62,-106.53 2617.62,-104.73 2617.62,-104.73 2617.62,-75.27 2617.62,-75.27 2617.62,-73.47 2630.79,-72 2647,-72 2663.21,-72 2676.38,-73.47 2676.38,-75.27 2676.38,-75.27 2676.38,-104.73 2676.38,-104.73"/>
<path fill="none" stroke="#d8bfd8" d="M2676.38,-104.73C2676.38,-102.92 2663.21,-101.45 2647,-101.45 2630.79,-101.45 2617.62,-102.92 2617.62,-104.73"/>
<text text-anchor="middle" x="2647" y="-84.95" font-family="Times New Roman,serif" font-size="14.00">Ch3_11</text>
</a>
</g>
</g>
<!-- Wg3&#45;&gt;Ch3_11 -->
<g id="edge61" class="edge">
<title>Wg3&#45;&gt;Ch3_11</title>
<path fill="none" stroke="black" stroke-dasharray="1,5" d="M2446.25,-153.27C2455.16,-150.26 2465.53,-146.86 2475,-144 2530.42,-127.28 2548.28,-128.13 2606.79,-108.14"/>
<polygon fill="black" stroke="black" points="2607.65,-111.55 2615.94,-104.95 2605.34,-104.94 2607.65,-111.55"/>
</g>
<!-- Ch3_12 -->
<g id="node63" class="node">
<title>Ch3_12</title>
<g id="a_node63"><a xlink:href="https://www.ipcc.ch/report/ar6/wg3/chapter/chapter-12/" xlink:title="Ch3_12">
<path fill="#d8bfd8" stroke="#d8bfd8" d="M2753.38,-104.73C2753.38,-106.53 2740.21,-108 2724,-108 2707.79,-108 2694.62,-106.53 2694.62,-104.73 2694.62,-104.73 2694.62,-75.27 2694.62,-75.27 2694.62,-73.47 2707.79,-72 2724,-72 2740.21,-72 2753.38,-73.47 2753.38,-75.27 2753.38,-75.27 2753.38,-104.73 2753.38,-104.73"/>
<path fill="none" stroke="#d8bfd8" d="M2753.38,-104.73C2753.38,-102.92 2740.21,-101.45 2724,-101.45 2707.79,-101.45 2694.62,-102.92 2694.62,-104.73"/>
<text text-anchor="middle" x="2724" y="-84.95" font-family="Times New Roman,serif" font-size="14.00">Ch3_12</text>
</a>
</g>
</g>
<!-- Wg3&#45;&gt;Ch3_12 -->
<g id="edge62" class="edge">
<title>Wg3&#45;&gt;Ch3_12</title>
<path fill="none" stroke="black" stroke-dasharray="1,5" d="M2445.62,-152.98C2454.62,-149.86 2465.22,-146.45 2475,-144 2563.44,-121.82 2592.15,-134.12 2683.61,-107.95"/>
<polygon fill="black" stroke="black" points="2684.41,-111.36 2693.01,-105.18 2682.43,-104.65 2684.41,-111.36"/>
</g>
<!-- Ch3_13 -->
<g id="node64" class="node">
<title>Ch3_13</title>
<g id="a_node64"><a xlink:href="https://www.ipcc.ch/report/ar6/wg3/chapter/chapter-13/" xlink:title="Ch3_13">
<path fill="#d8bfd8" stroke="#d8bfd8" d="M2830.38,-104.73C2830.38,-106.53 2817.21,-108 2801,-108 2784.79,-108 2771.62,-106.53 2771.62,-104.73 2771.62,-104.73 2771.62,-75.27 2771.62,-75.27 2771.62,-73.47 2784.79,-72 2801,-72 2817.21,-72 2830.38,-73.47 2830.38,-75.27 2830.38,-75.27 2830.38,-104.73 2830.38,-104.73"/>
<path fill="none" stroke="#d8bfd8" d="M2830.38,-104.73C2830.38,-102.92 2817.21,-101.45 2801,-101.45 2784.79,-101.45 2771.62,-102.92 2771.62,-104.73"/>
<text text-anchor="middle" x="2801" y="-84.95" font-family="Times New Roman,serif" font-size="14.00">Ch3_13</text>
</a>
</g>
</g>
<!-- Wg3&#45;&gt;Ch3_13 -->
<g id="edge63" class="edge">
<title>Wg3&#45;&gt;Ch3_13</title>
<path fill="none" stroke="black" stroke-dasharray="1,5" d="M2445.07,-152.94C2454.16,-149.73 2464.99,-146.27 2475,-144 2596.81,-116.34 2635.83,-140.58 2760.39,-107.9"/>
<polygon fill="black" stroke="black" points="2761.31,-111.28 2770.05,-105.29 2759.48,-104.52 2761.31,-111.28"/>
</g>
<!-- Ch3_14 -->
<g id="node65" class="node">
<title>Ch3_14</title>
<g id="a_node65"><a xlink:href="https://www.ipcc.ch/report/ar6/wg3/chapter/chapter-14/" xlink:title="Ch3_14">
<path fill="#d8bfd8" stroke="#d8bfd8" d="M2907.38,-104.73C2907.38,-106.53 2894.21,-108 2878,-108 2861.79,-108 2848.62,-106.53 2848.62,-104.73 2848.62,-104.73 2848.62,-75.27 2848.62,-75.27 2848.62,-73.47 2861.79,-72 2878,-72 2894.21,-72 2907.38,-73.47 2907.38,-75.27 2907.38,-75.27 2907.38,-104.73 2907.38,-104.73"/>
<path fill="none" stroke="#d8bfd8" d="M2907.38,-104.73C2907.38,-102.92 2894.21,-101.45 2878,-101.45 2861.79,-101.45 2848.62,-102.92 2848.62,-104.73"/>
<text text-anchor="middle" x="2878" y="-84.95" font-family="Times New Roman,serif" font-size="14.00">Ch3_14</text>
</a>
</g>
</g>
<!-- Wg3&#45;&gt;Ch3_14 -->
<g id="edge64" class="edge">
<title>Wg3&#45;&gt;Ch3_14</title>
<path fill="none" stroke="black" stroke-dasharray="1,5" d="M2445.05,-152.81C2454.13,-149.58 2464.96,-146.14 2475,-144 2630.42,-110.85 2679.48,-147.27 2837.47,-107.82"/>
<polygon fill="black" stroke="black" points="2838.25,-111.23 2847.06,-105.36 2836.51,-104.45 2838.25,-111.23"/>
</g>
<!-- Ch3_15 -->
<g id="node66" class="node">
<title>Ch3_15</title>
<g id="a_node66"><a xlink:href="https://www.ipcc.ch/report/ar6/wg3/chapter/chapter-15/" xlink:title="Ch3_15">
<path fill="#d8bfd8" stroke="#d8bfd8" d="M2984.38,-104.73C2984.38,-106.53 2971.21,-108 2955,-108 2938.79,-108 2925.62,-106.53 2925.62,-104.73 2925.62,-104.73 2925.62,-75.27 2925.62,-75.27 2925.62,-73.47 2938.79,-72 2955,-72 2971.21,-72 2984.38,-73.47 2984.38,-75.27 2984.38,-75.27 2984.38,-104.73 2984.38,-104.73"/>
<path fill="none" stroke="#d8bfd8" d="M2984.38,-104.73C2984.38,-102.92 2971.21,-101.45 2955,-101.45 2938.79,-101.45 2925.62,-102.92 2925.62,-104.73"/>
<text text-anchor="middle" x="2955" y="-84.95" font-family="Times New Roman,serif" font-size="14.00">Ch3_15</text>
</a>
</g>
</g>
<!-- Wg3&#45;&gt;Ch3_15 -->
<g id="edge65" class="edge">
<title>Wg3&#45;&gt;Ch3_15</title>
<path fill="none" stroke="black" stroke-dasharray="1,5" d="M2445.03,-152.72C2454.11,-149.48 2464.94,-146.06 2475,-144 2664.09,-105.35 2723.1,-154.07 2914.54,-107.77"/>
<polygon fill="black" stroke="black" points="2915.21,-111.21 2924.08,-105.4 2913.53,-104.41 2915.21,-111.21"/>
</g>
<!-- Ch3_16 -->
<g id="node67" class="node">
<title>Ch3_16</title>
<g id="a_node67"><a xlink:href="https://www.ipcc.ch/report/ar6/wg3/chapter/chapter-16/" xlink:title="Ch3_16">
<path fill="#d8bfd8" stroke="#d8bfd8" d="M3061.38,-104.73C3061.38,-106.53 3048.21,-108 3032,-108 3015.79,-108 3002.62,-106.53 3002.62,-104.73 3002.62,-104.73 3002.62,-75.27 3002.62,-75.27 3002.62,-73.47 3015.79,-72 3032,-72 3048.21,-72 3061.38,-73.47 3061.38,-75.27 3061.38,-75.27 3061.38,-104.73 3061.38,-104.73"/>
<path fill="none" stroke="#d8bfd8" d="M3061.38,-104.73C3061.38,-102.92 3048.21,-101.45 3032,-101.45 3015.79,-101.45 3002.62,-102.92 3002.62,-104.73"/>
<text text-anchor="middle" x="3032" y="-84.95" font-family="Times New Roman,serif" font-size="14.00">Ch3_16</text>
</a>
</g>
</g>
<!-- Wg3&#45;&gt;Ch3_16 -->
<g id="edge66" class="edge">
<title>Wg3&#45;&gt;Ch3_16</title>
<path fill="none" stroke="black" stroke-dasharray="1,5" d="M2445.02,-152.67C2454.1,-149.41 2464.93,-146 2475,-144 2697.73,-99.88 2766.63,-160.88 2991.39,-107.78"/>
<polygon fill="black" stroke="black" points="2992.19,-111.18 3001.08,-105.43 2990.54,-104.38 2992.19,-111.18"/>
</g>
<!-- Ch3_17 -->
<g id="node68" class="node">
<title>Ch3_17</title>
<g id="a_node68"><a xlink:href="https://www.ipcc.ch/report/ar6/wg3/chapter/chapter-17/" xlink:title="Ch3_17">
<path fill="#d8bfd8" stroke="#d8bfd8" d="M3138.38,-104.73C3138.38,-106.53 3125.21,-108 3109,-108 3092.79,-108 3079.62,-106.53 3079.62,-104.73 3079.62,-104.73 3079.62,-75.27 3079.62,-75.27 3079.62,-73.47 3092.79,-72 3109,-72 3125.21,-72 3138.38,-73.47 3138.38,-75.27 3138.38,-75.27 3138.38,-104.73 3138.38,-104.73"/>
<path fill="none" stroke="#d8bfd8" d="M3138.38,-104.73C3138.38,-102.92 3125.21,-101.45 3109,-101.45 3092.79,-101.45 3079.62,-102.92 3079.62,-104.73"/>
<text text-anchor="middle" x="3109" y="-84.95" font-family="Times New Roman,serif" font-size="14.00">Ch3_17</text>
</a>
</g>
</g>
<!-- Wg3&#45;&gt;Ch3_17 -->
<g id="edge67" class="edge">
<title>Wg3&#45;&gt;Ch3_17</title>
<path fill="none" stroke="black" stroke-dasharray="1,5" d="M2445.01,-152.62C2454.09,-149.36 2464.92,-145.95 2475,-144 2731.55,-94.37 2810.25,-167.82 3068.29,-107.83"/>
<polygon fill="black" stroke="black" points="3068.73,-111.32 3077.66,-105.61 3067.12,-104.51 3068.73,-111.32"/>
</g>
<!-- Ch2_1 -->
<g id="node27" class="node">
<title>Ch2_1</title>
<g id="a_node27"><a xlink:href="https://www.ipcc.ch/report/ar6/wg2/chapter/chapter-1/" xlink:title="Ch2_1">
<path fill="#f5deb3" stroke="#f5deb3" d="M338,-32.73C338,-34.53 325.9,-36 311,-36 296.1,-36 284,-34.53 284,-32.73 284,-32.73 284,-3.27 284,-3.27 284,-1.47 296.1,0 311,0 325.9,0 338,-1.47 338,-3.27 338,-3.27 338,-32.73 338,-32.73"/>
<path fill="none" stroke="#f5deb3" d="M338,-32.73C338,-30.92 325.9,-29.45 311,-29.45 296.1,-29.45 284,-30.92 284,-32.73"/>
<text text-anchor="middle" x="311" y="-12.95" font-family="Times New Roman,serif" font-size="14.00">Ch2_1</text>
</a>
</g>
</g>
<!-- Chapters&#45;&gt;Ch2_1 -->
<g id="edge26" class="edge">
<title>Chapters&#45;&gt;Ch2_1</title>
<path fill="none" stroke="black" stroke-dasharray="1,5" d="M965.98,-77.82C957.87,-75.54 949.19,-73.41 941,-72 684.04,-27.75 605.43,-99.57 349.26,-35.94"/>
<polygon fill="black" stroke="black" points="350.13,-32.55 339.58,-33.48 348.41,-39.33 350.13,-32.55"/>
</g>
<!-- Ch2_2 -->
<g id="node28" class="node">
<title>Ch2_2</title>
<g id="a_node28"><a xlink:href="https://www.ipcc.ch/report/ar6/wg2/chapter/chapter-2/" xlink:title="Ch2_2">
<path fill="#f5deb3" stroke="#f5deb3" d="M410,-32.73C410,-34.53 397.9,-36 383,-36 368.1,-36 356,-34.53 356,-32.73 356,-32.73 356,-3.27 356,-3.27 356,-1.47 368.1,0 383,0 397.9,0 410,-1.47 410,-3.27 410,-3.27 410,-32.73 410,-32.73"/>
<path fill="none" stroke="#f5deb3" d="M410,-32.73C410,-30.92 397.9,-29.45 383,-29.45 368.1,-29.45 356,-30.92 356,-32.73"/>
<text text-anchor="middle" x="383" y="-12.95" font-family="Times New Roman,serif" font-size="14.00">Ch2_2</text>
</a>
</g>
</g>
<!-- Chapters&#45;&gt;Ch2_2 -->
<g id="edge27" class="edge">
<title>Chapters&#45;&gt;Ch2_2</title>
<path fill="none" stroke="black" stroke-dasharray="1,5" d="M965.97,-77.87C957.86,-75.59 949.19,-73.45 941,-72 715.57,-32.21 646.19,-92.72 420.96,-35.88"/>
<polygon fill="black" stroke="black" points="422.14,-32.57 411.59,-33.47 420.4,-39.35 422.14,-32.57"/>
</g>
<!-- Ch2_3 -->
<g id="node29" class="node">
<title>Ch2_3</title>
<g id="a_node29"><a xlink:href="https://www.ipcc.ch/report/ar6/wg2/chapter/chapter-3/" xlink:title="Ch2_3">
<path fill="#f5deb3" stroke="#f5deb3" d="M482,-32.73C482,-34.53 469.9,-36 455,-36 440.1,-36 428,-34.53 428,-32.73 428,-32.73 428,-3.27 428,-3.27 428,-1.47 440.1,0 455,0 469.9,0 482,-1.47 482,-3.27 482,-3.27 482,-32.73 482,-32.73"/>
<path fill="none" stroke="#f5deb3" d="M482,-32.73C482,-30.92 469.9,-29.45 455,-29.45 440.1,-29.45 428,-30.92 428,-32.73"/>
<text text-anchor="middle" x="455" y="-12.95" font-family="Times New Roman,serif" font-size="14.00">Ch2_3</text>
</a>
</g>
</g>
<!-- Chapters&#45;&gt;Ch2_3 -->
<g id="edge28" class="edge">
<title>Chapters&#45;&gt;Ch2_3</title>
<path fill="none" stroke="black" stroke-dasharray="1,5" d="M965.96,-77.93C957.85,-75.65 949.18,-73.49 941,-72 747.18,-36.69 687.04,-85.84 492.98,-35.91"/>
<polygon fill="black" stroke="black" points="494.15,-32.6 483.59,-33.44 492.37,-39.37 494.15,-32.6"/>
</g>
<!-- Ch2_4 -->
<g id="node30" class="node">
<title>Ch2_4</title>
<g id="a_node30"><a xlink:href="https://www.ipcc.ch/report/ar6/wg2/chapter/chapter-4/" xlink:title="Ch2_4">
<path fill="#f5deb3" stroke="#f5deb3" d="M554,-32.73C554,-34.53 541.9,-36 527,-36 512.1,-36 500,-34.53 500,-32.73 500,-32.73 500,-3.27 500,-3.27 500,-1.47 512.1,0 527,0 541.9,0 554,-1.47 554,-3.27 554,-3.27 554,-32.73 554,-32.73"/>
<path fill="none" stroke="#f5deb3" d="M554,-32.73C554,-30.92 541.9,-29.45 527,-29.45 512.1,-29.45 500,-30.92 500,-32.73"/>
<text text-anchor="middle" x="527" y="-12.95" font-family="Times New Roman,serif" font-size="14.00">Ch2_4</text>
</a>
</g>
</g>
<!-- Chapters&#45;&gt;Ch2_4 -->
<g id="edge29" class="edge">
<title>Chapters&#45;&gt;Ch2_4</title>
<path fill="none" stroke="black" stroke-dasharray="1,5" d="M965.63,-77.94C957.61,-75.68 949.06,-73.53 941,-72 778.77,-41.18 727.91,-79 565.03,-35.96"/>
<polygon fill="black" stroke="black" points="566.17,-32.64 555.6,-33.4 564.34,-39.4 566.17,-32.64"/>
</g>
<!-- Ch2_5 -->
<g id="node31" class="node">
<title>Ch2_5</title>
<g id="a_node31"><a xlink:href="https://www.ipcc.ch/report/ar6/wg2/chapter/chapter-5/" xlink:title="Ch2_5">
<path fill="#f5deb3" stroke="#f5deb3" d="M626,-32.73C626,-34.53 613.9,-36 599,-36 584.1,-36 572,-34.53 572,-32.73 572,-32.73 572,-3.27 572,-3.27 572,-1.47 584.1,0 599,0 613.9,0 626,-1.47 626,-3.27 626,-3.27 626,-32.73 626,-32.73"/>
<path fill="none" stroke="#f5deb3" d="M626,-32.73C626,-30.92 613.9,-29.45 599,-29.45 584.1,-29.45 572,-30.92 572,-32.73"/>
<text text-anchor="middle" x="599" y="-12.95" font-family="Times New Roman,serif" font-size="14.00">Ch2_5</text>
</a>
</g>
</g>
<!-- Chapters&#45;&gt;Ch2_5 -->
<g id="edge30" class="edge">
<title>Chapters&#45;&gt;Ch2_5</title>
<path fill="none" stroke="black" stroke-dasharray="1,5" d="M965.6,-78.07C957.59,-75.81 949.05,-73.62 941,-72 810.3,-45.67 768.82,-72.25 637.07,-36.03"/>
<polygon fill="black" stroke="black" points="638.19,-32.71 627.62,-33.35 636.29,-39.44 638.19,-32.71"/>
</g>
<!-- Ch2_6 -->
<g id="node32" class="node">
<title>Ch2_6</title>
<g id="a_node32"><a xlink:href="https://www.ipcc.ch/report/ar6/wg2/chapter/chapter-6/" xlink:title="Ch2_6">
<path fill="#f5deb3" stroke="#f5deb3" d="M698,-32.73C698,-34.53 685.9,-36 671,-36 656.1,-36 644,-34.53 644,-32.73 644,-32.73 644,-3.27 644,-3.27 644,-1.47 656.1,0 671,0 685.9,0 698,-1.47 698,-3.27 698,-3.27 698,-32.73 698,-32.73"/>
<path fill="none" stroke="#f5deb3" d="M698,-32.73C698,-30.92 685.9,-29.45 671,-29.45 656.1,-29.45 644,-30.92 644,-32.73"/>
<text text-anchor="middle" x="671" y="-12.95" font-family="Times New Roman,serif" font-size="14.00">Ch2_6</text>
</a>
</g>
</g>
<!-- Chapters&#45;&gt;Ch2_6 -->
<g id="edge31" class="edge">
<title>Chapters&#45;&gt;Ch2_6</title>
<path fill="none" stroke="black" stroke-dasharray="1,5" d="M965.56,-78.28C957.55,-76 949.02,-73.76 941,-72 841.75,-50.16 809.8,-65.64 709.14,-36.14"/>
<polygon fill="black" stroke="black" points="710.23,-32.81 699.64,-33.27 708.2,-39.51 710.23,-32.81"/>
</g>
<!-- Ch2_7 -->
<g id="node33" class="node">
<title>Ch2_7</title>
<g id="a_node33"><a xlink:href="https://www.ipcc.ch/report/ar6/wg2/chapter/chapter-7/" xlink:title="Ch2_7">
<path fill="#f5deb3" stroke="#f5deb3" d="M770,-32.73C770,-34.53 757.9,-36 743,-36 728.1,-36 716,-34.53 716,-32.73 716,-32.73 716,-3.27 716,-3.27 716,-1.47 728.1,0 743,0 757.9,0 770,-1.47 770,-3.27 770,-3.27 770,-32.73 770,-32.73"/>
<path fill="none" stroke="#f5deb3" d="M770,-32.73C770,-30.92 757.9,-29.45 743,-29.45 728.1,-29.45 716,-30.92 716,-32.73"/>
<text text-anchor="middle" x="743" y="-12.95" font-family="Times New Roman,serif" font-size="14.00">Ch2_7</text>
</a>
</g>
</g>
<!-- Chapters&#45;&gt;Ch2_7 -->
<g id="edge32" class="edge">
<title>Chapters&#45;&gt;Ch2_7</title>
<path fill="none" stroke="black" stroke-dasharray="1,5" d="M964.84,-78.48C957.02,-76.25 948.75,-73.97 941,-72 872.88,-54.63 850.84,-59.38 780.93,-36.26"/>
<polygon fill="black" stroke="black" points="782.28,-33.02 771.69,-33.13 780.04,-39.65 782.28,-33.02"/>
</g>
<!-- Ch2_8 -->
<g id="node34" class="node">
<title>Ch2_8</title>
<g id="a_node34"><a xlink:href="https://www.ipcc.ch/report/ar6/wg2/chapter/chapter-8/" xlink:title="Ch2_8">
<path fill="#f5deb3" stroke="#f5deb3" d="M842,-32.73C842,-34.53 829.9,-36 815,-36 800.1,-36 788,-34.53 788,-32.73 788,-32.73 788,-3.27 788,-3.27 788,-1.47 800.1,0 815,0 829.9,0 842,-1.47 842,-3.27 842,-3.27 842,-32.73 842,-32.73"/>
<path fill="none" stroke="#f5deb3" d="M842,-32.73C842,-30.92 829.9,-29.45 815,-29.45 800.1,-29.45 788,-30.92 788,-32.73"/>
<text text-anchor="middle" x="815" y="-12.95" font-family="Times New Roman,serif" font-size="14.00">Ch2_8</text>
</a>
</g>
</g>
<!-- Chapters&#45;&gt;Ch2_8 -->
<g id="edge33" class="edge">
<title>Chapters&#45;&gt;Ch2_8</title>
<path fill="none" stroke="black" stroke-dasharray="1,5" d="M965.91,-77.95C937.73,-68.58 896.52,-54.34 852.92,-36.61"/>
<polygon fill="black" stroke="black" points="854.37,-33.42 843.79,-32.85 851.71,-39.9 854.37,-33.42"/>
</g>
<!-- Ch2_9 -->
<g id="node35" class="node">
<title>Ch2_9</title>
<g id="a_node35"><a xlink:href="https://www.ipcc.ch/report/ar6/wg2/chapter/chapter-9/" xlink:title="Ch2_9">
<path fill="#f5deb3" stroke="#f5deb3" d="M914,-32.73C914,-34.53 901.9,-36 887,-36 872.1,-36 860,-34.53 860,-32.73 860,-32.73 860,-3.27 860,-3.27 860,-1.47 872.1,0 887,0 901.9,0 914,-1.47 914,-3.27 914,-3.27 914,-32.73 914,-32.73"/>
<path fill="none" stroke="#f5deb3" d="M914,-32.73C914,-30.92 901.9,-29.45 887,-29.45 872.1,-29.45 860,-30.92 860,-32.73"/>
<text text-anchor="middle" x="887" y="-12.95" font-family="Times New Roman,serif" font-size="14.00">Ch2_9</text>
</a>
</g>
</g>
<!-- Chapters&#45;&gt;Ch2_9 -->
<g id="edge34" class="edge">
<title>Chapters&#45;&gt;Ch2_9</title>
<path fill="none" stroke="black" stroke-dasharray="1,5" d="M973.51,-72.59C958.24,-63.13 938.85,-51.12 922.3,-40.87"/>
<polygon fill="black" stroke="black" points="924.57,-38.16 914.22,-35.86 920.88,-44.11 924.57,-38.16"/>
</g>
<!-- Ch2_10 -->
<g id="node36" class="node">
<title>Ch2_10</title>
<g id="a_node36"><a xlink:href="https://www.ipcc.ch/report/ar6/wg2/chapter/chapter-10/" xlink:title="Ch2_10">
<path fill="#f5deb3" stroke="#f5deb3" d="M990.38,-32.73C990.38,-34.53 977.21,-36 961,-36 944.79,-36 931.62,-34.53 931.62,-32.73 931.62,-32.73 931.62,-3.27 931.62,-3.27 931.62,-1.47 944.79,0 961,0 977.21,0 990.38,-1.47 990.38,-3.27 990.38,-3.27 990.38,-32.73 990.38,-32.73"/>
<path fill="none" stroke="#f5deb3" d="M990.38,-32.73C990.38,-30.92 977.21,-29.45 961,-29.45 944.79,-29.45 931.62,-30.92 931.62,-32.73"/>
<text text-anchor="middle" x="961" y="-12.95" font-family="Times New Roman,serif" font-size="14.00">Ch2_10</text>
</a>
</g>
</g>
<!-- Chapters&#45;&gt;Ch2_10 -->
<g id="edge35" class="edge">
<title>Chapters&#45;&gt;Ch2_10</title>
<path fill="none" stroke="black" stroke-dasharray="1,5" d="M990.36,-71.7C986.06,-63.98 980.9,-54.71 976.11,-46.11"/>
<polygon fill="black" stroke="black" points="979.19,-44.46 971.27,-37.43 973.08,-47.87 979.19,-44.46"/>
</g>
<!-- Ch2_11 -->
<g id="node37" class="node">
<title>Ch2_11</title>
<g id="a_node37"><a xlink:href="https://www.ipcc.ch/report/ar6/wg2/chapter/chapter-11/" xlink:title="Ch2_11">
<path fill="#f5deb3" stroke="#f5deb3" d="M1067.38,-32.73C1067.38,-34.53 1054.21,-36 1038,-36 1021.79,-36 1008.62,-34.53 1008.62,-32.73 1008.62,-32.73 1008.62,-3.27 1008.62,-3.27 1008.62,-1.47 1021.79,0 1038,0 1054.21,0 1067.38,-1.47 1067.38,-3.27 1067.38,-3.27 1067.38,-32.73 1067.38,-32.73"/>
<path fill="none" stroke="#f5deb3" d="M1067.38,-32.73C1067.38,-30.92 1054.21,-29.45 1038,-29.45 1021.79,-29.45 1008.62,-30.92 1008.62,-32.73"/>
<text text-anchor="middle" x="1038" y="-12.95" font-family="Times New Roman,serif" font-size="14.00">Ch2_11</text>
</a>
</g>
</g>
<!-- Chapters&#45;&gt;Ch2_11 -->
<g id="edge36" class="edge">
<title>Chapters&#45;&gt;Ch2_11</title>
<path fill="none" stroke="black" stroke-dasharray="1,5" d="M1009.39,-71.7C1013.58,-63.98 1018.61,-54.71 1023.28,-46.11"/>
<polygon fill="black" stroke="black" points="1026.3,-47.89 1027.99,-37.43 1020.15,-44.55 1026.3,-47.89"/>
</g>
<!-- Ch2_12 -->
<g id="node38" class="node">
<title>Ch2_12</title>
<g id="a_node38"><a xlink:href="https://www.ipcc.ch/report/ar6/wg2/chapter/chapter-12/" xlink:title="Ch2_12">
<path fill="#f5deb3" stroke="#f5deb3" d="M1144.38,-32.73C1144.38,-34.53 1131.21,-36 1115,-36 1098.79,-36 1085.62,-34.53 1085.62,-32.73 1085.62,-32.73 1085.62,-3.27 1085.62,-3.27 1085.62,-1.47 1098.79,0 1115,0 1131.21,0 1144.38,-1.47 1144.38,-3.27 1144.38,-3.27 1144.38,-32.73 1144.38,-32.73"/>
<path fill="none" stroke="#f5deb3" d="M1144.38,-32.73C1144.38,-30.92 1131.21,-29.45 1115,-29.45 1098.79,-29.45 1085.62,-30.92 1085.62,-32.73"/>
<text text-anchor="middle" x="1115" y="-12.95" font-family="Times New Roman,serif" font-size="14.00">Ch2_12</text>
</a>
</g>
</g>
<!-- Chapters&#45;&gt;Ch2_12 -->
<g id="edge37" class="edge">
<title>Chapters&#45;&gt;Ch2_12</title>
<path fill="none" stroke="black" stroke-dasharray="1,5" d="M1026.67,-72.76C1042.2,-63.31 1061.99,-51.26 1078.9,-40.97"/>
<polygon fill="black" stroke="black" points="1080.46,-44.12 1087.18,-35.93 1076.82,-38.14 1080.46,-44.12"/>
</g>
<!-- Ch2_13 -->
<g id="node39" class="node">
<title>Ch2_13</title>
<g id="a_node39"><a xlink:href="https://www.ipcc.ch/report/ar6/wg2/chapter/chapter-13/" xlink:title="Ch2_13">
<path fill="#f5deb3" stroke="#f5deb3" d="M1221.38,-32.73C1221.38,-34.53 1208.21,-36 1192,-36 1175.79,-36 1162.62,-34.53 1162.62,-32.73 1162.62,-32.73 1162.62,-3.27 1162.62,-3.27 1162.62,-1.47 1175.79,0 1192,0 1208.21,0 1221.38,-1.47 1221.38,-3.27 1221.38,-3.27 1221.38,-32.73 1221.38,-32.73"/>
<path fill="none" stroke="#f5deb3" d="M1221.38,-32.73C1221.38,-30.92 1208.21,-29.45 1192,-29.45 1175.79,-29.45 1162.62,-30.92 1162.62,-32.73"/>
<text text-anchor="middle" x="1192" y="-12.95" font-family="Times New Roman,serif" font-size="14.00">Ch2_13</text>
</a>
</g>
</g>
<!-- Chapters&#45;&gt;Ch2_13 -->
<g id="edge38" class="edge">
<title>Chapters&#45;&gt;Ch2_13</title>
<path fill="none" stroke="black" stroke-dasharray="1,5" d="M1034.31,-77.96C1063.24,-68.47 1105.94,-54.03 1151.58,-36.41"/>
<polygon fill="black" stroke="black" points="1152.83,-39.68 1160.88,-32.78 1150.29,-33.15 1152.83,-39.68"/>
</g>
<!-- Ch2_14 -->
<g id="node40" class="node">
<title>Ch2_14</title>
<g id="a_node40"><a xlink:href="https://www.ipcc.ch/report/ar6/wg2/chapter/chapter-14/" xlink:title="Ch2_14">
<path fill="#f5deb3" stroke="#f5deb3" d="M1298.38,-32.73C1298.38,-34.53 1285.21,-36 1269,-36 1252.79,-36 1239.62,-34.53 1239.62,-32.73 1239.62,-32.73 1239.62,-3.27 1239.62,-3.27 1239.62,-1.47 1252.79,0 1269,0 1285.21,0 1298.38,-1.47 1298.38,-3.27 1298.38,-3.27 1298.38,-32.73 1298.38,-32.73"/>
<path fill="none" stroke="#f5deb3" d="M1298.38,-32.73C1298.38,-30.92 1285.21,-29.45 1269,-29.45 1252.79,-29.45 1239.62,-30.92 1239.62,-32.73"/>
<text text-anchor="middle" x="1269" y="-12.95" font-family="Times New Roman,serif" font-size="14.00">Ch2_14</text>
</a>
</g>
</g>
<!-- Chapters&#45;&gt;Ch2_14 -->
<g id="edge39" class="edge">
<title>Chapters&#45;&gt;Ch2_14</title>
<path fill="none" stroke="black" stroke-dasharray="1,5" d="M1040.09,-82.09C1084.3,-73.96 1157.55,-59 1228.9,-36.02"/>
<polygon fill="black" stroke="black" points="1229.56,-39.49 1237.97,-33.04 1227.38,-32.83 1229.56,-39.49"/>
</g>
<!-- Ch2_15 -->
<g id="node41" class="node">
<title>Ch2_15</title>
<g id="a_node41"><a xlink:href="https://www.ipcc.ch/report/ar6/wg2/chapter/chapter-15/" xlink:title="Ch2_15">
<path fill="#f5deb3" stroke="#f5deb3" d="M1375.38,-32.73C1375.38,-34.53 1362.21,-36 1346,-36 1329.79,-36 1316.62,-34.53 1316.62,-32.73 1316.62,-32.73 1316.62,-3.27 1316.62,-3.27 1316.62,-1.47 1329.79,0 1346,0 1362.21,0 1375.38,-1.47 1375.38,-3.27 1375.38,-3.27 1375.38,-32.73 1375.38,-32.73"/>
<path fill="none" stroke="#f5deb3" d="M1375.38,-32.73C1375.38,-30.92 1362.21,-29.45 1346,-29.45 1329.79,-29.45 1316.62,-30.92 1316.62,-32.73"/>
<text text-anchor="middle" x="1346" y="-12.95" font-family="Times New Roman,serif" font-size="14.00">Ch2_15</text>
</a>
</g>
</g>
<!-- Chapters&#45;&gt;Ch2_15 -->
<g id="edge40" class="edge">
<title>Chapters&#45;&gt;Ch2_15</title>
<path fill="none" stroke="black" stroke-dasharray="1,5" d="M1043.72,-84.79C1101.78,-78.48 1207.43,-64.49 1305.47,-36.01"/>
<polygon fill="black" stroke="black" points="1306.42,-39.38 1315.01,-33.18 1304.43,-32.67 1306.42,-39.38"/>
</g>
<!-- Ch2_16 -->
<g id="node42" class="node">
<title>Ch2_16</title>
<g id="a_node42"><a xlink:href="https://www.ipcc.ch/report/ar6/wg2/chapter/chapter-16/" xlink:title="Ch2_16">
<path fill="#f5deb3" stroke="#f5deb3" d="M1452.38,-32.73C1452.38,-34.53 1439.21,-36 1423,-36 1406.79,-36 1393.62,-34.53 1393.62,-32.73 1393.62,-32.73 1393.62,-3.27 1393.62,-3.27 1393.62,-1.47 1406.79,0 1423,0 1439.21,0 1452.38,-1.47 1452.38,-3.27 1452.38,-3.27 1452.38,-32.73 1452.38,-32.73"/>
<path fill="none" stroke="#f5deb3" d="M1452.38,-32.73C1452.38,-30.92 1439.21,-29.45 1423,-29.45 1406.79,-29.45 1393.62,-30.92 1393.62,-32.73"/>
<text text-anchor="middle" x="1423" y="-12.95" font-family="Times New Roman,serif" font-size="14.00">Ch2_16</text>
</a>
</g>
</g>
<!-- Chapters&#45;&gt;Ch2_16 -->
<g id="edge41" class="edge">
<title>Chapters&#45;&gt;Ch2_16</title>
<path fill="none" stroke="black" stroke-dasharray="1,5" d="M1046.35,-86.7C1117.3,-82.29 1256.92,-70.14 1382.55,-35.91"/>
<polygon fill="black" stroke="black" points="1383.35,-39.32 1392.04,-33.26 1381.47,-32.57 1383.35,-39.32"/>
</g>
<!-- Ch2_17 -->
<g id="node43" class="node">
<title>Ch2_17</title>
<g id="a_node43"><a xlink:href="https://www.ipcc.ch/report/ar6/wg2/chapter/chapter-17/" xlink:title="Ch2_17">
<path fill="#f5deb3" stroke="#f5deb3" d="M1529.38,-32.73C1529.38,-34.53 1516.21,-36 1500,-36 1483.79,-36 1470.62,-34.53 1470.62,-32.73 1470.62,-32.73 1470.62,-3.27 1470.62,-3.27 1470.62,-1.47 1483.79,0 1500,0 1516.21,0 1529.38,-1.47 1529.38,-3.27 1529.38,-3.27 1529.38,-32.73 1529.38,-32.73"/>
<path fill="none" stroke="#f5deb3" d="M1529.38,-32.73C1529.38,-30.92 1516.21,-29.45 1500,-29.45 1483.79,-29.45 1470.62,-30.92 1470.62,-32.73"/>
<text text-anchor="middle" x="1500" y="-12.95" font-family="Times New Roman,serif" font-size="14.00">Ch2_17</text>
</a>
</g>
</g>
<!-- Chapters&#45;&gt;Ch2_17 -->
<g id="edge42" class="edge">
<title>Chapters&#45;&gt;Ch2_17</title>
<path fill="none" stroke="black" stroke-dasharray="1,5" d="M1048.32,-88.13C1131.25,-85.62 1305.73,-75.97 1459.48,-35.87"/>
<polygon fill="black" stroke="black" points="1460.29,-39.28 1469.05,-33.32 1458.49,-32.51 1460.29,-39.28"/>
</g>
<!-- Ch2_18 -->
<g id="node44" class="node">
<title>Ch2_18</title>
<g id="a_node44"><a xlink:href="https://www.ipcc.ch/report/ar6/wg2/chapter/chapter-18/" xlink:title="Ch2_18">
<path fill="#f5deb3" stroke="#f5deb3" d="M1606.38,-32.73C1606.38,-34.53 1593.21,-36 1577,-36 1560.79,-36 1547.62,-34.53 1547.62,-32.73 1547.62,-32.73 1547.62,-3.27 1547.62,-3.27 1547.62,-1.47 1560.79,0 1577,0 1593.21,0 1606.38,-1.47 1606.38,-3.27 1606.38,-3.27 1606.38,-32.73 1606.38,-32.73"/>
<path fill="none" stroke="#f5deb3" d="M1606.38,-32.73C1606.38,-30.92 1593.21,-29.45 1577,-29.45 1560.79,-29.45 1547.62,-30.92 1547.62,-32.73"/>
<text text-anchor="middle" x="1577" y="-12.95" font-family="Times New Roman,serif" font-size="14.00">Ch2_18</text>
</a>
</g>
</g>
<!-- Chapters&#45;&gt;Ch2_18 -->
<g id="edge43" class="edge">
<title>Chapters&#45;&gt;Ch2_18</title>
<path fill="none" stroke="black" stroke-dasharray="1,5" d="M1049.86,-89.24C1144.01,-88.59 1354.07,-81.9 1536.39,-35.85"/>
<polygon fill="black" stroke="black" points="1537.26,-39.25 1546.07,-33.36 1535.51,-32.47 1537.26,-39.25"/>
</g>
<!-- Ccp1 -->
<g id="node45" class="node">
<title>Ccp1</title>
<g id="a_node45"><a xlink:href="https://www.ipcc.ch/report/ar6/wg2/chapter/ccp1/" xlink:title="Ccp1">
<path fill="#9fe2bf" stroke="#9fe2bf" d="M1678,-32.73C1678,-34.53 1665.9,-36 1651,-36 1636.1,-36 1624,-34.53 1624,-32.73 1624,-32.73 1624,-3.27 1624,-3.27 1624,-1.47 1636.1,0 1651,0 1665.9,0 1678,-1.47 1678,-3.27 1678,-3.27 1678,-32.73 1678,-32.73"/>
<path fill="none" stroke="#9fe2bf" d="M1678,-32.73C1678,-30.92 1665.9,-29.45 1651,-29.45 1636.1,-29.45 1624,-30.92 1624,-32.73"/>
<text text-anchor="middle" x="1651" y="-12.95" font-family="Times New Roman,serif" font-size="14.00">Ccp1</text>
</a>
</g>
</g>
<!-- Cross_Chapters&#45;&gt;Ccp1 -->
<g id="edge44" class="edge">
<title>Cross_Chapters&#45;&gt;Ccp1</title>
<path fill="none" stroke="black" stroke-dasharray="1,5" d="M1759.03,-71.52C1737.56,-61.08 1710.32,-47.83 1688.56,-37.26"/>
<polygon fill="black" stroke="black" points="1690.26,-34.19 1679.74,-32.97 1687.2,-40.49 1690.26,-34.19"/>
</g>
<!-- Ccp2 -->
<g id="node46" class="node">
<title>Ccp2</title>
<g id="a_node46"><a xlink:href="https://www.ipcc.ch/report/ar6/wg2/chapter/ccp2/" xlink:title="Ccp2">
<path fill="#9fe2bf" stroke="#9fe2bf" d="M1750,-32.73C1750,-34.53 1737.9,-36 1723,-36 1708.1,-36 1696,-34.53 1696,-32.73 1696,-32.73 1696,-3.27 1696,-3.27 1696,-1.47 1708.1,0 1723,0 1737.9,0 1750,-1.47 1750,-3.27 1750,-3.27 1750,-32.73 1750,-32.73"/>
<path fill="none" stroke="#9fe2bf" d="M1750,-32.73C1750,-30.92 1737.9,-29.45 1723,-29.45 1708.1,-29.45 1696,-30.92 1696,-32.73"/>
<text text-anchor="middle" x="1723" y="-12.95" font-family="Times New Roman,serif" font-size="14.00">Ccp2</text>
</a>
</g>
</g>
<!-- Cross_Chapters&#45;&gt;Ccp2 -->
<g id="edge45" class="edge">
<title>Cross_Chapters&#45;&gt;Ccp2</title>
<path fill="none" stroke="black" stroke-dasharray="1,5" d="M1777.2,-71.7C1768.57,-63.3 1758.04,-53.07 1748.57,-43.86"/>
<polygon fill="black" stroke="black" points="1751.29,-41.62 1741.68,-37.16 1746.41,-46.64 1751.29,-41.62"/>
</g>
<!-- Ccp3 -->
<g id="node47" class="node">
<title>Ccp3</title>
<g id="a_node47"><a xlink:href="https://www.ipcc.ch/report/ar6/wg2/chapter/ccp3/" xlink:title="Ccp3">
<path fill="#9fe2bf" stroke="#9fe2bf" d="M1822,-32.73C1822,-34.53 1809.9,-36 1795,-36 1780.1,-36 1768,-34.53 1768,-32.73 1768,-32.73 1768,-3.27 1768,-3.27 1768,-1.47 1780.1,0 1795,0 1809.9,0 1822,-1.47 1822,-3.27 1822,-3.27 1822,-32.73 1822,-32.73"/>
<path fill="none" stroke="#9fe2bf" d="M1822,-32.73C1822,-30.92 1809.9,-29.45 1795,-29.45 1780.1,-29.45 1768,-30.92 1768,-32.73"/>
<text text-anchor="middle" x="1795" y="-12.95" font-family="Times New Roman,serif" font-size="14.00">Ccp3</text>
</a>
</g>
</g>
<!-- Cross_Chapters&#45;&gt;Ccp3 -->
<g id="edge46" class="edge">
<title>Cross_Chapters&#45;&gt;Ccp3</title>
<path fill="none" stroke="black" stroke-dasharray="1,5" d="M1795,-71.7C1795,-64.41 1795,-55.73 1795,-47.54"/>
<polygon fill="black" stroke="black" points="1798.5,-47.62 1795,-37.62 1791.5,-47.62 1798.5,-47.62"/>
</g>
<!-- Ccp4 -->
<g id="node48" class="node">
<title>Ccp4</title>
<g id="a_node48"><a xlink:href="https://www.ipcc.ch/report/ar6/wg2/chapter/ccp4/" xlink:title="Ccp4">
<path fill="#9fe2bf" stroke="#9fe2bf" d="M1894,-32.73C1894,-34.53 1881.9,-36 1867,-36 1852.1,-36 1840,-34.53 1840,-32.73 1840,-32.73 1840,-3.27 1840,-3.27 1840,-1.47 1852.1,0 1867,0 1881.9,0 1894,-1.47 1894,-3.27 1894,-3.27 1894,-32.73 1894,-32.73"/>
<path fill="none" stroke="#9fe2bf" d="M1894,-32.73C1894,-30.92 1881.9,-29.45 1867,-29.45 1852.1,-29.45 1840,-30.92 1840,-32.73"/>
<text text-anchor="middle" x="1867" y="-12.95" font-family="Times New Roman,serif" font-size="14.00">Ccp4</text>
</a>
</g>
</g>
<!-- Cross_Chapters&#45;&gt;Ccp4 -->
<g id="edge47" class="edge">
<title>Cross_Chapters&#45;&gt;Ccp4</title>
<path fill="none" stroke="black" stroke-dasharray="1,5" d="M1812.8,-71.7C1821.43,-63.3 1831.96,-53.07 1841.43,-43.86"/>
<polygon fill="black" stroke="black" points="1843.59,-46.64 1848.32,-37.16 1838.71,-41.62 1843.59,-46.64"/>
</g>
<!-- Ccp5 -->
<g id="node49" class="node">
<title>Ccp5</title>
<g id="a_node49"><a xlink:href="https://www.ipcc.ch/report/ar6/wg2/chapter/ccp5/" xlink:title="Ccp5">
<path fill="#9fe2bf" stroke="#9fe2bf" d="M1966,-32.73C1966,-34.53 1953.9,-36 1939,-36 1924.1,-36 1912,-34.53 1912,-32.73 1912,-32.73 1912,-3.27 1912,-3.27 1912,-1.47 1924.1,0 1939,0 1953.9,0 1966,-1.47 1966,-3.27 1966,-3.27 1966,-32.73 1966,-32.73"/>
<path fill="none" stroke="#9fe2bf" d="M1966,-32.73C1966,-30.92 1953.9,-29.45 1939,-29.45 1924.1,-29.45 1912,-30.92 1912,-32.73"/>
<text text-anchor="middle" x="1939" y="-12.95" font-family="Times New Roman,serif" font-size="14.00">Ccp5</text>
</a>
</g>
</g>
<!-- Cross_Chapters&#45;&gt;Ccp5 -->
<g id="edge48" class="edge">
<title>Cross_Chapters&#45;&gt;Ccp5</title>
<path fill="none" stroke="black" stroke-dasharray="1,5" d="M1830.97,-71.52C1852.44,-61.08 1879.68,-47.83 1901.44,-37.26"/>
<polygon fill="black" stroke="black" points="1902.8,-40.49 1910.26,-32.97 1899.74,-34.19 1902.8,-40.49"/>
</g>
<!-- Ccp6 -->
<g id="node50" class="node">
<title>Ccp6</title>
<g id="a_node50"><a xlink:href="https://www.ipcc.ch/report/ar6/wg2/chapter/ccp6/" xlink:title="Ccp6">
<path fill="#9fe2bf" stroke="#9fe2bf" d="M2038,-32.73C2038,-34.53 2025.9,-36 2011,-36 1996.1,-36 1984,-34.53 1984,-32.73 1984,-32.73 1984,-3.27 1984,-3.27 1984,-1.47 1996.1,0 2011,0 2025.9,0 2038,-1.47 2038,-3.27 2038,-3.27 2038,-32.73 2038,-32.73"/>
<path fill="none" stroke="#9fe2bf" d="M2038,-32.73C2038,-30.92 2025.9,-29.45 2011,-29.45 1996.1,-29.45 1984,-30.92 1984,-32.73"/>
<text text-anchor="middle" x="2011" y="-12.95" font-family="Times New Roman,serif" font-size="14.00">Ccp6</text>
</a>
</g>
</g>
<!-- Cross_Chapters&#45;&gt;Ccp6 -->
<g id="edge49" class="edge">
<title>Cross_Chapters&#45;&gt;Ccp6</title>
<path fill="none" stroke="black" stroke-dasharray="1,5" d="M1845.74,-76.31C1879.69,-67.32 1925.45,-54.23 1973.15,-36.43"/>
<polygon fill="black" stroke="black" points="1974.15,-39.8 1982.26,-32.98 1971.67,-33.25 1974.15,-39.8"/>
</g>
<!-- Ccp7 -->
<g id="node51" class="node">
<title>Ccp7</title>
<g id="a_node51"><a xlink:href="https://www.ipcc.ch/report/ar6/wg2/chapter/ccp7/" xlink:title="Ccp7">
<path fill="#9fe2bf" stroke="#9fe2bf" d="M2110,-32.73C2110,-34.53 2097.9,-36 2083,-36 2068.1,-36 2056,-34.53 2056,-32.73 2056,-32.73 2056,-3.27 2056,-3.27 2056,-1.47 2068.1,0 2083,0 2097.9,0 2110,-1.47 2110,-3.27 2110,-3.27 2110,-32.73 2110,-32.73"/>
<path fill="none" stroke="#9fe2bf" d="M2110,-32.73C2110,-30.92 2097.9,-29.45 2083,-29.45 2068.1,-29.45 2056,-30.92 2056,-32.73"/>
<text text-anchor="middle" x="2083" y="-12.95" font-family="Times New Roman,serif" font-size="14.00">Ccp7</text>
</a>
</g>
</g>
<!-- Cross_Chapters&#45;&gt;Ccp7 -->
<g id="edge50" class="edge">
<title>Cross_Chapters&#45;&gt;Ccp7</title>
<path fill="none" stroke="black" stroke-dasharray="1,5" d="M1849.74,-78.19C1911.06,-65.99 2006.11,-46.75 2044.76,-36.02"/>
<polygon fill="black" stroke="black" points="2045.76,-39.38 2054.31,-33.11 2043.72,-32.68 2045.76,-39.38"/>
</g>
</g>
</svg>
